<svg id="Icon" xmlns="http://www.w3.org/2000/svg" width="64" height="64" viewBox="0 0 64 64">
  <g id="Border" opacity="0.06">
    <rect id="Shape" width="64" height="64" rx="16" fill="#7f1fd4"/>
  </g>
  <g id="Icon_Pie_Cart" data-name="Icon Pie Cart" transform="translate(12 12)">
    <path id="Combined_Shape" data-name="Combined Shape" d="M20,40A20,20,0,0,1,5.858,5.858,20,20,0,0,1,34.141,34.141,19.868,19.868,0,0,1,20,40Zm0-13.957a.954.954,0,0,1,.458.117l4.288,2.352a.478.478,0,0,0,.228.059.457.457,0,0,0,.081-.007.58.58,0,0,0,.432-.684L24.668,22.9a.956.956,0,0,1,.261-.823L28.4,18.548a.612.612,0,0,0,.166-.344.576.576,0,0,0-.446-.67l-4.8-.727a.953.953,0,0,1-.718-.534l-2.144-4.532a.56.56,0,0,0-.245-.259A.469.469,0,0,0,20,11.429a.517.517,0,0,0-.461.312l-2.145,4.532a.95.95,0,0,1-.718.534l-4.794.727a.5.5,0,0,0-.291.157.634.634,0,0,0,.01.857l3.469,3.528a.956.956,0,0,1,.261.823l-.819,4.981a.645.645,0,0,0,.059.393.517.517,0,0,0,.455.3.466.466,0,0,0,.229-.059l4.289-2.352A.954.954,0,0,1,20,26.042Z" transform="translate(0 0.161)" fill="#7f1fd4"/>
  </g>
</svg>
