<svg xmlns="http://www.w3.org/2000/svg" xmlns:xlink="http://www.w3.org/1999/xlink" width="42" height="40" viewBox="0 0 42 40">
  <defs>
    <clipPath id="clip-path">
      <rect id="Rectángulo_171" data-name="Rectángulo 171" width="27" height="28" fill="#fff" stroke="#707070" stroke-width="1"/>
    </clipPath>
  </defs>
  <g id="Grupo_1135" data-name="Grupo 1135" transform="translate(-48 -133.387)">
    <g id="Icon" transform="translate(48 133.387)">
      <g id="Layer">
        <rect id="Shadow" width="42" height="40" rx="20" fill="#7f1fd4"/>
        <rect id="Fill" width="42" height="40" rx="20" fill="#7f1fd4"/>
      </g>
    </g>
    <g id="Enmascarar_grupo_74" data-name="Enmascarar grupo 74" transform="translate(56 139.387)" clip-path="url(#clip-path)">
      <g id="Facebook" transform="translate(6.444 0.467)">
        <path id="Trazado_78" data-name="Trazado 78" d="M9.12,20.756c0,1.868-.008,3.735.008,5.6,0,.351-.086.478-.457.473q-2.035-.03-4.068,0c-.363.005-.465-.107-.462-.465.013-3.712.008-7.422.008-11.134,0-.567,0-.567-.574-.567-1.034,0-2.071-.008-3.1,0-.33,0-.465-.1-.46-.452.018-1.38.015-2.759,0-4.139,0-.333.122-.434.44-.429,1.082.013,2.165-.008,3.247.01.346.005.46-.112.457-.452-.013-1.3.015-2.594-.01-3.89A5.471,5.471,0,0,1,8.251.15,5.042,5.042,0,0,1,9.45.008C10.8.008,12.159.015,13.516,0c.33,0,.465.089.46.442-.018,1.2-.015,2.4,0,3.6,0,.325-.1.442-.432.434-.821-.018-1.641-.008-2.462-.005A1.8,1.8,0,0,0,9.122,6.426c0,.94.01,1.88-.005,2.818-.005.315.109.414.414.412,1.3-.013,2.594-.005,3.89-.005.44,0,.465.028.412.44-.18,1.377-.376,2.754-.539,4.134-.043.363-.206.45-.534.445-1.06-.013-2.117.008-3.176-.01-.353-.008-.475.091-.473.46C9.127,17,9.12,18.876,9.12,20.756Z" transform="translate(-0.008 0)" fill="#fff"/>
      </g>
    </g>
  </g>
</svg>
