<svg id="Icon" xmlns="http://www.w3.org/2000/svg" width="64" height="64" viewBox="0 0 64 64">
  <g id="Border" opacity="0.06">
    <rect id="Shape" width="64" height="64" rx="16" fill="#7f1fd4"/>
  </g>
  <g id="Grupo_10" data-name="Grupo 10">
    <g id="Icon_Pie_Cart" data-name="Icon Pie Cart" transform="translate(12 11.993)">
      <path id="path" d="M19.994,39.987A19.994,19.994,0,0,1,5.856,5.856,19.994,19.994,0,0,1,34.131,34.131,19.863,19.863,0,0,1,19.994,39.987Zm0-38.083A18.089,18.089,0,0,0,7.2,32.785,18.089,18.089,0,0,0,32.785,7.2,17.971,17.971,0,0,0,19.994,1.9Z" transform="translate(0 0.007)" fill="#7f1fd4"/>
    </g>
    <path id="Combined_Shape" data-name="Combined Shape" d="M14.2,28.4A14.2,14.2,0,1,1,28.4,14.2,14.2,14.2,0,0,1,14.2,28.4Z" transform="translate(18 18)" fill="#7f1fd4"/>
    <path id="Path-2" data-name="Path" d="M5.712,1.9H8.479a.952.952,0,0,1,.952.952v.721a.952.952,0,0,1-1.876.231H2.883a.952.952,0,0,0-.952.952v.954a.952.952,0,0,0,.952.952H6.665A2.856,2.856,0,0,1,9.521,9.522v.951a2.856,2.856,0,0,1-2.856,2.856H5.712v.935a.952.952,0,0,1-1.9,0v-.935H.952A.952.952,0,0,1,0,12.348l.027-.873a.952.952,0,0,1,1.9-.05H6.665a.952.952,0,0,0,.952-.952V9.522a.952.952,0,0,0-.952-.952H2.883A2.856,2.856,0,0,1,.027,5.714V4.76A2.856,2.856,0,0,1,2.883,1.9h.926V.952a.952.952,0,0,1,1.9,0Z" transform="translate(27 24)" fill="#fff"/>
  </g>
</svg>
