<svg id="Icon" xmlns="http://www.w3.org/2000/svg" width="64" height="64" viewBox="0 0 64 64">
  <g id="Border" opacity="0.06">
    <rect id="Shape" width="64" height="64" rx="16" fill="#7f1fd4"/>
  </g>
  <g id="Icon_Pie_Cart" data-name="Icon Pie Cart" transform="translate(12 12)">
    <rect id="Base" width="40" height="40" rx="20" fill="#7f1fd4"/>
    <g id="iconspace_Board_25px" transform="translate(5.386 5.386)">
      <path id="Path" d="M0,0H29.227V29.227H0Z" fill="none"/>
      <path id="Path-2" data-name="Path" d="M15.783,24.551H4.092A4.1,4.1,0,0,1,0,20.459V6.43A4.1,4.1,0,0,1,4.092,2.338h.644A2.93,2.93,0,0,1,7.6,0h4.677a2.929,2.929,0,0,1,2.863,2.338h.644A4.1,4.1,0,0,1,19.875,6.43V20.459A4.1,4.1,0,0,1,15.783,24.551ZM4.092,3.507A2.926,2.926,0,0,0,1.169,6.43V20.459a2.926,2.926,0,0,0,2.923,2.923H15.783a2.926,2.926,0,0,0,2.923-2.923V6.43a2.926,2.926,0,0,0-2.923-2.923h-.644a2.929,2.929,0,0,1-2.863,2.338H7.6A2.929,2.929,0,0,1,4.735,3.507ZM7.6,1.169a1.754,1.754,0,1,0,0,3.507h4.677a1.754,1.754,0,1,0,0-3.507Z" transform="translate(4.676 2.338)" fill="#fff"/>
      <path id="Path-3" data-name="Path" d="M9.938,10.522H.585a.585.585,0,0,1,0-1.17H9.938a.585.585,0,0,1,0,1.17Zm0-4.677H.585a.585.585,0,0,1,0-1.169H9.938a.585.585,0,0,1,0,1.169Zm0-4.676H.585A.585.585,0,0,1,.585,0H9.938a.585.585,0,0,1,0,1.169Z" transform="translate(9.353 11.691)" fill="#fff"/>
    </g>
  </g>
</svg>
