<svg id="Button_" data-name="Button " xmlns="http://www.w3.org/2000/svg" width="58" height="56" viewBox="0 0 58 56">
  <g id="Background">
    <rect id="Shadow" width="58" height="56" rx="28" fill="none"/>
    <rect id="Fill" width="58" height="56" rx="28" fill="none"/>
  </g>
  <path id="comment" d="M.281,15.75a8.04,8.04,0,0,0,4.943-1.807A10.721,10.721,0,0,0,9,14.625c4.971,0,9-3.273,9-7.312S13.971,0,9,0,0,3.273,0,7.312a6.491,6.491,0,0,0,2,4.595A8.944,8.944,0,0,1,.077,15.275a.279.279,0,0,0-.053.306A.275.275,0,0,0,.281,15.75Z" transform="translate(20 19.375)" fill="#7f1fd4"/>
</svg>
