<?xml version="1.0" encoding="utf-8"?>
<!-- Generator: Adobe Illustrator 24.0.1, SVG Export Plug-In . SVG Version: 6.00 Build 0)  -->
<svg version="1.1" id="Capa_1" xmlns="http://www.w3.org/2000/svg" xmlns:xlink="http://www.w3.org/1999/xlink" x="0px" y="0px"
	 viewBox="0 0 574.4 259.1" style="enable-background:new 0 0 574.4 259.1;" xml:space="preserve">
<style type="text/css">
	.st0{fill:#A6A6A6;}
	.st1{fill:#DEDEDE;}
	.st2{fill:#FFFFFF;}
</style>
<title>Artboard 7</title>
<g>
	<g>
		<path class="st0" d="M234.8,156c2.1,0.1,4.2,0.4,6.2,1.1c1.8,0.6,3.2,1.5,3.2,2.7c0,0.3-1.9,8.1-4,17c1.2,0,2.2-0.1,3-0.1
			c1.6,0,2.3,0.5,2.3,3.5c0,4.7-4.9,5.1-7.4,5.1c-0.8,3.8-4.2,15.6-4.2,20.6c0,2.9,0.8,5.8,3.6,5.8c1-0.1,2-0.5,2.7-1.2
			c1.6-1.4,2.9-3.8,4.1-6.6c0-0.2,0.1-0.4,0.2-0.6c1-7.9,3.1-18.6,5-22.9c0.8-1.8,2-2.4,3.8-2.5c2,0,9.5,1,9.5,3.8
			c0,0.7-5.3,16.7-5.3,23.4c0,2.6,0.7,5,3.6,5c5.9,0,7-22,10.5-29.8c0.8-1.8,2-2.4,3.8-2.5c2,0,9.5,1,9.5,3.8
			c0,0.9-5.3,17.4-5.3,24.2c0,3,0.7,5.9,3.6,5.9c1-0.1,2-0.5,2.7-1.2c1.5-1.4,2.7-3.2,3.5-5.1c0.2-3.3,0.8-6.6,1.9-9.8
			c3.7-10.7,11.6-18,18.7-18c1,0,2,0.2,3,0.5c1.7,0.5,3.3,1.5,4.4,2.8c0.8-3.4,1.6-6.8,2.3-10c1.4-5.8,2.7-10.6,3.5-12.4
			c0.8-1.8,2-2.4,3.8-2.5c1.6,0,6.3,0.6,8.5,2.1c0.6,0.4,0.9,1,1,1.7c0,0.5-1,4.7-1,4.7s-1.1,4.8-1.5,6.3c-0.1,0.5-0.2,0.7-0.2,0.7
			l0.1-0.7c-3,11.8-7.7,29.4-7.7,35.1c0,2.9,0.8,5.8,3.6,5.8c1-0.1,2-0.5,2.7-1.2c1.6-1.4,2.9-3.8,4.1-6.6c0.1-0.2,0.1-0.4,0.2-0.6
			c1-7.9,3.1-18.6,5-22.9c0.8-1.8,2-2.4,3.8-2.5c2,0,9.5,1,9.5,3.8c0,0.9-5.3,17.6-5.3,24.5c0,2.9,0.8,5.6,3.6,5.6
			c1-0.1,2-0.5,2.7-1.2c1.1-1,1.9-2.1,2.6-3.4V207c0-11,7.8-29.7,24.4-29.7c12.4,0,14.5,11.7,14.2,13.5h0.1c0.5,0,1.5-0.7,1.9-0.9
			c0.6-0.5,1.3-0.7,2.1-0.8c3.1,0,1.3,7.8-4.6,8.4c0,11.5-9.7,25.2-22.7,25.2c-7.5,0-11.5-3.3-13.5-7c-3.3,4.2-7.6,7-13,7
			c-6.5,0-9.5-3.5-10.8-6.9c-3.3,4.1-7.5,6.9-12.9,6.9c-6.7,0-9.7-3.5-10.9-6.9c-3.7,4.3-8.3,6.9-12.5,6.9h-0.1
			c-0.9,0-1.9-0.1-2.8-0.4c-3.2-1-5.5-3.6-6.9-7c-3.4,4.4-7.7,7.4-13.3,7.4c-5.8,0-8.8-2.6-10.2-5.5c-3.2,3.4-7,5.5-12.3,5.5
			c-6.2,0-9.1-3.5-10.3-6.9c-3.3,4.1-7.5,6.9-12.9,6.9c-10.1,0-11.7-8.6-11.7-11.9c0-4.2,1.9-15.4,4.2-26.5
			c-2.5-0.6-3.9-1.5-3.9-3.2c0-1.5,0.1-4,1.9-4.1c0.6,0,1.9-0.1,3.5-0.1c0.5-2.2,0.9-4.3,1.4-6.2c1.4-5.9,2.7-10.6,3.5-12.4
			C231.8,156.7,233,156.1,234.8,156 M377.9,212L377.9,212c2.5,0,6.2-2.5,8.6-10c-0.6,0.1-1.3,0.1-1.9,0.1c-0.2,0-0.5,0-0.7,0
			c-2.4,0-4.7-2.7-4.7-5.5l0,0c-0.1-3.4,2.6-6.1,5.9-6.2c0-0.5-1-1.8-2.8-1.8c-4.7,0-9.9,8.5-9.9,15.3
			C372.3,210.2,375.3,212,377.9,212 M305.2,210.5h0.1c2.6,0,5.9-3.7,7.7-9.1c2.1-5.9,1.4-11.3-1.3-12.2c-0.2-0.1-0.4-0.1-0.7-0.1
			h-0.1c-2.6,0-5.9,3.8-7.7,9.2c-2,5.8-1.4,11.3,1.3,12.1C304.7,210.4,305,210.5,305.2,210.5 M234.8,154h-0.1
			c-1.7,0.1-4.2,0.6-5.5,3.7c-0.8,1.9-2.2,6.5-3.6,12.7c-0.3,1.2-0.6,2.6-0.9,4c-0.1,0.3-0.1,0.5-0.2,0.8c-0.4,0-0.7,0-1,0
			c-0.4,0-0.7,0-0.9,0h-0.1c-2.5,0.1-3.8,2.2-3.8,6.1c0,2.7,1.9,3.9,3.6,4.6c-1.9,9.5-3.9,20.6-3.9,25.1c0,5.2,2.9,13.9,13.7,13.9
			c4.6,0,8.7-1.8,12.4-5.4c2.3,3.5,6,5.4,10.8,5.4c4.5,0,8.4-1.4,11.9-4.4c1.9,2.3,5.1,4.4,10.5,4.4c4.8,0,9.1-2,12.9-5.9
			c1.7,2.7,4,4.5,6.8,5.4c1.1,0.3,2.2,0.5,3.4,0.5h0.2c3.9,0,8.2-2,11.9-5.5c2.3,3.6,6.3,5.5,11.4,5.5c4.6,0,8.8-1.8,12.4-5.5
			c1.9,2.9,5.3,5.5,11.2,5.5c4.7,0,9.1-2,12.8-5.8c2.4,3,6.6,5.8,13.7,5.8c13.6,0,23.8-13.1,24.7-25.5c4.2-1.3,6.3-5.4,6.2-8.3
			c-0.1-2.2-1.5-3.7-3.5-3.7c-0.1,0-0.1,0-0.2,0c-0.8,0.1-1.6,0.3-2.3,0.7c-0.5-2.1-1.6-4.8-3.5-7.1c-3-3.5-7.2-5.3-12.3-5.3
			c-10.2,0-16.5,6.3-20,11.6c-3.8,5.8-6.2,13.3-6.3,19.7c-0.5,0.9-1.2,1.8-2,2.5c-0.4,0.4-0.9,0.6-1.4,0.7c-1-0.1-1.6-1.3-1.6-3.6
			c0-4.7,2.9-15.3,4.3-20.3c0.9-3.2,1-3.7,1-4.2c0-5.5-11.3-5.8-11.5-5.8h-0.1c-1.7,0.1-4.2,0.6-5.5,3.7c-2,4.5-4.1,15.3-5.2,23.3
			c0,0.1-0.1,0.2-0.1,0.3l0,0c-0.8,1.9-2.1,4.6-3.6,5.9c0,0,0,0-0.1,0.1c-0.4,0.4-0.9,0.6-1.4,0.7c-1.4-0.1-1.6-2.4-1.6-3.8
			c0-4.9,3.8-19.7,6.6-30.6c0.3-1,0.5-1.9,0.7-2.9c0.2-0.4,0.3-0.8,0.4-1.1c0.4-1.6,1.5-6.2,1.5-6.4c1.1-4.4,1.1-5,1.1-5.2
			c0-0.1,0-0.1,0-0.2c-0.1-1.3-0.8-2.4-1.8-3.1c-2.6-1.9-8-2.5-9.6-2.5h-0.1c-1.7,0.1-4.2,0.6-5.5,3.7c-1,2.3-2.5,8.2-3.6,12.7
			c-0.5,2.2-1,4.5-1.6,6.8c-0.8-0.5-1.7-0.9-2.6-1.1c-1.1-0.4-2.3-0.6-3.6-0.6c-8.2,0-16.7,8-20.6,19.4c-1.1,3.2-1.8,6.6-2,10
			c-0.7,1.6-1.7,3-2.9,4.1c-0.4,0.4-0.9,0.6-1.4,0.7c-0.5,0-1.5-0.2-1.5-3.9c0-4.7,2.9-15.1,4.3-20.1c0.9-3.1,1-3.6,1-4.1
			c0-5.5-11.3-5.8-11.5-5.8h-0.1c-1.7,0.1-4.2,0.6-5.5,3.7c-1.3,3-2.3,7.7-3.3,12.6c-0.8,4.2-1.7,8.5-2.8,11.7
			c-1.2,3.4-2.2,4.2-2.6,4.2c-0.6,0-1.6,0-1.6-3c0-4.8,3-15.1,4.5-20c0.8-2.7,0.9-3,0.9-3.5c0-5.5-11.3-5.8-11.5-5.8h-0.1
			c-1.7,0.1-4.2,0.6-5.5,3.7c-0.1,0.1-0.1,0.3-0.2,0.5c0-1.7-0.1-5.4-4.3-5.4c-0.1,0-0.3,0-0.5,0c0.4-1.6,0.7-3.1,1.1-4.5
			c2.4-9.9,2.4-10,2.4-10.4c0-1.4-0.8-3.4-4.6-4.6C239.4,154.5,237.1,154.1,234.8,154L234.8,154L234.8,154z M239.7,187.3
			c3.4-0.3,5.3-1.5,6.4-2.8c-1.4,5.3-2.8,12.5-3.5,18.3c-0.1,0.2-0.1,0.4-0.2,0.6c-0.8,1.9-2,4.4-3.5,5.7l-0.1,0.1
			c-0.4,0.4-0.8,0.6-1.4,0.6c-1.4-0.1-1.6-2.4-1.6-3.8c0-3.5,1.9-10.9,3.1-15.8C239.2,189.2,239.5,188.2,239.7,187.3L239.7,187.3z
			 M305.2,208.5C305.2,208.5,305.1,208.5,305.2,208.5c-0.3-0.1-0.5-0.4-0.6-0.6c-0.7-1.4-0.9-4.8,0.5-8.9c1.7-5,4.5-7.8,5.9-7.8h0.1
			l0,0h0.1c0.3,0.1,0.5,0.5,0.6,0.7c0.7,1.5,0.8,4.9-0.6,8.9c-1.7,5-4.5,7.7-5.9,7.7C305.3,208.5,305.2,208.5,305.2,208.5
			L305.2,208.5L305.2,208.5z M377.8,210c-3-0.1-3.5-3.9-3.5-6.1c0-3.3,1.3-6.8,3-9.4c-0.2,0.7-0.3,1.4-0.2,2.1l0,0
			c0,3.8,3,7.3,6.4,7.5C381.5,208.7,379.1,210,377.8,210L377.8,210L377.8,210z"/>
	</g>
	<g>
		<path class="st0" d="M204.3,156.2c0.5,0,1.1,0.1,1.6,0.1c7.2,0.5,14.5,4.5,14.5,13.6c0,5-2.5,9-6.3,9c-3.3,0-4-2.5-4-5.1
			c0-3.7-1.7-6.9-4.1-8.4c-0.8-0.4-1.6-0.7-2.5-0.7h-0.1l0,0h-0.1c-3,0.6-5,3.5-4.4,6.5c1.5,8.2,17.7,16.2,17.7,31.1
			c0,14.8-10.3,22-23,22c-11.2,0-19.5-8.2-19.5-18.9c0-9.6,6-14.5,12.3-14.5c7.6,0,1,8.7,1,14.1c0,4.4,2.5,8.3,7.1,8.3
			c5.8,0,7.6-5.4,7.6-8.9c0-13-18.1-19.4-18.1-32.4c0-3.3,1.2-6.5,3.4-9C190.9,158.8,197.2,156.2,204.3,156.2 M204.3,154.2
			c-7.6,0-14.5,2.8-18.5,7.5c-2.5,2.8-3.9,6.5-3.9,10.2c0,7.3,4.9,12.5,9.6,17.6c4.4,4.7,8.5,9.1,8.5,14.8c0,0.3-0.1,6.9-5.6,6.9
			c-3.8,0-5.1-3.4-5.1-6.3c0-1.5,0.7-3.4,1.3-5.3c1.1-3.3,2.2-6.5,0.5-8.8c-0.9-1.3-2.6-2-4.8-2c-7.1,0-14.3,5.7-14.3,16.5
			c0,11.9,9.3,20.9,21.5,20.9c15.2,0,25-9.4,25-24c0-9.7-6.3-16.7-11.4-22.3c-3-3.3-5.8-6.4-6.3-9.1c-0.4-1.9,0.8-3.8,2.7-4.2
			c0.5,0,1,0.2,1.5,0.4c1.8,1.1,3.1,3.7,3.1,6.6c0,6.2,3.8,7.1,6,7.1c4.8,0,8.3-4.6,8.3-11c0-10.7-8.8-15.1-16.4-15.6h-0.1
			c-0.2,0-0.4,0-0.6,0C205,154.3,204.6,154.2,204.3,154.2L204.3,154.2z"/>
	</g>
	<g>
		<path class="st0" d="M354.6,137c1,0,1.9,0.2,2.8,0.7l0,0c2.3,1.1,3.5,3.7,3.5,6.5c0,1.7-0.4,3.5-1.3,5.3c-1.4,2.7-4.7,5.7-8,5.7
			l0,0c-1,0-1.9-0.2-2.8-0.7c-0.4-0.2-0.8-0.5-1.2-0.8c-2.5-2.3-2.9-6.8-0.8-11c0.4-0.7,0.8-1.3,1.3-2c0-0.1,0-0.1,0-0.2
			C349.6,138.5,352,137,354.6,137C354.5,137,354.5,137,354.6,137 M354.6,135C354.6,135,354.5,135,354.6,135c-3,0-6,1.6-8.2,4.4
			c-0.1,0.1-0.2,0.3-0.3,0.5c-0.5,0.6-0.9,1.3-1.2,2c-2.5,4.9-2,10.4,1.2,13.4l0.1,0.1c0.5,0.4,1,0.7,1.5,1c1.2,0.6,2.4,1,3.7,1
			c4.2,0,8.1-3.4,9.9-6.8c1-2,1.6-4.1,1.6-6.2c0-3.7-1.7-6.8-4.5-8.3C357.1,135.3,355.8,135,354.6,135L354.6,135z"/>
	</g>
</g>
<g id="Group_32" transform="translate(0.005 0.025)">
	<g id="Group_32-2" transform="translate(-0.005 -0.025)">
		<path id="Path_62" class="st1" d="M111.7,169L75.4,66.5c-0.2-0.6-0.8-1-1.4-1H59.1c-0.6,0-1.2,0.4-1.4,1L21.3,169
			c-0.3,0.9,0.1,1.8,1,2.1c0.1,0.1,0.3,0.1,0.4,0.1h16.5c0.7,0,1.2-0.5,1.4-1.1l8.3-24.2c0.2-0.6,0.8-1.1,1.4-1.1h32.3
			c0.6,0,1.2,0.4,1.4,1l8.5,24.2c0.2,0.6,0.8,1.1,1.4,1.1h16.5C111.3,171.2,112,170,111.7,169z M78,130.4H54.6
			c-0.9-0.1-1.6-0.8-1.5-1.7c0-0.2,0-0.3,0.1-0.5l12-35.1c0.2-0.8,1-1.2,1.8-1c0.5,0.1,0.9,0.5,1,1l11.5,35.2c0.3,0.8-0.2,1.8-1,2
			C78.3,130.3,78.1,130.4,78,130.4z"/>
		<path id="Path_63" class="st1" d="M140.1,150.2l-16.7-55.9c-0.2-0.6-0.7-1.1-1.4-1.1h-15.9c-0.9,0.1-1.6,0.8-1.5,1.7
			c0,0.2,0,0.3,0.1,0.5l25.7,74.9c0.2,0.6,0.8,1.1,1.4,1.1h18c0.7,0,1.2-0.5,1.4-1.1l25.7-74.9c0.3-0.9-0.1-1.8-1-2.1
			c-0.1-0.1-0.3-0.1-0.4-0.1h-14.2c-0.7,0-1.2,0.5-1.4,1.1L143,150.2c-0.2,0.8-0.9,1.3-1.7,1.1C140.7,151.2,140.2,150.7,140.1,150.2
			z"/>
		<path id="Path_64" class="st1" d="M188.8,82.3h15.6c0.9,0,1.5-0.8,1.5-1.6V64.1c0-0.9-0.7-1.6-1.5-1.6h-15.6
			c-0.9,0-1.5,0.8-1.5,1.6v16.6C187.3,81.5,188,82.2,188.8,82.3z"/>
		<path id="Path_65" class="st1" d="M205.9,94.7v51.5h-1.6c-5.9-0.1-11.8,1.3-17,4.1V94.7c0-0.9,0.7-1.6,1.5-1.6h15.6
			C205.3,93.2,205.9,93.9,205.9,94.7z"/>
		<path id="Subtraction_1" class="st1" d="M287.8,170.9L287.8,170.9c-1.3-0.7-2.6-1.2-4-1.5c-2.7-0.7-5.5-1.1-8.3-1.2H275
			c-1.8,0.1-3.6,0.5-5.2,1.2v-42.1c0-6.3-1-10.9-3-13.7c-1.8-2.8-4.9-4.4-8.3-4.3c-3.6,0-7,1.4-10.4,4.4c-3.3,3.1-5.7,7.1-6.9,11.5
			c0,0.1,0,0.2-0.1,0.3c0,0.1,0,0.2-0.1,0.3v21.1c-2.1-0.4-4.1-0.7-6.2-0.7h-0.5c-5,0.3-9.1,2.6-11.5,6.5c-0.1-0.1-0.3-0.2-0.4-0.3
			V94.7c0-0.9,0.6-1.6,1.5-1.6h13.8c0.9,0,1.5,0.7,1.5,1.6v7.6c0,0.9,0.7,1.6,1.5,1.6c0.4,0,0.9-0.2,1.1-0.6c2.3-3,5.1-5.6,8.4-7.4
			c2.3-1.4,4.9-2.4,7.5-3.1c2.8-0.7,5.7-1.1,8.5-1c6.1,0,10.8,1.6,14.2,4.7c2.5,2.4,4.4,5.3,5.5,8.6c0.2,0.6,0.8,1,1.4,1
			c0.5,0,0.9-0.2,1.2-0.6c2.4-3.8,5.6-7,9.5-9.4c2.3-1.4,4.7-2.5,7.3-3.2c2.7-0.7,5.5-1.1,8.2-1.1c4.5,0,8.2,0.9,11,2.7
			c2.8,1.7,5.1,4.2,6.6,7c1.6,3.1,2.7,6.4,3.2,9.9c0.9,3.6,1.3,7.2,1.2,10.9v25.1c-0.1-0.1-0.3-0.1-0.4-0.2l0,0
			c-2.6-0.7-5.3-1.1-8-1.2h-0.5c-3.6,0.1-7.1,1.6-9.7,4.1v-22.9c0-6.3-1-10.9-3-13.7c-1.8-2.8-4.9-4.4-8.3-4.3
			c-3.7,0-7.1,1.5-10.4,4.5c-3.3,3.2-5.7,7.2-6.8,11.6c-0.1,0.2-0.1,0.3-0.1,0.5v43.7C288.4,170.1,288.2,170.6,287.8,170.9
			L287.8,170.9z"/>
		<path id="Path_70" class="st1" d="M417.4,154c-0.9-0.2-1.7-0.6-2.2-1.3c-0.7-0.9-1-2.4-1-4.4V124c0-10.5-2.9-18.4-8.7-23.9
			c-5.8-5.5-13.9-8.3-24.4-8.3c-10.4,0-20.6,3.2-29.1,9.2c-0.7,0.5-0.9,1.4-0.5,2.1l4.3,9.7c0.3,0.8,1.2,1.1,2,0.8
			c0.1,0,0.2-0.1,0.3-0.1c3.1-2.2,6.4-4.1,10-5.5c3.6-1.5,7.5-2.2,11.4-2.2c5.3,0,9.4,1.4,12.2,4.1c2.7,2.8,4.1,6.7,4.1,11.9v2.1
			c0.1,0.8-0.6,1.5-1.4,1.6c-0.2,0-0.4,0-0.6-0.1c-2-0.8-4.1-1.3-6.2-1.7c-3.1-0.6-6.3-0.9-9.5-0.9c-4.2,0-8.4,0.6-12.5,1.8
			c-2.3,0.8-4.5,1.7-6.6,2.9c1.1,0.3,2.1,0.6,3.1,1.1c3.5,1.7,6.3,4.7,7.7,8.4c3-2.1,6.7-3.1,11.4-3.1c2.5,0,5,0.3,7.4,0.8
			c2.1,0.4,4.2,1,6.2,1.8c0.6,0.2,1,0.8,1,1.5v7.8c0,2.1-1,3.9-3,5.6c-1.7,2.1-4,3.7-6.5,4.7c-2.8,1.2-5.9,1.8-9,1.8
			c-3.3,0.1-6.4-1.1-8.9-3.3c-2.7,4.8-8.2,9.6-14.6,10.4l0.5,0.5c2.3,2.3,5,4.1,7.9,5.2c1.6,0.7,3.3,1.1,5,1.4
			c3.8-2.4,14.7-3.9,19.6-4.2c0.6-0.1,1.3-0.1,1.9,0c2.9-1.8,5.4-4,7.6-6.5c0.5-0.6,1.5-0.7,2.1-0.2c0.3,0.3,0.5,0.7,0.5,1.1v0.7
			c0.4,2.6,1.6,4.9,3.5,6.6c1.9,1.7,4.6,2.5,8.2,2.5c2.3-0.1,4.7-0.3,6.9-0.8c0.7-0.2,1.3-0.8,1.2-1.6v-14.3
			C418.6,154.8,418,154.3,417.4,154z M357.3,137.7c-0.9-0.5-1.8-0.7-2.8-0.7c-2.5,0-4.9,1.5-6.6,3.6c-0.7,2.3-1.1,4.8-1.1,7.2
			c0,1.9,0.2,3.9,0.6,5.7c0.4,0.3,0.8,0.6,1.2,0.8c0.9,0.5,1.8,0.7,2.8,0.7c3.4,0,6.6-3,8-5.7C361.9,144.9,361,139.5,357.3,137.7
			L357.3,137.7z"/>
		<path id="Path_71" class="st1" d="M470.9,92c-2.1,0-4.1,0.5-6,1.3c-2.2,0.9-4.3,2.1-6.1,3.6c-2.1,1.7-4,3.6-5.7,5.6
			c-0.7,0.8-1.3,1.6-1.9,2.5c-0.5,0.7-1.4,0.9-2.1,0.4c-0.4-0.3-0.7-0.8-0.7-1.3v-9.4c0-0.9-0.7-1.6-1.5-1.6h-14.1
			c-0.9,0-1.5,0.8-1.5,1.6v74.8c0,0.9,0.7,1.6,1.5,1.6h15.6c0.9,0,1.5-0.8,1.5-1.6v-45.3c0-0.2,0.1-0.5,0.2-0.7
			c1.9-4.3,5.3-7.7,9.5-9.8c4.3-2.1,8.9-3.3,13.7-3.4c0.8-0.1,1.4-0.8,1.4-1.6V93.6c0.1-0.8-0.5-1.5-1.4-1.6l0,0H470.9L470.9,92z"/>
		<path id="Path_72" class="st1" d="M526.4,125.3l24-29.4c0.8-1,0.2-2.7-1.1-2.7h-15.8c-0.4,0-0.8,0.2-1.1,0.5l-26.1,31.5
			c-0.5,0.6-1.5,0.7-2.1,0.2c-0.4-0.3-0.6-0.8-0.5-1.3v-60c0-0.9,0.7-1.6,1.5-1.6h2.3c0.9,0,1.6-0.7,1.5-1.6c0-0.3-0.1-0.6-0.2-0.8
			l-13.2-24.5c-0.3-0.7-1.2-1-1.9-0.7c-0.3,0.1-0.5,0.4-0.7,0.7l-13.2,24.6c-0.5,0.7-0.2,1.7,0.5,2.2c0.2,0.1,0.5,0.2,0.8,0.2h2.4
			c0.9,0,1.5,0.8,1.5,1.6v105.4c0,0.9,0.7,1.6,1.5,1.6h15.6c0.9,0,1.5-0.8,1.5-1.6v-20.9c0-0.4,0.2-0.8,0.4-1.1l8.3-8.8
			c0.5-0.6,1.5-0.6,2.1-0.1c0.1,0.1,0.2,0.2,0.2,0.3l19.6,31.5c0.3,0.4,0.7,0.7,1.2,0.7h16.2c0.9-0.1,1.6-0.8,1.5-1.7
			c0-0.3-0.1-0.6-0.3-0.8l-26.7-41.4C525.9,126.7,526,125.9,526.4,125.3z"/>
		<g id="Group_43" transform="translate(214.884 158.574)">
			<path id="Path_75" class="st2" d="M-11.6,6.1h0.1c0.9,0,1.7,0.3,2.5,0.7c2.4,1.4,4.1,4.6,4.1,8.4c0,2.6,0.7,5.1,4,5.1
				c3.8,0,6.3-3.9,6.3-9C5.5,2.3-1.7-1.7-9-2.3c-0.5,0-1.1-0.1-1.6-0.1c-7.1,0-13.4,2.6-17,6.8c-2.2,2.5-3.4,5.7-3.4,9
				c0,13,18.1,19.4,18.1,32.4c0,3.4-1.8,8.9-7.6,8.9c-4.6,0-7.1-3.8-7.1-8.3c0-5.4,6.6-14.1-1-14.1c-6.2,0-12.3,4.9-12.3,14.5
				c0,10.8,8.4,18.9,19.5,18.9c12.8,0,23-7.2,23-22c0-14.9-16.2-22.9-17.7-31.1c-0.6-3,1.4-5.9,4.4-6.5C-11.7,6.1-11.6,6.1-11.6,6.1
				L-11.6,6.1z M186.6,30.9c-0.8,0.1-1.5,0.3-2.1,0.8c-0.4,0.2-1.4,0.9-1.9,0.9h-0.1c0.3-1.8-1.8-13.5-14.2-13.5
				c-16.5,0-24.4,18.7-24.4,29.7V49c-0.7,1.3-1.6,2.4-2.6,3.4c-0.7,0.7-1.7,1.1-2.7,1.2c-2.8,0-3.6-2.7-3.6-5.6
				c0-6.8,5.3-23.5,5.3-24.5c0-2.8-7.4-3.8-9.5-3.8c-1.8,0.1-3,0.7-3.8,2.5c-1.9,4.3-4,15-5,22.9c-0.1,0.2-0.1,0.4-0.2,0.6
				c-1.2,2.8-2.5,5.2-4.1,6.6c-0.7,0.7-1.7,1.1-2.7,1.2c-2.8,0-3.6-2.9-3.6-5.8c0-5.7,4.7-23.3,7.7-35.1c0,0-0.3,1.6,0.1,0
				s1.5-6.3,1.5-6.3s1-4.2,1-4.7c-0.1-0.7-0.4-1.3-1-1.7c-2.1-1.5-6.8-2.1-8.5-2.1c-1.8,0.1-3,0.7-3.8,2.5s-2.1,6.5-3.5,12.4
				c-0.7,3.1-1.5,6.5-2.3,10c-1.2-1.4-2.7-2.3-4.4-2.8c-1-0.3-2-0.5-3-0.5c-7.1,0-15,7.3-18.7,18c-1.1,3.1-1.7,6.4-1.9,9.8
				c-0.8,1.9-2,3.7-3.5,5.1c-0.7,0.7-1.7,1.1-2.7,1.2c-2.9,0-3.6-2.9-3.6-5.9c0-6.8,5.3-23.3,5.3-24.2c0-2.8-7.4-3.8-9.5-3.8
				c-1.8,0.1-3,0.7-3.8,2.5c-3.4,7.7-4.5,29.8-10.5,29.8c-2.9,0-3.6-2.4-3.6-5c0-6.7,5.3-22.7,5.3-23.4c0-2.8-7.4-3.8-9.5-3.8
				c-1.8,0.1-3,0.7-3.8,2.5c-1.9,4.3-4,15-5,22.9c-0.1,0.2-0.2,0.4-0.2,0.6c-1.2,2.8-2.5,5.2-4.1,6.6c-0.7,0.7-1.7,1.2-2.7,1.2
				c-2.8,0-3.6-2.9-3.6-5.8c0-5,3.4-16.8,4.2-20.6c2.5,0,7.4-0.4,7.4-5.1c0-3-0.7-3.5-2.3-3.5c-0.8,0-1.8,0.1-3,0.1
				c2.1-8.9,4-16.7,4-17c0-1.2-1.4-2.1-3.2-2.7c-2-0.7-4.1-1-6.2-1.1c-1.8,0.1-3,0.7-3.8,2.5c-0.8,1.8-2.1,6.4-3.5,12.4
				c-0.5,1.9-0.9,4-1.4,6.2c-1.6,0-2.9,0.1-3.5,0.1c-1.8,0.1-1.9,2.6-1.9,4.1c0,1.7,1.4,2.6,3.9,3.2c-2.5,10.8-4.4,22-4.4,26.2
				c0,3.3,1.6,11.9,11.7,11.9c5.3,0,9.6-2.8,12.9-6.9c1.2,3.4,4,6.9,10.3,6.9c5.2,0,9.1-2.1,12.3-5.5c1.4,2.9,4.3,5.5,10.2,5.5
				c5.5,0,9.9-3,13.3-7.4c1.4,3.4,3.7,6,6.9,7c0.9,0.3,1.9,0.4,2.9,0.4c4.2,0,8.8-2.6,12.5-6.9c1.2,3.4,4.1,6.9,10.9,6.9
				c5.3,0,9.6-2.8,12.9-6.9c1.3,3.4,4.2,6.9,10.8,6.9c5.3,0,9.7-2.8,13-7c2,3.7,5.9,7,13.5,7c13.1,0,22.7-13.7,22.7-25.2
				C187.9,38.7,189.7,30.9,186.6,30.9z M98.2,42.8c-1.8,5.3-5.1,9.1-7.7,9.1c-0.3,0-0.5,0-0.8-0.1c-2.7-0.8-3.3-6.2-1.3-12.1
				c1.8-5.3,5.1-9.2,7.7-9.2c0.3,0,0.5,0,0.8,0.1C99.6,31.6,100.3,36.9,98.2,42.8z M163,53.4c-2.6,0-5.5-1.8-5.5-8.2
				c0-6.8,5.1-15.3,9.9-15.3c1.8,0,2.8,1.3,2.8,1.8c-3.4,0.1-6,2.8-5.9,6.2l0,0c0,2.8,2.3,5.5,4.7,5.5c0.9,0,1.7,0,2.6-0.1
				C169.2,50.9,165.5,53.4,163,53.4L163,53.4z"/>
		</g>
	</g>
	<g id="Group_34" transform="translate(441.751 143.969)">
		<g id="Group_33">
			<path id="Path_73" class="st2" d="M-82.3,5.5c-1.4,2.7-4.7,5.7-8,5.7c-1,0-2-0.2-2.8-0.7c-0.4-0.2-0.8-0.5-1.2-0.8
				c-2.5-2.3-2.9-6.8-0.8-11c0.4-0.7,0.8-1.4,1.3-2c1.7-2,4.1-3.6,6.6-3.6c1,0,2,0.2,2.8,0.7C-80.8-4.5-79.9,0.9-82.3,5.5z"/>
		</g>
	</g>
</g>
</svg>
