<svg id="Layer_1" data-name="Layer 1" xmlns="http://www.w3.org/2000/svg" viewBox="0 0 873.2 996.65"><defs><style>.cls-1{fill:#b3b3b3;}.cls-2{fill:#ccc;}</style></defs><title>Artboard 11</title><path class="cls-1" d="M0,0,73.12,893.57,439.9,996.65l356-103.08L873.2,1.8ZM710.18,296.06,456.07,401.53H689.22L661.05,737.75,440.49,807.86,210.36,743.74,196,571.73H303.25l9,82.71,116.86,30L558,659.23,571.75,513.6H191.18l-15-104.27L434.5,298.45H172L157,190.58H710.19Z"/><polygon class="cls-1" points="571.75 513.6 439.9 513.6 439.9 682.3 557.96 659.23 571.75 513.6"/><polygon class="cls-2" points="439.9 85.1 439.9 190.58 710.19 190.58 710.18 296.06 456.07 401.53 689.22 401.53 661.05 737.75 440.49 807.87 439.9 807.7 439.9 910.35 735.36 824.65 799.49 86.3 439.9 85.1"/></svg>