<svg id="Layer_1" data-name="Layer 1" xmlns="http://www.w3.org/2000/svg" viewBox="0 0 873.2 996.66"><defs><style>.cls-1{fill:#b3b3b3;}.cls-2{fill:#ccc;}</style></defs><title>Artboard 9</title><path class="cls-1" d="M0,0,73.12,893.58,439.9,996.66l356-103.08L873.2,1.8ZM700.6,291.27H278.09l11.38,114.47H690.41L659.84,745,432.71,807.87,207.36,745l-15-173.81H302.06l6.6,85.1,124,36,122.26-33,15-142.63H188.18L157.62,182.19H710.78Z"/><polygon class="cls-1" points="569.95 516.61 439.9 516.61 439.9 690.26 554.98 659.25 569.95 516.61"/><polygon class="cls-2" points="439.9 85.1 439.9 182.19 710.78 182.19 700.6 291.27 439.9 291.27 439.9 405.74 690.4 405.74 659.84 744.95 439.9 805.88 439.9 910.36 735.36 824.65 799.49 86.3 439.9 85.1"/><path class="cls-1" d="M320.11,467.77l-.4-.59-.34-.45Z"/></svg>