<svg id="Layer_1" data-name="Layer 1" xmlns="http://www.w3.org/2000/svg" viewBox="0 0 873.2 996.66"><defs><style>.cls-1{fill:#b3b3b3;}.cls-2{fill:#ccc;}</style></defs><title>Artboard 10</title><path class="cls-1" d="M0,0,73.12,893.58,439.9,996.66l356-103.08L873.2,1.8ZM401.39,862.64l-257-66.9V630.25l88,14.09v73.94l73.94,14.08V183.09h95.07ZM718.28,288.37H573.17V461.13H718.28L700.67,809.82l-228,52.82V753.49l154-52.82,8.9-144.36L472.7,579.9V183.09H735.88Z"/><path class="cls-2" d="M439.9,85.1V910.35l295.46-85.7L799.49,86.3ZM718.28,288.37H573.17V461.13H718.28L700.67,809.82l-228,52.82V753.49l154-52.82,8.9-144.36L472.7,579.9V183.09H735.88Z"/></svg>