<svg id="Layer_1" data-name="Layer 1" xmlns="http://www.w3.org/2000/svg" viewBox="0 0 891.18 854.06"><defs><style>.cls-1{fill:#b3b3b3;}</style></defs><title>Artboard 8</title><path class="cls-1" d="M52.2,588.41a53.76,53.76,0,0,0,2.86,5.49A32.22,32.22,0,0,0,56.8,597c1,1.93,2,3.78,3,5.64l5.83,9.8c1.08,1.82,2.12,3.6,3.34,5.39,2,3.49,4.46,6.9,6.58,10.39,1,1.45,1.85,2.9,2.93,4.35,4.08,6.35,7.8,11.62,11.77,16.75,2.82,3.82,5.65,7.57,8.69,11.32,1,1.41,2.12,2.82,3.16,4.23l8.2,10c1,1.15,2,2.48,3.09,3.67,3.63,4.38,7.5,8.62,11.36,12.92,0,.08.11.15.18.26a112,112,0,0,0,15.6,16.12l.15.15c3,3,5.94,6,9.1,9l3.75,3.6c4.12,3.87,8.24,7.69,12.58,11.4.08,0,.12.08.19.11l2.12,1.86c3.78,3.31,7.61,6.57,11.51,9.62l4.64,3.9c3.16,2.52,6.42,4.9,9.65,7.39l5.05,3.86c3.46,2.6,7.13,5.12,10.66,7.65,1.3.93,2.6,1.85,3.94,2.71l1.07.85,10.44,6.84,4.45,3c5.46,3.49,10.88,6.75,16.31,10,1.55.78,3.11,1.64,4.56,2.53,4,2.3,8.17,4.64,12.22,6.76,2.23,1.26,4.53,2.33,6.83,3.49,2.79,1.56,5.68,3.08,8.65,4.64a11.47,11.47,0,0,1,2.16.89l.15-.15c1.22.56,2.37,1.15,3.56,1.75,4.46,2.22,9.1,4.34,13.93,6.42a30.47,30.47,0,0,1,2.82,1.26c5.34,2.34,10.69,4.57,16.22,6.72,1.27.37,2.6,1,3.9,1.49,5,1.89,10.18,3.82,15.3,5.64l1.86.67c5.68,1.93,11.29,3.79,17.08,5.53,1.34.37,2.71.86,4.12,1.23,5.91,1.78,11.62,3.9,17.6,5C758.58,912.8,869.42,615.4,869.42,615.4,776.29,736.09,611,767.91,454.5,732.48c-5.8-1.33-11.59-3.19-17.45-4.9q-12.44-3.51-24.62-7.76L416,720.9l-2.3-.89c-5-1.71-9.91-3.61-14.85-5.5-1.21-.51-2.44-1-3.68-1.41l-.41-.11c-5.45-2.19-10.76-4.42-16-6.76-1.15-.37-2.11-.89-3.27-1.34q-9.36-4.08-18.56-8.54l5.12,2.27c-1.33-.59-2.65-1.24-3.93-1.93-3.49-1.64-7-3.49-10.4-5.24-2.6-1.23-5.17-2.54-7.69-3.93l.75.37c-4.2-2.23-8.4-4.65-12.63-6.91-1.26-.89-2.71-1.63-4.16-2.45q-9.43-5.49-18.64-11.36l2.34,1.41c-1.57-1-3.11-2-4.6-3.08l.22.14q-6-3.67-11.74-7.72c-1.26-.82-2.41-1.71-3.71-2.6q-6-4.1-11.81-8.47l.89.64c-1.56-1.27-3.23-2.45-4.9-3.68-3.27-2.56-6.57-5-9.84-7.69l-4.38-3.49q-7-5.57-13.74-11.47l0,0-12.88-11.7-3.71-3.49c-3.05-3.08-6.17-6-9.29-9.06l-3.6-3.71q-5.76-5.71-11.25-11.7l-.22-.26-.63-.52q-5.91-6.46-11.63-13.1c-1-1.16-1.93-2.38-3-3.61l-8.43-10.21q-5.7-7.15-11.14-14.52l-1.48-2.08C79.9,419.23,48.49,256.48,118,123L56.62,200.52c-78.91,112.84-69.14,259.59-8.8,379.42,1.37,2.93,2.89,5.68,4.38,8.47Z"/><path class="cls-1" d="M359.47,474.56l3.35,3.34c4.23,4.08,8.57,8.06,13,12l.56.48c4.46,3.94,9.47,8.06,14.63,12.07l.78.6c1.26.85,2.34,1.85,3.56,2.71,5.2,4,10.44,7.83,15.9,11.66l.55.33c2.31,1.67,4.76,3.19,7.36,4.83,1,.67,2.23,1.56,3.34,2.23,3.94,2.52,7.8,4.86,11.77,7.27.63.26,1.19.6,1.78.86,3.34,2,7,4,10.47,5.79,1.23.74,2.42,1.3,3.68,2,2.49,1.22,4.94,2.52,7.32,3.78l1.18.52c5,2.45,10.14,4.76,15.15,7,1.27.48,2.34.89,3.42,1.41,4.12,1.78,8.32,3.49,12.44,5,1.86.63,3.6,1.38,5.35,1.93,3.78,1.41,7.76,2.71,11.51,4l5.2,1.67c5.42,1.68,10.91,3.87,16.67,4.76C823,619.41,891.18,393.76,891.18,393.76,829.8,481.65,711,523.54,584.43,490.82q-9.48-2.38-18.79-5.38l2.11.59c-1.78-.48-3.34-1-5-1.56-3.86-1.33-7.83-2.63-11.58-4l-5.35-2c-4.16-1.67-8.39-3.23-12.44-5A36.09,36.09,0,0,1,530,472c-5.2-2.34-10.43-4.64-15.52-7.09l-7.65-4-4.42-2.22c-3.41-1.79-6.57-3.64-9.84-5.54a21.69,21.69,0,0,1-2.41-1.33l.11,0c-3.94-2.45-8-4.82-11.81-7.31-1.26-.71-2.41-1.56-3.6-2.3l-7.72-5c-5.35-3.71-10.59-7.68-15.9-11.55-1.19-1.07-2.34-2-3.49-2.93C392,379.16,348.15,319.64,327.32,252.24c-21.95-70.07-17.12-148.64,20.79-212.4l-46.6,65.65c-57.22,81.73-54,191-9.43,277.42a333.1,333.1,0,0,0,25.47,42.3c8.47,12.1,17.83,26.29,29.11,36,4,4.56,8.32,8.91,12.81,13.33Z"/><path class="cls-1" d="M507.45,34.42c-33.75,49.28-37,110.47-13.74,164.8,24.69,57.7,75.16,103,134,124.47,2.41.93,4.75,1.71,7.24,2.6l3.26,1c3.42,1.08,6.87,2.34,10.4,3.12,162.68,31.23,206.72-83.11,218.57-99.93-38.73,55.33-103.68,68.63-183.37,49.35a175.23,175.23,0,0,1-20.42-6.31l1.23.41a227.51,227.51,0,0,1-24.36-10l1.41.63a238.78,238.78,0,0,1-40.44-24.65C530,186,486,83.51,532.44,0Z"/></svg>