<svg id="Layer_1" data-name="Layer 1" xmlns="http://www.w3.org/2000/svg" viewBox="0 0 903.52 995.67"><defs><style>.cls-1{fill:#b3b3b3;}</style></defs><title>Artboard 7</title><path class="cls-1" d="M395.83,11.12c24.69-14.13,56.85-14.2,81.51,0Q663.49,116.3,849.65,221.41c23.34,13.15,39,39.12,38.71,66V709.29c.17,28-17,54.6-41.6,67.45Q661.23,881.34,475.78,986c-25.2,14.41-58,13.3-82.41-2.29q-55.62-32.24-111.31-64.36c-7.58-4.52-16.12-8.11-21.47-15.46,4.73-6.38,13.18-7.17,20.06-9.95,15.47-4.93,29.69-12.83,43.91-20.49,3.6-2.46,8-1.52,11.43.68,31.71,18.18,63.14,36.89,95,54.9,6.78,3.92,13.66-1.29,19.46-4.52Q632.46,821.63,814.66,719a12,12,0,0,0,6.62-11.86q.13-208.75,0-417.53a13,13,0,0,0-7.77-13Q628.66,172.44,443.86,68.2a12.86,12.86,0,0,0-14.52,0Q244.48,172.36,59.69,276.63a12.89,12.89,0,0,0-7.81,12.95q0,208.76,0,417.55a11.79,11.79,0,0,0,6.7,11.71q49.33,28,98.72,55.75c18.54,10,41.3,15.91,61.73,8.27,18-6.47,30.66-24.86,30.31-44,.18-138.35-.08-276.73.13-415.06-.45-6.15,5.38-11.22,11.35-10.64,15.8-.11,31.62-.21,47.43,0,6.59-.15,11.13,6.47,10.31,12.65-.06,139.23.17,278.47-.1,417.7,0,37.1-15.2,77.48-49.53,95.64-42.28,21.9-94.54,17.26-136.32-3.75-36.16-18.05-70.67-39.35-106.19-58.69C1.73,764-15.33,737.28-15.16,709.3V287.42c-.26-27.45,16-53.89,40-66.84Q210.37,115.89,395.83,11.12Z"/><path class="cls-1" d="M503.72,303.35c53.94-3.47,111.68-2.05,160.21,24.52C701.51,348.23,722.34,391,723,432.71c-1,5.63-6.94,8.74-12.31,8.35-15.65,0-31.31.22-47-.1-6.64.25-10.5-5.87-11.33-11.74-4.5-20-15.39-39.76-34.2-49.39-28.86-14.45-62.32-13.73-93.79-13.42-23,1.22-47.68,3.21-67.15,16.72-14.94,10.23-19.48,30.89-14.15,47.53,5,11.94,18.82,15.8,30.1,19.35,65,17,133.88,15.31,197.64,37.68,26.4,9.12,52.22,26.85,61.26,54.49,11.82,37.05,6.64,81.32-19.72,111.06-21.37,24.47-52.5,37.79-83.54,45-41.31,9.21-84.17,9.45-126.11,5.36-39.44-4.5-80.48-14.86-110.93-41.73-26-22.61-38.75-57.83-37.49-91.83.3-5.74,6-9.74,11.52-9.27,15.76-.13,31.52-.17,47.28,0,6.29-.45,11,5,11.28,10.92,2.91,19,10.06,39,26.66,50.29,32,20.67,72.21,19.25,108.89,19.83,30.38-1.35,64.48-1.76,89.28-21.84,13.08-11.45,17-30.61,13.42-47.1-3.83-13.92-18.39-20.4-30.89-24.65C567.61,528,498,535.33,434.42,512.38c-25.8-9.12-50.75-26.36-60.66-52.86-13.83-37.51-7.49-83.91,21.62-112.64,28.39-28.58,69.38-39.59,108.34-43.53Z"/></svg>