<svg id="Layer_1" data-name="Layer 1" xmlns="http://www.w3.org/2000/svg" viewBox="0 0 965.48 993.92"><defs><style>.cls-1{fill:#b3b3b3;}</style></defs><title>Artboard 5</title><path class="cls-1" d="M964.94,224.85a15.88,15.88,0,0,1,.54,4.06V442.25a15.55,15.55,0,0,1-7.82,13.5L778.6,558.84V763.18a15.57,15.57,0,0,1-7.78,13.49L397.05,991.84a16.59,16.59,0,0,1-2.72,1.13c-.35.12-.68.33-1.05.43a15.6,15.6,0,0,1-8,0,13.26,13.26,0,0,1-1.23-.51,15.77,15.77,0,0,1-2.57-1L7.82,776.67A15.54,15.54,0,0,1,0,763.18v-640a16,16,0,0,1,.54-4.09c.12-.44.39-.85.55-1.3a14.89,14.89,0,0,1,1-2.41A14.14,14.14,0,0,1,3.15,114a17.62,17.62,0,0,1,1.38-1.81A14.85,14.85,0,0,1,6.07,111a13.11,13.11,0,0,1,1.71-1.34h0L194.66,2.08a15.59,15.59,0,0,1,15.55,0L397.07,109.66h0a20.42,20.42,0,0,1,1.71,1.32c.5.39,1.07.74,1.52,1.17a20.6,20.6,0,0,1,1.4,1.83,15.67,15.67,0,0,1,1.05,1.38,16.84,16.84,0,0,1,1,2.41c.15.45.42.86.54,1.32a16,16,0,0,1,.55,4.07V522.91l155.7-89.66V228.89a15.68,15.68,0,0,1,.55-4c.13-.47.39-.88.54-1.32a17.73,17.73,0,0,1,1-2.41c.3-.51.72-.92,1-1.38a8.23,8.23,0,0,1,2.92-3,15.24,15.24,0,0,1,1.71-1.34h0L755.27,107.83a15.59,15.59,0,0,1,15.55,0L957.68,215.42a16.69,16.69,0,0,1,1.75,1.32c.49.39,1.05.74,1.5,1.17a18.05,18.05,0,0,1,1.4,1.83,10.69,10.69,0,0,1,1,1.38,14.6,14.6,0,0,1,1,2.41,10.2,10.2,0,0,1,.55,1.32Zm-30.61,208.4V255.84l-65.39,37.65-90.34,52V522.91l155.75-89.66ZM747.47,754.18V576.65L658.61,627.4,404.87,772.22v179.2ZM31.15,150.09V754.18L373.72,951.4V772.24L194.75,671l-.06,0-.07,0a18.62,18.62,0,0,1-1.68-1.28,16.79,16.79,0,0,1-1.47-1.13l0-.06a15.38,15.38,0,0,1-1.29-1.63c-.38-.53-.85-1-1.16-1.52l0-.06a12,12,0,0,1-.82-1.94,12.74,12.74,0,0,1-.74-1.75v0a15.82,15.82,0,0,1-.31-2.28,12.9,12.9,0,0,1-.23-1.75V239.74l-90.32-52-65.39-37.6ZM202.45,33.54,46.76,123.16l155.65,89.61,155.67-89.63L202.41,33.54Zm81,559.29,90.32-52V150.09l-65.39,37.64-90.34,52V630.49ZM763.05,139.3,607.38,228.91l155.67,89.62L918.7,228.89ZM747.47,345.5l-90.34-52-65.39-37.65V433.25l90.32,52,65.41,37.66ZM389.27,745.29,617.6,614.94,731.74,549.8,576.19,460.24,397.09,563.35l-163.24,94Z"/></svg>