<svg id="Layer_1" data-name="Layer 1" xmlns="http://www.w3.org/2000/svg" viewBox="0 0 911.76 473.54"><defs><style>.cls-1{fill:#b3b3b3;fill-rule:evenodd;}</style></defs><title>Artboard 6</title><path class="cls-1" d="M0,431.42H30.32V312L77.08,416.14c5.55,12.49,13,16.89,27.78,16.89s22.22-4.4,27.77-16.89L179.39,312V431.42h30.09V312.21c0-11.57-4.63-17.14-14.12-20.15-22.91-7.17-38.43-.92-45.37,14.59L104.16,409.2,59.72,306.65C53,291.14,37.27,284.89,14.35,292.06,4.63,295.07,0,300.63,0,312.21V431.42Zm234.71-97.23H264.8v65.74c-.23,3.7,1.16,12,17.83,12.27,8.33.23,65,0,65.5,0V334h30.32c.23,0,0,106.71,0,107.17.23,26.39-32.63,31.94-47.68,32.41H235.41V453.17s95.13.23,95.36,0c19.44-1.85,17.13-11.57,17.13-14.81v-7.88H283.78c-29.86-.46-48.84-13.42-49.07-28.47,0-1.38.7-67.12,0-67.82Zm650.2-75.69C866.4,258,852.27,259.66,840,265c-3.46,1.39-8.79,1.39-9.48,5.79,1.85,1.84,2.31,4.86,3.7,7.41,3,4.63,7.88,10.87,12.27,14.12A169.17,169.17,0,0,0,861.07,303c9.26,5.55,19.45,8.56,28,14.12,5.33,3.24,10.41,7.41,15.51,11.11,2.31,1.85,4.17,4.63,7.17,5.79v-.46c-1.61-2.09-2.08-5.1-3.47-7.42l-6.94-6.94A115.09,115.09,0,0,0,877,296c-7.18-5.1-23.38-12.27-26.39-20.61-.23-.23-.47-.23-.47-.46,5.1-.7,11.12-2.54,15.75-3.71,7.87-2.08,15-1.62,23.14-3.7,3.71-1.16,7.41-2.09,11.12-3.24V262.2c-4.17-4.16-6.94-9.95-11.57-13.65a323.65,323.65,0,0,0-38-28.47c-7.41-4.87-16.44-7.87-24.3-11.81-2.56-1.15-7.19-1.85-9-4.16-4.18-5.1-6.25-11.81-9.5-17.83q-10.19-19.8-19-40.28c-3.93-9-6.72-18-11.57-26.39C753.21,80.26,727.52,56.42,687.48,33c-8.56-4.86-18.75-6.94-29.63-9.49-5.79-.46-11.57-.69-17.36-1.16-3.48-1.39-7.18-5.78-10.65-7.87-13.19-8.33-47.22-26.62-57-2.55C566.64,27,582.15,41.83,587.7,49.48c3.94,5.32,8.8,11.34,11.58,17.36,1.84,3.93,2.08,7.87,3.7,12,3.93,10.42,7.17,21.76,12,31.25a110.24,110.24,0,0,0,8.56,14.35c1.85,2.55,5.32,3.71,5.78,7.87-3.24,4.63-3.46,11.58-5.32,17.36C615.94,175.86,619,208,631,227.47c3.71,5.79,12.27,18.52,24.31,13.66,10.42-4.4,8.1-17.36,11.11-29.16.7-2.55.24-4.4,1.62-6.25v.46c3,6.48,6.25,12.73,9.49,19,7,11.35,19.45,23.39,30.1,31.25,5.32,4.17,9.72,11.35,16.89,13.66v-.47h-.69c-1.39-2.08-3.47-3-5.09-4.63a137.14,137.14,0,0,1-12.27-13.89,346.81,346.81,0,0,1-25.92-42.13c-3.71-7.17-6.95-15-9.95-22.22-1.17-2.77-1.17-6.94-3.71-8.56-3.48,5.32-8.33,9.72-11.12,16-4.16,10-4.85,22.22-6.24,34.72-.93.47-.7.23-1.17.7-7.39-1.85-10-9.5-12.72-16-6.71-16.44-8.11-42.83-2.09-61.81,1.62-4.86,8.81-20.14,5.8-24.77-1.4-4.39-5.8-7.17-8.34-10.64a83,83,0,0,1-8.56-14.58c-5.55-13-8.1-27.32-14.13-40.28-3-6.25-7.63-12.5-11.57-17.82C592.33,37.42,587.47,33,584,25.62c-1.16-2.54-2.78-6.71-1.16-9.49a4.58,4.58,0,0,1,3.23-3.24c3-2.32,11.58.92,14.81,2.08,8.34,3.7,15.52,6.94,22.69,11.8,3.48,2.32,6.95,6.71,11.12,7.87h4.63c7.41,1.62,15.74.47,22.68,2.55a130.43,130.43,0,0,1,33.34,16c30.55,19.21,55.32,46.52,72.44,79.16,2.78,5.32,3.94,10.18,6.26,15.74,4.86,11.34,11.1,22.91,16,33.79,4.64,11.11,9.5,22.23,16.21,31.25,3.71,4.86,17.59,7.41,23.84,9.95,4.4,1.85,11.57,3.93,15.75,6.48,8.09,4.63,15.73,10.42,23.37,15.74,3.7,2.58,15.26,8.36,15.73,13.22Z"/><path class="cls-1" d="M648.81,57.36a39.31,39.31,0,0,0-9.48,1.16V59H640c1.85,3.7,5.09,6.25,7.4,9.49,1.62,3.7,3.48,7.41,5.1,11.11l.69-.69c3.24-2.08,4.63-5.79,4.63-11.57-1.16-1.39-1.39-3-2.54-4.64-1.62-2.31-4.4-3.47-6.49-5.32Z"/><path class="cls-1" d="M401.83,431.42h86.8a67.29,67.29,0,0,0,28-5.79c13-6,19.44-14.12,19.44-24.77V378.64c0-8.56-7.41-16.89-21.52-22.22-7.64-3-16.9-4.4-25.93-4.4H452.06c-12.27,0-18.05-3.7-19.44-11.8a11.28,11.28,0,0,1-.23-2.77V323.79a9.58,9.58,0,0,1,.23-2.55c1.39-6.25,4.63-8.1,15.28-9,.92,0,2.08-.24,3-.24h86.33V291.85H452.3c-12.27,0-18.52.92-24.31,2.54-18.05,5.79-25.92,14.59-25.92,30.1v17.59c0,13.66,15.5,25.23,41.2,28,3,0,5.78.24,8.79.24h31.26a14.28,14.28,0,0,1,3.23.23c9.73.92,13.66,2.54,16.67,6a7.9,7.9,0,0,1,2.32,5.56v17.59c0,2.09-1.39,4.87-4.4,7.18-2.56,2.32-7,3.71-12.74,4.16-1.16,0-2.08.24-3.24.24H401.83ZM724.5,396.23c0,20.83,15.28,32.4,46.53,34.72,2.78.23,5.79.47,8.56.47h78.7V411.27H779.12c-17.82,0-24.53-4.4-24.53-15V291.84H724.5V396.23Zm-169.2,1.15V325.63c0-18.28,12.72-29.39,38.19-32.87a47.92,47.92,0,0,1,8.1-.46H659a52.19,52.19,0,0,1,8.34.46c25.22,3.48,38.18,14.59,38.18,32.87v71.75c0,14.82-5.55,22.69-18,27.78L717.32,452H682.14l-24.07-21.53-24.32,1.39H601.58a63.36,63.36,0,0,1-17.82-2.55c-19.2-5.09-28.46-15.28-28.46-31.95Zm32.64-1.84a15.72,15.72,0,0,0,.46,3.24c1.85,8.33,9.72,13,21.52,13h27.55l-25.22-22.68h35.17l22,19.67a14.19,14.19,0,0,0,7.64-9.49,13.74,13.74,0,0,0,.24-3v-69a10,10,0,0,0-.24-2.55c-1.85-7.87-9.71-12.26-21.29-12.26H609.93c-13.43,0-22,5.78-22,14.81v68.28Zm284.25,35.88h4.39V414.75h6v-3.47H866.17v3.47h6v16.67Zm33.79,0h3.93V411.28h-6l-5.31,13.89-5.32-13.89H887v20.14h4.16V416.14L897,431.42h3l5.78-15.28H906v15.28Z"/><path class="cls-1" d="M18.29,244.15,1.39,165.91H10l9.72,51.39q1.74,8,2.78,16l3-14.58,12.27-52.78h10l9.26,39.58A272.59,272.59,0,0,1,62,233.27c.7-5.09,1.85-10.88,3.24-17.13l10-50.23H84L66.2,244.15H58.1L44.44,184.66l-2.08-9.26a81.81,81.81,0,0,1-1.85,9.26L26.85,244.15Zm71.06-38c0-13.42,3-23.61,8.79-30.79a27.09,27.09,0,0,1,22-10.64,26.57,26.57,0,0,1,15.5,4.62,33.79,33.79,0,0,1,11.12,13.89,57.52,57.52,0,0,1,3.93,22c0,11.57-2.54,20.83-7.87,28.24-5.79,8.1-13.42,12-22.68,12-9.5,0-17.13-4.16-22.92-12.27-5.33-7.62-7.87-16.65-7.87-27.07Zm8.79,0c0,9.72,2.09,17.13,6.26,22.46,4.4,5.32,9.48,8.1,15.5,8.1,6.25,0,11.58-2.78,15.74-8.1s6.25-13.2,6.25-23.61c0-6.95-.92-12.74-3.24-18a21.06,21.06,0,0,0-7.41-9.73,18.37,18.37,0,0,0-11.11-3.7,18.58,18.58,0,0,0-15.74,7.87c-4.16,5.32-6.25,13.65-6.25,24.76Zm63.19,38V165.91H189.8c5.79,0,10.19.7,13,2.32a14,14,0,0,1,6.94,7.17,24.71,24.71,0,0,1,2.78,11.8c0,6-1.39,10.66-4.63,14.36-3,3.7-7.4,6-13.42,7.17A23.69,23.69,0,0,1,200,212.9a62.07,62.07,0,0,1,6.72,9.95l11.1,21.3H207.17l-8.57-16.21c-3.47-6.25-5.78-10.65-7.63-12.73-1.62-2.31-3.25-3.94-4.86-4.63a16.16,16.16,0,0,0-6.48-1.16H169.9v34.72h-8.57Zm8.57-43.75h18c3.94,0,6.94-.46,9-1.39a13.2,13.2,0,0,0,5.09-4.4,15.16,15.16,0,0,0,1.62-7.41,12.39,12.39,0,0,0-3.47-9.25c-2.32-2.31-5.56-3.47-10.19-3.47H169.89V200.4Zm55.78,43.75V165.91h8.57V204.8L266,165.91h11.57l-27.08,31.72,28.24,46.52H267.35L244.67,204.8l-10.42,12.27v27.08Zm56.95-25.23,8.1-.69c.46,4.16,1.39,7.64,3,10a14.31,14.31,0,0,0,6.48,5.78,18.63,18.63,0,0,0,9.49,2.32c5.09,0,8.8-1.39,11.58-3.7a13.54,13.54,0,0,0,2.77-15.74,11.67,11.67,0,0,0-4.63-4.17c-2.08-1.15-6.48-2.77-13.19-4.63-6-1.85-10.42-3.7-13-5.55a17,17,0,0,1-6-6.71,21.19,21.19,0,0,1-2.08-9.49c0-6.49,2.08-11.58,6-15.52,4.16-4.16,9.72-6,16.66-6a27.6,27.6,0,0,1,12.5,2.77,21.48,21.48,0,0,1,8.33,8.11,26.24,26.24,0,0,1,3,12.49l-8.1.7c-.24-5.09-1.86-8.79-4.4-11.34-2.78-2.55-6.26-3.71-11.11-3.71s-8.57,1.16-10.89,3.25a10.33,10.33,0,0,0-3.93,8.33,9.8,9.8,0,0,0,2.78,7.41c1.85,1.61,6,3.47,12.5,5.32a81.23,81.23,0,0,1,13.43,4.4c3.93,2.08,6.94,4.63,8.79,7.87a21,21,0,0,1,3,11.57,24.22,24.22,0,0,1-3.24,12.27,19.85,19.85,0,0,1-8.57,8.33c-3.47,2.08-7.87,3-13,3-7.87,0-14.35-2.32-19-7.18s-7.16-11.34-7.39-19.44ZM384,244.15l-16.9-78.24h8.57l9.72,51.39q1.74,8,2.78,16l3-14.58,12.26-52.78h10l9.25,39.58a272.94,272.94,0,0,1,5.1,27.78c.69-5.09,1.85-10.88,3-17.13L441,165.91h8.79l-17.82,78.24h-8.1l-13.66-59.49-2.08-9.26a81.81,81.81,0,0,1-1.85,9.26l-13.66,59.49Zm75,0V165.91h8.56v78.24Zm39.81,0v-69H477.75v-9.26h50.7v9.26H507.16v69Zm38,0V165.91h8.56v32.18h33.32V165.91h8.57v78.24h-8.57v-36.8H545.35v36.8Z"/></svg>