<svg id="Layer_1" data-name="Layer 1" xmlns="http://www.w3.org/2000/svg" viewBox="0 0 1000 520.55"><defs><style>.cls-1{fill:#b3b3b3;fill-rule:evenodd;}</style></defs><title>Artboard 2</title><path class="cls-1" d="M294.52,188.36H250L232.88,291.1H274c30.82-3.43,58.22-13.7,61.64-71.92C335.61,198.63,318.49,188.36,294.52,188.36Z"/><path class="cls-1" d="M753.43,188.36H708.9L691.78,291.1h41.1c30.82-3.43,58.22-13.7,61.64-71.92C794.52,198.63,777.4,188.36,753.43,188.36Z"/><path class="cls-1" d="M500,0C223.86,0,0,116.53,0,260.27S223.86,520.55,500,520.55,1000,404,1000,260.27,776.14,0,500,0ZM280.82,342.46H219.18l-13.7,71.92H140.41L195.21,137h126.7c54.8,3.43,82.2,30.82,82.2,78.77C404.11,298,339,345.89,280.82,342.46Zm257.82-154.1H487.27l-30.82,154.1H391.38L446.17,65.07h65.07L497.54,137h61.64c54.8,3.43,75.34,30.82,68.5,65.07l-24,140.41H535.21l24-126.71C562.61,198.63,562.61,188.36,538.64,188.36Zm201.09,154.1H678.08l-13.7,71.92H599.32L654.11,137H780.82c54.8,3.43,82.2,30.82,82.2,78.77C863,298,798,345.89,739.73,342.46Z"/></svg>