<svg id="Layer_1" data-name="Layer 1" xmlns="http://www.w3.org/2000/svg" viewBox="0 0 999.91 749.51"><defs><style>.cls-1{fill:#b3b3b3;}</style></defs><title>Artboard 4</title><path class="cls-1" d="M860.77,430.39a205.91,205.91,0,0,0-90.62,21.1c-9.38-18.56-18.75-34.77-20.31-46.88-1.76-14.06-3.91-22.66-1.76-39.45S760,324.53,760,322.58c-.2-1.76-2.15-10.35-22.26-10.55s-37.5,3.91-39.46,9.18a224.67,224.67,0,0,0-8.4,29.88c-3.51,18.36-40.23,83.4-61.13,117.58-6.83-13.28-12.69-25-13.87-34.38-1.75-14.06-3.9-22.65-1.75-39.45S625,354.22,625,352.26c-.19-1.75-2.15-10.35-22.26-10.54s-37.5,3.9-39.46,9.18-4.1,17.77-8.39,29.88c-4.11,12.11-52.94,120.7-65.63,149-6.45,14.46-12.11,26-16.21,33.79s-.2.59-.59,1.37L467,575.31v.2c-2.73,4.88-5.66,9.57-7,9.57-1,0-2.93-13.09.39-31.06,7.23-37.69,24.8-96.48,24.61-98.63,0-1,3.32-11.33-11.33-16.6-14.26-5.27-19.33,3.52-20.51,3.52s-2.14,3.12-2.14,3.12,15.82-66.21-30.28-66.21c-28.9,0-68.75,31.45-88.47,60.16-12.5,6.83-39.07,21.28-67.19,36.72-10.74,5.86-21.88,12.11-32.42,17.77l-2.15-2.35C174.64,432,71.32,389.76,75.62,309.69c1.56-29.11,11.72-105.86,198.44-198.83C427,34.69,549.45,55.58,570.73,102.07,601,168.48,505.3,291.91,346.32,309.69c-60.55,6.83-92.38-16.61-100.39-25.39-8.4-9.18-9.57-9.57-12.69-7.82-5.08,2.74-2,10.94,0,15.82,4.68,12.31,24.21,34.18,57.42,45.12,29.1,9.57,100.19,14.84,186.13-18.36,96.29-37.3,171.48-140.82,149.41-227.34-22.46-88.09-168.55-117-306.64-68-82.22,29.3-171.29,75-235.35,135C8,229.8-4.07,291.91,1,317.69c17.77,92,144.53,152,195.31,196.29-2.54,1.37-4.88,2.74-7,3.91C163.9,530.39,67.22,581,43,634.49c-27.34,60.55,4.3,104.1,25.39,110,65.23,18.17,132-14.45,168.16-68.16,35.94-53.71,31.64-123.44,15-155.28l-.58-1.17,19.92-11.72c12.89-7.61,25.58-14.64,36.72-20.7-6.25,17-10.75,37.11-13.09,66.4-2.73,34.38,11.33,78.91,29.88,96.49,8.21,7.61,18,7.81,24,7.81,21.48,0,31.25-17.77,42-39.06,13.28-26,25-56.06,25-56.06s-14.65,81.45,25.39,81.45c14.65,0,29.3-19,35.94-28.71v.19s.39-.58,1.17-1.95q1.23-1.82,2.34-3.71v-.39c5.86-10.15,18.95-33.4,38.48-71.87C544,488.4,568.19,426.29,568.19,426.29s2.35,15.23,9.57,40.23c4.3,14.85,13.67,31.06,20.9,46.88-5.86,8.2-9.37,12.89-9.37,12.89l.19.2c-4.68,6.25-10,12.89-15.43,19.53-19.92,23.82-43.75,51-46.87,58.79-3.71,9.18-2.93,16,4.3,21.48,5.27,3.91,14.64,4.69,24.61,3.91,18-1.18,30.46-5.67,36.71-8.4a127.27,127.27,0,0,0,31.64-16.6c19.54-14.45,31.45-35,30.28-62.31-.59-15-5.47-29.88-11.53-43.94,1.76-2.54,3.52-5.08,5.28-7.81,30.86-45.12,54.69-94.73,54.69-94.73s2.34,15.23,9.57,40.23c3.7,12.7,11.13,26.57,17.77,40.24-28.91,23.63-47.07,51-53.32,69-11.52,33.2-2.54,48.24,14.45,51.75,7.62,1.57,18.56-2,26.76-5.47a121.21,121.21,0,0,0,33.79-17.38c19.53-14.45,38.28-34.57,37.3-61.72-.58-12.5-3.9-24.8-8.39-36.52,24.6-10.16,56.44-16,96.87-11.13,86.91,10.15,104.1,64.45,100.78,87.11s-21.48,35.15-27.54,39.06c-6.05,3.71-8,5.08-7.42,7.81.78,4.1,3.52,3.91,8.79,3.13,7.23-1.18,45.7-18.56,47.27-60.35,2.34-53.72-48.64-112.31-139.07-111.73Zm-670.31,226c-28.71,31.44-69.14,43.36-86.33,33.2-18.55-10.74-11.33-57,24-90.43,21.48-20.31,49.41-39.06,67.77-50.59,4.1-2.54,10.35-6.24,17.77-10.74a19.53,19.53,0,0,1,2-1.17c1.36-.78,2.93-1.76,4.49-2.73,13.08,47.65.58,89.45-29.69,122.46Zm210-142.78c-10,24.42-31.05,87.11-43.75,83.6-10.94-2.93-17.58-50.39-2.15-97.27,7.81-23.63,24.41-51.76,34.18-62.7,15.82-17.57,33-23.43,37.31-16.21C431.09,430.39,406.67,498.36,400.42,513.59Zm173.24,82.82c-4.29,2.15-8.2,3.71-10,2.54-1.36-.79,1.76-3.71,1.76-3.71s21.68-23.25,30.27-34c4.88-6.25,10.74-13.47,17-21.68v2.34c0,28.13-27,46.88-39.06,54.5Zm133.6-30.47c-3.13-2.35-2.74-9.57,7.81-32.23,4.1-9,13.47-24,29.69-38.28,2,5.86,3.12,11.52,2.92,16.8C747.49,547.38,722.49,560.47,707.26,565.94Z"/></svg>