<svg id="Layer_1" data-name="Layer 1" xmlns="http://www.w3.org/2000/svg" viewBox="0 0 1000.03 1000.01"><defs><style>.cls-1{fill:#b3b3b3;}</style></defs><title>Artboard 13</title><path class="cls-1" d="M71.07,500c0,169.79,98.67,316.5,241.74,386L108.21,325.42A427.39,427.39,0,0,0,71.07,500Zm718.5-21.65c0-53-19.05-89.72-35.38-118.29-21.74-35.34-42.11-65.26-42.11-100.59,0-39.43,29.89-76.13,72-76.13,1.9,0,3.7.24,5.56.34A427.4,427.4,0,0,0,500,71.07c-149.85,0-281.68,76.89-358.38,193.34,10.07.3,19.56.5,27.61.5,44.86,0,114.31-5.44,114.31-5.44,23.12-1.36,25.85,32.6,2.76,35.33,0,0-23.25,2.74-49.1,4.09L393.4,763.5,487.27,482,420.44,298.88c-23.1-1.35-45-4.09-45-4.09-23.12-1.35-20.41-36.69,2.71-35.33,0,0,70.83,5.45,113,5.45,44.86,0,114.31-5.45,114.31-5.45,23.14-1.36,25.86,32.6,2.75,35.33,0,0-23.28,2.74-49.09,4.09L714.13,760,756.9,617c18.55-59.33,32.67-101.94,32.67-138.66Z"/><path class="cls-1" d="M507.53,537.51l-128.7,374a429.11,429.11,0,0,0,263.61-6.83,36.3,36.3,0,0,1-3.05-5.91ZM876.37,294.2a328.26,328.26,0,0,1,2.89,44.1c0,43.53-8.13,92.46-32.61,153.64l-131,378.81C843.15,796.39,928.92,658.24,928.92,500A426.59,426.59,0,0,0,876.37,294.2Z"/><path class="cls-1" d="M500,0C224.31,0,0,224.29,0,500s224.3,500,500,500,500-224.29,500-500S775.69,0,500,0Zm0,977.08c-263,0-477.07-214-477.07-477.09S236.94,22.93,500,22.93,977.06,236.94,977.06,500,763,977.08,500,977.08Z"/></svg>