<svg xmlns="http://www.w3.org/2000/svg" viewBox="0 0 2770.29 1613.75"><defs><style>.cls-1{isolation:isolate;}.cls-2{fill:#ebf3fa;}.cls-3{fill:#fff;}.cls-4{fill:#afcdfb;}.cls-5{fill:#d5e5fb;}.cls-6{fill:#51cc93;mix-blend-mode:color;}.cls-7{fill:#2e3552;}.cls-8{fill:#ffb93e;}.cls-9{fill:#ffa412;}.cls-10{fill:#e2810e;}.cls-11{fill:#ffeddc;}.cls-12{fill:#db6a1d;}.cls-13{fill:#e5c1a1;}.cls-14{fill:#f9ddbf;}.cls-15{fill:#233862;}.cls-16{fill:#e2915a;}.cls-17{fill:#f99746;}.cls-18{fill:#ed7d2b;}.cls-19{fill:#ffb27d;}.cls-20{fill:#2b478b;}.cls-21{fill:#ed975d;}.cls-22{fill:#e9f3fe;}.cls-23{fill:#22407a;}.cls-24{fill:#d9e9f9;}.cls-25{fill:#ba4c43;}.cls-26{fill:#c65447;}.cls-27{fill:#c6dcf7;}</style></defs><title>Монтажная область 2 copy 2</title><g class="cls-1"><g id="Слой_1" data-name="Слой 1"><path class="cls-2" d="M154.56,1610.26s-245.86-311.57,3.51-698.82C389.32,552.35,747.26,724.63,972.93,395,1544.7-440.16,2765.21,201.87,2582.09,911.66c-88.62,343.49,269.7,356,87.12,699.33Z"/><path class="cls-3" d="M333.59,1048.33a54.47,54.47,0,1,1,54.46,54.47A54.47,54.47,0,0,1,333.59,1048.33Z"/><path class="cls-4" d="M394.51,1061.29a8.37,8.37,0,0,0-.43-3,6.07,6.07,0,0,0-1.51-2.34,11.54,11.54,0,0,0-2.73-2,30.75,30.75,0,0,0-4.11-1.77,80.62,80.62,0,0,1-7.58-3.19,25.71,25.71,0,0,1-5.82-3.81,14.93,14.93,0,0,1-3.72-5,17,17,0,0,1,0-12.9,14.16,14.16,0,0,1,3.5-4.8,17.89,17.89,0,0,1,5.38-3.29,23.73,23.73,0,0,1,7-1.55l.12-8.51,6.85.1-.12,8.63a21.38,21.38,0,0,1,6.65,2,16.59,16.59,0,0,1,5.05,3.89,16.78,16.78,0,0,1,3.15,5.6,21.29,21.29,0,0,1,1,7.2l-12.38-.18c.05-3.18-.63-5.57-2-7.17a7.22,7.22,0,0,0-5.64-2.45,9.06,9.06,0,0,0-3.33.49,6.14,6.14,0,0,0-2.31,1.44,5.79,5.79,0,0,0-1.36,2.18,8.44,8.44,0,0,0-.47,2.75,8.05,8.05,0,0,0,.39,2.67,5.79,5.79,0,0,0,1.45,2.23,11.72,11.72,0,0,0,2.75,1.95,40.77,40.77,0,0,0,4.28,1.91c2.76,1.08,5.26,2.18,7.52,3.3a26,26,0,0,1,5.79,3.84,15.21,15.21,0,0,1,3.72,5,17.06,17.06,0,0,1-.06,13,14.17,14.17,0,0,1-3.52,4.76,17.15,17.15,0,0,1-5.42,3.19,25.77,25.77,0,0,1-7,1.49l-.12,7.92-6.81-.1.12-7.88a29,29,0,0,1-6.86-1.65,18.33,18.33,0,0,1-5.84-3.53,16.42,16.42,0,0,1-4-5.73,19.89,19.89,0,0,1-1.42-8.22l12.38.18a12.15,12.15,0,0,0,.72,4.72,7.87,7.87,0,0,0,2.08,3.06,7.72,7.72,0,0,0,3,1.64,12.89,12.89,0,0,0,3.44.5,11,11,0,0,0,3.54-.46,7.29,7.29,0,0,0,2.57-1.4A5.69,5.69,0,0,0,394,1064,7.18,7.18,0,0,0,394.51,1061.29Z"/><circle class="cls-3" cx="546.62" cy="873.41" r="81.69" transform="translate(-29.27 19.02) rotate(-1.94)"/><path class="cls-4" d="M556.3,892.84a12.82,12.82,0,0,0-.64-4.42,9.34,9.34,0,0,0-2.27-3.5,17.36,17.36,0,0,0-4.1-2.93,47.41,47.41,0,0,0-6.16-2.65,119.94,119.94,0,0,1-11.37-4.79,38.59,38.59,0,0,1-8.72-5.71,22.34,22.34,0,0,1-5.58-7.49,25.44,25.44,0,0,1,0-19.34,21.38,21.38,0,0,1,5.25-7.21,26.73,26.73,0,0,1,8.07-4.92,35.54,35.54,0,0,1,10.48-2.33l.19-12.77,10.28.15-.19,13a31.82,31.82,0,0,1,10,3.07,24.14,24.14,0,0,1,12.29,14.24,32,32,0,0,1,1.55,10.8l-18.57-.27q.1-7.17-3-10.76a10.84,10.84,0,0,0-8.46-3.68,13.7,13.7,0,0,0-5,.74,9.26,9.26,0,0,0-3.47,2.15,8.87,8.87,0,0,0-2,3.29,12.65,12.65,0,0,0-.7,4.11,11.8,11.8,0,0,0,.58,4,8.77,8.77,0,0,0,2.17,3.35,17.34,17.34,0,0,0,4.14,2.92,57.46,57.46,0,0,0,6.41,2.87q6.19,2.43,11.27,4.94a39,39,0,0,1,8.69,5.77A21.79,21.79,0,0,1,574.87,893a23.28,23.28,0,0,1-2,9.41,21,21,0,0,1-5.28,7.14,25.65,25.65,0,0,1-8.13,4.78A38.68,38.68,0,0,1,549,916.56l-.17,11.87-10.22-.14.17-11.82A43.23,43.23,0,0,1,528.45,914a27.44,27.44,0,0,1-8.76-5.29,24.4,24.4,0,0,1-6-8.6,29.61,29.61,0,0,1-2.14-12.33l18.57.27a18.26,18.26,0,0,0,1.09,7.09,11.84,11.84,0,0,0,3.11,4.59,11.51,11.51,0,0,0,4.5,2.45,19.51,19.51,0,0,0,5.16.76,16.32,16.32,0,0,0,5.31-.7,10.91,10.91,0,0,0,3.86-2.09,8.71,8.71,0,0,0,2.36-3.22A10.69,10.69,0,0,0,556.3,892.84Z"/><path class="cls-5" d="M2259.24,920.6l-641.7,596.87-330.35-312.88c-61.85,60.55-157.37,154-253.46,247.79-65.66,64.1-118.83,115.89-161.92,157.8l-300.09-.35c83.23-78.78,418.34-406.18,644.09-627.45l69-67.65,334,316.29,490.28-456Z"/><polygon class="cls-5" points="2029.59 703.17 2332.01 1021.39 2392.49 658.2 2029.59 703.17"/><path class="cls-6" d="M2767.16,1606.4h-95.54c176.93-338.87-177.75-352.79-89.53-694.74C2765.21,201.87,1544.7-440.16,972.93,395,747.26,724.63,389.32,552.35,158.07,911.44c-233.23,362.17-33.28,658.15-6.41,695H3.14A3.15,3.15,0,0,0,0,1609.54v1.07a3.15,3.15,0,0,0,3.14,3.14h2764a3.15,3.15,0,0,0,3.13-3.14v-1.07A3.14,3.14,0,0,0,2767.16,1606.4Z"/><rect class="cls-7" y="1606.4" width="2770.29" height="7.35" rx="3.14"/><path class="cls-8" d="M753.86,1584.66v16.41a5.61,5.61,0,0,1-1.29,3.53A7.47,7.47,0,0,1,749,1607a7.8,7.8,0,0,1-1.37.32,8.42,8.42,0,0,1-1.33.11H435c-4,0-7.32-2.68-7.52-6,0-.11,0-.22,0-.33v-16.41c0-.11,0-.22,0-.33.2-3.33,3.51-6,7.52-6H746.33a9.8,9.8,0,0,1,1.33.1,7.82,7.82,0,0,1,1.37.33,7.47,7.47,0,0,1,3.54,2.37A5.61,5.61,0,0,1,753.86,1584.66Z"/><path class="cls-9" d="M601,1607.4H434.2a6.58,6.58,0,0,1-6.71-6c0-.11,0-.22,0-.33v-16.41c0-.11,0-.22,0-.33a6.58,6.58,0,0,1,6.71-6H580.5A51,51,0,0,0,601,1607.4Z"/><rect class="cls-9" x="712.44" y="1578.33" width="3.54" height="29.06"/><rect class="cls-9" x="700.46" y="1578.33" width="3.54" height="29.06"/><rect class="cls-9" x="686.1" y="1578.33" width="3.54" height="29.06"/><rect class="cls-9" x="664.08" y="1578.33" width="3.54" height="29.06"/><rect class="cls-9" x="640.8" y="1578.33" width="3.54" height="29.06"/><rect class="cls-9" x="605.12" y="1578.33" width="3.54" height="29.06"/><rect class="cls-9" x="571.7" y="1578.33" width="3.54" height="29.06"/><rect class="cls-9" x="541.86" y="1578.33" width="3.54" height="29.06"/><rect class="cls-9" x="723.84" y="1578.33" width="3.54" height="29.06"/><rect class="cls-9" x="731.37" y="1578.33" width="3.54" height="29.06"/><rect class="cls-9" x="738.64" y="1578.33" width="3.54" height="29.06"/><path class="cls-9" d="M747.66,1578.43v28.86a8.42,8.42,0,0,1-1.33.11h-2.21v-29.07h2.21A9.8,9.8,0,0,1,747.66,1578.43Z"/><path class="cls-9" d="M752.57,1581.13v23.47A7.47,7.47,0,0,1,749,1607v-28.21A7.47,7.47,0,0,1,752.57,1581.13Z"/><path class="cls-8" d="M720.57,1555.59V1572a5.58,5.58,0,0,1-1.29,3.53,7.51,7.51,0,0,1-3.53,2.37,8.94,8.94,0,0,1-1.38.32,8.24,8.24,0,0,1-1.33.1H401.72c-4,0-7.31-2.67-7.52-6,0-.11,0-.21,0-.32v-16.42c0-.1,0-.21,0-.32.21-3.33,3.51-6,7.52-6H713l.6,0,.25,0,.28,0,.2,0a7.93,7.93,0,0,1,1.38.33l.19.06.2.07.37.16.22.1.19.09.36.19.38.24.29.2,0,0,.19.14c.19.15.38.31.55.47l.15.15.14.15a4,4,0,0,1,.28.32A5.58,5.58,0,0,1,720.57,1555.59Z"/><path class="cls-9" d="M567.7,1578.33H400.92a6.58,6.58,0,0,1-6.72-6c0-.11,0-.21,0-.32v-16.42c0-.1,0-.21,0-.32a6.58,6.58,0,0,1,6.72-6h146.3c.06.24.13.47.2.72A50.82,50.82,0,0,0,567.7,1578.33Z"/><rect class="cls-9" x="679.15" y="1549.27" width="3.54" height="29.06"/><rect class="cls-9" x="667.18" y="1549.27" width="3.54" height="29.06"/><rect class="cls-9" x="652.81" y="1549.27" width="3.54" height="29.06"/><rect class="cls-9" x="630.8" y="1549.27" width="3.54" height="29.06"/><rect class="cls-9" x="607.52" y="1549.27" width="3.54" height="29.06"/><rect class="cls-9" x="571.83" y="1549.27" width="3.54" height="29.06"/><rect class="cls-9" x="538.41" y="1549.27" width="3.54" height="29.06"/><rect class="cls-9" x="508.58" y="1549.27" width="3.54" height="29.06"/><rect class="cls-9" x="690.55" y="1549.27" width="3.54" height="29.06"/><rect class="cls-9" x="698.09" y="1549.27" width="3.54" height="29.06"/><rect class="cls-9" x="705.36" y="1549.27" width="3.54" height="29.06"/><path class="cls-9" d="M714.37,1549.37v28.86a8.24,8.24,0,0,1-1.33.1h-2.21v-29.06H713A8.24,8.24,0,0,1,714.37,1549.37Z"/><path class="cls-9" d="M719.28,1552.06v23.48a7.51,7.51,0,0,1-3.53,2.37v-28.22A7.51,7.51,0,0,1,719.28,1552.06Z"/><path class="cls-8" d="M736.66,1527.25v16.41a5.61,5.61,0,0,1-1.29,3.53,7.47,7.47,0,0,1-3.54,2.37,8.69,8.69,0,0,1-1.38.33,9.53,9.53,0,0,1-1.32.1H417.81a8.58,8.58,0,0,1-3.47-.72,6.45,6.45,0,0,1-4-5,2.64,2.64,0,0,1,0-.28c0-.11,0-.22,0-.33v-16.41c0-.11,0-.22,0-.33.2-3.33,3.51-6,7.52-6H729.13a9.53,9.53,0,0,1,1.32.1,7.72,7.72,0,0,1,1.38.33,7.47,7.47,0,0,1,3.54,2.37A5.61,5.61,0,0,1,736.66,1527.25Z"/><path class="cls-9" d="M583.79,1550H417a7,7,0,0,1-3.1-.72,6.35,6.35,0,0,1-3.59-5,2.64,2.64,0,0,1,0-.28c0-.11,0-.22,0-.33v-16.41c0-.11,0-.22,0-.33a6.58,6.58,0,0,1,6.71-6H563.3a51.06,51.06,0,0,0,19.46,28.35Z"/><rect class="cls-9" x="695.24" y="1520.92" width="3.54" height="29.06"/><rect class="cls-9" x="683.26" y="1520.92" width="3.54" height="29.06"/><rect class="cls-9" x="668.9" y="1520.92" width="3.54" height="29.06"/><rect class="cls-9" x="646.88" y="1520.92" width="3.54" height="29.06"/><rect class="cls-9" x="623.6" y="1520.92" width="3.54" height="29.06"/><rect class="cls-9" x="587.91" y="1520.92" width="3.54" height="29.06"/><rect class="cls-9" x="554.5" y="1520.92" width="3.54" height="29.06"/><rect class="cls-9" x="524.66" y="1520.92" width="3.54" height="29.06"/><rect class="cls-9" x="706.64" y="1520.92" width="3.54" height="29.06"/><rect class="cls-9" x="714.17" y="1520.92" width="3.54" height="29.06"/><rect class="cls-9" x="721.44" y="1520.92" width="3.54" height="29.06"/><path class="cls-9" d="M730.45,1521v28.86a8.2,8.2,0,0,1-1.32.11h-2.21v-29.07h2.21A9.53,9.53,0,0,1,730.45,1521Z"/><path class="cls-9" d="M735.37,1523.72v23.47a7.47,7.47,0,0,1-3.54,2.37v-28.21A7.47,7.47,0,0,1,735.37,1523.72Z"/><path class="cls-8" d="M744.12,1498.18v16.42a5.61,5.61,0,0,1-1.29,3.53,7.54,7.54,0,0,1-3.54,2.37,8.68,8.68,0,0,1-1.38.32,8.24,8.24,0,0,1-1.33.1H425.27c-4,0-7.32-2.67-7.53-6,0-.11,0-.21,0-.32v-16.42c0-.1,0-.21,0-.32.19-3.08,3-5.59,6.64-6a8.57,8.57,0,0,1,.89,0H736.58a8.24,8.24,0,0,1,1.33.1,7.72,7.72,0,0,1,1.38.33,7.52,7.52,0,0,1,3.54,2.36A5.63,5.63,0,0,1,744.12,1498.18Z"/><path class="cls-9" d="M591.24,1520.92H424.46a6.59,6.59,0,0,1-6.72-6c0-.11,0-.21,0-.32v-16.42c0-.1,0-.21,0-.32a6.55,6.55,0,0,1,5.92-6,7,7,0,0,1,.8,0h146.3a.06.06,0,0,1,0,0A51,51,0,0,0,591.24,1520.92Z"/><rect class="cls-9" x="702.7" y="1491.86" width="3.54" height="29.06"/><rect class="cls-9" x="690.72" y="1491.86" width="3.54" height="29.06"/><rect class="cls-9" x="676.36" y="1491.86" width="3.54" height="29.06"/><rect class="cls-9" x="654.34" y="1491.86" width="3.54" height="29.06"/><rect class="cls-9" x="631.06" y="1491.86" width="3.54" height="29.06"/><rect class="cls-9" x="595.37" y="1491.86" width="3.54" height="29.06"/><rect class="cls-9" x="561.96" y="1491.86" width="3.54" height="29.06"/><rect class="cls-9" x="532.12" y="1491.86" width="3.54" height="29.06"/><rect class="cls-9" x="714.1" y="1491.86" width="3.54" height="29.06"/><rect class="cls-9" x="721.63" y="1491.86" width="3.54" height="29.06"/><rect class="cls-9" x="728.9" y="1491.86" width="3.54" height="29.06"/><path class="cls-9" d="M737.91,1492v28.86a8.24,8.24,0,0,1-1.33.1h-2.21v-29.06h2.21A8.24,8.24,0,0,1,737.91,1492Z"/><path class="cls-9" d="M742.83,1494.65v23.48a7.45,7.45,0,0,1-3.54,2.36v-28.21A7.54,7.54,0,0,1,742.83,1494.65Z"/><path class="cls-8" d="M721.23,1469.17v16.41a5.61,5.61,0,0,1-1.29,3.53,7.54,7.54,0,0,1-3.54,2.37,7.71,7.71,0,0,1-1.38.32l-.43.06-.25,0h-312c-4,0-7.32-2.67-7.53-6v-17.06l0-.26c.3-2.68,2.61-4.89,5.64-5.54l.23,0a8.75,8.75,0,0,1,1.63-.15H713.7c.22,0,.45,0,.67,0l.3,0h0l.35,0a7.72,7.72,0,0,1,1.38.33,7.47,7.47,0,0,1,3.54,2.37A5.61,5.61,0,0,1,721.23,1469.17Z"/><path class="cls-9" d="M568.35,1491.9H401.57a6.59,6.59,0,0,1-6.72-6v-17.06l0-.26a6.49,6.49,0,0,1,5.21-5.58l.29-.06a7.74,7.74,0,0,1,1.19-.1h146.3l.06.21a50.93,50.93,0,0,0,20.36,28.81Z"/><rect class="cls-9" x="679.81" y="1462.84" width="3.54" height="29.06"/><rect class="cls-9" x="667.83" y="1462.84" width="3.54" height="29.06"/><rect class="cls-9" x="653.47" y="1462.84" width="3.54" height="29.06"/><rect class="cls-9" x="631.45" y="1462.84" width="3.54" height="29.06"/><rect class="cls-9" x="608.17" y="1462.84" width="3.54" height="29.06"/><rect class="cls-9" x="572.48" y="1462.84" width="3.54" height="29.06"/><rect class="cls-9" x="539.07" y="1462.84" width="3.54" height="29.06"/><rect class="cls-9" x="509.23" y="1462.84" width="3.54" height="29.06"/><rect class="cls-9" x="691.21" y="1462.84" width="3.54" height="29.06"/><rect class="cls-9" x="698.74" y="1462.84" width="3.54" height="29.06"/><rect class="cls-9" x="706.01" y="1462.84" width="3.54" height="29.06"/><path class="cls-9" d="M715,1462.94v28.86a8.2,8.2,0,0,1-1.32.1h-2.22v-29.06h2.22A9.53,9.53,0,0,1,715,1462.94Z"/><path class="cls-9" d="M719.94,1465.63v23.48a7.54,7.54,0,0,1-3.54,2.37v-28.21A7.52,7.52,0,0,1,719.94,1465.63Z"/><path class="cls-8" d="M720.57,1440.31v16.41a5.56,5.56,0,0,1-1.29,3.53,7.44,7.44,0,0,1-3.53,2.37,6.56,6.56,0,0,1-1.08.27h0l-.3.06a9.56,9.56,0,0,1-1.33.1H401.72a7.89,7.89,0,0,1-1-.06l-.37,0c-3.38-.51-6-2.94-6.18-5.89,0-.11,0-.22,0-.33v-16.41c0-.11,0-.22,0-.33.21-3.32,3.51-6,7.52-6H713l.6,0,.25,0a1.33,1.33,0,0,1,.28,0,1.38,1.38,0,0,1,.2,0,7.91,7.91,0,0,1,1.38.32l.19.07.2.07.37.15.41.2.36.19a3,3,0,0,1,.38.24l.29.2h0l.19.14a6.3,6.3,0,0,1,.55.48l.15.14.14.16a2.79,2.79,0,0,1,.28.32A5.56,5.56,0,0,1,720.57,1440.31Z"/><path class="cls-9" d="M567.7,1463.05H400.52l-.43,0a6.52,6.52,0,0,1-5.89-6c0-.11,0-.22,0-.33v-16.41c0-.11,0-.22,0-.33a6.59,6.59,0,0,1,6.72-6h146.3c.06.24.13.48.2.72a50.84,50.84,0,0,0,20,28.14Z"/><rect class="cls-9" x="679.15" y="1433.99" width="3.54" height="29.06"/><rect class="cls-9" x="667.18" y="1433.99" width="3.54" height="29.06"/><rect class="cls-9" x="652.81" y="1433.99" width="3.54" height="29.06"/><rect class="cls-9" x="630.8" y="1433.99" width="3.54" height="29.06"/><rect class="cls-9" x="607.52" y="1433.99" width="3.54" height="29.06"/><rect class="cls-9" x="571.83" y="1433.99" width="3.54" height="29.06"/><rect class="cls-9" x="538.41" y="1433.99" width="3.54" height="29.06"/><rect class="cls-9" x="508.58" y="1433.99" width="3.54" height="29.06"/><rect class="cls-9" x="690.55" y="1433.99" width="3.54" height="29.06"/><rect class="cls-9" x="698.09" y="1433.99" width="3.54" height="29.06"/><rect class="cls-9" x="705.36" y="1433.99" width="3.54" height="29.06"/><path class="cls-9" d="M714.37,1434.09V1463a9.56,9.56,0,0,1-1.33.1h-2.21V1434H713A8.23,8.23,0,0,1,714.37,1434.09Z"/><path class="cls-9" d="M719.28,1436.78v23.47a7.44,7.44,0,0,1-3.53,2.37v-28.21A7.51,7.51,0,0,1,719.28,1436.78Z"/><path class="cls-8" d="M736.66,1412v16.42a5.63,5.63,0,0,1-1.29,3.53,7.45,7.45,0,0,1-3.54,2.36,7.72,7.72,0,0,1-1.38.33,8.2,8.2,0,0,1-1.32.1H417.81a8.58,8.58,0,0,1-3.47-.72,6.42,6.42,0,0,1-4-5,2.46,2.46,0,0,1,0-.28c0-.11,0-.22,0-.32V1412c0-.11,0-.21,0-.32.2-3.33,3.51-6,7.52-6H729.13a8.2,8.2,0,0,1,1.32.1,8.68,8.68,0,0,1,1.38.32,7.54,7.54,0,0,1,3.54,2.37A5.63,5.63,0,0,1,736.66,1412Z"/><path class="cls-9" d="M583.79,1434.7H417a7,7,0,0,1-3.1-.72,6.32,6.32,0,0,1-3.59-5,2.46,2.46,0,0,1,0-.28c0-.11,0-.22,0-.32V1412c0-.11,0-.21,0-.32a6.58,6.58,0,0,1,6.71-6H563.3A51,51,0,0,0,582.76,1434C583.1,1434.23,583.44,1434.46,583.79,1434.7Z"/><rect class="cls-9" x="695.24" y="1405.64" width="3.54" height="29.06"/><rect class="cls-9" x="683.26" y="1405.64" width="3.54" height="29.06"/><rect class="cls-9" x="668.9" y="1405.64" width="3.54" height="29.06"/><rect class="cls-9" x="646.88" y="1405.64" width="3.54" height="29.06"/><rect class="cls-9" x="623.6" y="1405.64" width="3.54" height="29.06"/><rect class="cls-9" x="587.91" y="1405.64" width="3.54" height="29.06"/><rect class="cls-9" x="554.5" y="1405.64" width="3.54" height="29.06"/><rect class="cls-9" x="524.66" y="1405.64" width="3.54" height="29.06"/><rect class="cls-9" x="706.64" y="1405.64" width="3.54" height="29.06"/><rect class="cls-9" x="714.17" y="1405.64" width="3.54" height="29.06"/><rect class="cls-9" x="721.44" y="1405.64" width="3.54" height="29.06"/><path class="cls-9" d="M730.45,1405.74v28.86a8.2,8.2,0,0,1-1.32.1h-2.21v-29.06h2.21A8.2,8.2,0,0,1,730.45,1405.74Z"/><path class="cls-9" d="M735.37,1408.43v23.48a7.54,7.54,0,0,1-3.54,2.37v-28.22A7.54,7.54,0,0,1,735.37,1408.43Z"/><path class="cls-8" d="M762.1,1382.9v16.41a5.61,5.61,0,0,1-1.29,3.53,7.47,7.47,0,0,1-3.54,2.37,7.82,7.82,0,0,1-1.37.33,9.8,9.8,0,0,1-1.33.1H443.25c-4,0-7.32-2.67-7.52-6,0-.11,0-.22,0-.33V1382.9c0-.11,0-.22,0-.33.18-3.07,3-5.59,6.63-6a8.69,8.69,0,0,1,.89,0H754.57a8.42,8.42,0,0,1,1.33.11,7.8,7.8,0,0,1,1.37.32,7.54,7.54,0,0,1,3.54,2.37A5.61,5.61,0,0,1,762.1,1382.9Z"/><path class="cls-9" d="M609.23,1405.64H442.44a6.58,6.58,0,0,1-6.71-6c0-.11,0-.22,0-.33V1382.9c0-.11,0-.22,0-.33a6.52,6.52,0,0,1,5.92-6,6.84,6.84,0,0,1,.79,0H588.75v0A50.93,50.93,0,0,0,609.23,1405.64Z"/><rect class="cls-9" x="720.68" y="1376.58" width="3.54" height="29.06"/><rect class="cls-9" x="708.7" y="1376.58" width="3.54" height="29.06"/><rect class="cls-9" x="694.34" y="1376.58" width="3.54" height="29.06"/><rect class="cls-9" x="672.33" y="1376.58" width="3.54" height="29.06"/><rect class="cls-9" x="649.05" y="1376.58" width="3.54" height="29.06"/><rect class="cls-9" x="613.36" y="1376.58" width="3.54" height="29.06"/><rect class="cls-9" x="579.94" y="1376.58" width="3.54" height="29.06"/><rect class="cls-9" x="550.1" y="1376.58" width="3.54" height="29.06"/><rect class="cls-9" x="732.08" y="1376.58" width="3.54" height="29.06"/><rect class="cls-9" x="739.61" y="1376.58" width="3.54" height="29.06"/><rect class="cls-9" x="746.89" y="1376.58" width="3.54" height="29.06"/><path class="cls-9" d="M755.9,1376.68v28.86a9.8,9.8,0,0,1-1.33.1h-2.21v-29.07h2.21A8.42,8.42,0,0,1,755.9,1376.68Z"/><path class="cls-9" d="M760.81,1379.37v23.47a7.49,7.49,0,0,1-3.53,2.37V1377A7.56,7.56,0,0,1,760.81,1379.37Z"/><path class="cls-8" d="M721.23,1353.88v16.42a5.63,5.63,0,0,1-1.29,3.53,7.52,7.52,0,0,1-3.54,2.36,7.72,7.72,0,0,1-1.38.33l-.43,0-.35,0H402.38c-4,0-7.32-2.67-7.53-6v-17.06c.21-3.33,3.52-6,7.53-6H714.1a7,7,0,0,1,.92.09,8.68,8.68,0,0,1,1.38.32c.23.08.45.16.66.25l.38.17,0,0,.38.2.07,0,.33.2a6,6,0,0,1,.75.55,2,2,0,0,1,.21.19l0,0,.13.12,0,0,.22.23.3.34A5.61,5.61,0,0,1,721.23,1353.88Z"/><path class="cls-9" d="M568.35,1376.62H401.57a6.59,6.59,0,0,1-6.72-6v-17.06a6.59,6.59,0,0,1,6.72-6h146.3c.06.22.12.44.19.67a50.81,50.81,0,0,0,20.23,28.34Z"/><rect class="cls-9" x="679.81" y="1347.56" width="3.54" height="29.06"/><rect class="cls-9" x="667.83" y="1347.56" width="3.54" height="29.06"/><rect class="cls-9" x="653.47" y="1347.56" width="3.54" height="29.06"/><rect class="cls-9" x="631.45" y="1347.56" width="3.54" height="29.06"/><rect class="cls-9" x="608.17" y="1347.56" width="3.54" height="29.06"/><rect class="cls-9" x="572.48" y="1347.56" width="3.54" height="29.06"/><rect class="cls-9" x="539.07" y="1347.56" width="3.54" height="29.06"/><rect class="cls-9" x="509.23" y="1347.56" width="3.54" height="29.06"/><rect class="cls-9" x="691.21" y="1347.56" width="3.54" height="29.06"/><rect class="cls-9" x="698.74" y="1347.56" width="3.54" height="29.06"/><rect class="cls-9" x="706.01" y="1347.56" width="3.54" height="29.06"/><path class="cls-9" d="M715,1347.66v28.86a8.2,8.2,0,0,1-1.32.1h-2.22v-29.06h2.22A8.2,8.2,0,0,1,715,1347.66Z"/><path class="cls-9" d="M719.94,1350.35v23.48a7.52,7.52,0,0,1-3.54,2.36V1348A7.54,7.54,0,0,1,719.94,1350.35Z"/><path class="cls-8" d="M744.12,1325.49v16.41a5.61,5.61,0,0,1-1.29,3.53,7.47,7.47,0,0,1-3.54,2.37,7.72,7.72,0,0,1-1.38.33,9.56,9.56,0,0,1-1.33.1H425.27a8.62,8.62,0,0,1-3.37-.67,6.5,6.5,0,0,1-4.14-5.07,2.28,2.28,0,0,0,0-.26c0-.11,0-.22,0-.33v-16.41c0-.11,0-.22,0-.32.19-3.09,3-5.6,6.64-6a8.57,8.57,0,0,1,.89,0H736.58a8.24,8.24,0,0,1,1.33.1,7.71,7.71,0,0,1,1.38.32,7.54,7.54,0,0,1,3.54,2.37A5.61,5.61,0,0,1,744.12,1325.49Z"/><path class="cls-9" d="M591.24,1348.23H424.46a7,7,0,0,1-3-.67,6.38,6.38,0,0,1-3.7-5.07,2.28,2.28,0,0,0,0-.26c0-.11,0-.22,0-.33v-16.41c0-.11,0-.22,0-.32a6.54,6.54,0,0,1,5.92-6,7,7,0,0,1,.8,0h146.3a.06.06,0,0,1,0,0,51,51,0,0,0,19.52,28.35Z"/><rect class="cls-9" x="702.7" y="1319.17" width="3.54" height="29.06"/><rect class="cls-9" x="690.72" y="1319.17" width="3.54" height="29.06"/><rect class="cls-9" x="676.36" y="1319.17" width="3.54" height="29.06"/><rect class="cls-9" x="654.34" y="1319.17" width="3.54" height="29.06"/><rect class="cls-9" x="631.06" y="1319.17" width="3.54" height="29.06"/><rect class="cls-9" x="595.37" y="1319.17" width="3.54" height="29.06"/><rect class="cls-9" x="561.96" y="1319.17" width="3.54" height="29.06"/><rect class="cls-9" x="532.12" y="1319.17" width="3.54" height="29.06"/><rect class="cls-9" x="714.1" y="1319.17" width="3.54" height="29.06"/><rect class="cls-9" x="721.63" y="1319.17" width="3.54" height="29.06"/><rect class="cls-9" x="728.9" y="1319.17" width="3.54" height="29.06"/><path class="cls-9" d="M737.91,1319.27v28.86a9.56,9.56,0,0,1-1.33.1h-2.21v-29.07h2.21A8.23,8.23,0,0,1,737.91,1319.27Z"/><path class="cls-9" d="M742.83,1322v23.47a7.47,7.47,0,0,1-3.54,2.37v-28.21A7.47,7.47,0,0,1,742.83,1322Z"/><path class="cls-8" d="M753.86,1296.47v16.42a5.63,5.63,0,0,1-1.29,3.53,7.45,7.45,0,0,1-3.54,2.36,7.82,7.82,0,0,1-1.37.33l-.44.06-.25,0H435c-4,0-7.32-2.67-7.52-6,0-.11,0-.22,0-.32v-16.42c0-.11,0-.21,0-.32.2-3.33,3.51-6,7.52-6H746.33a8.42,8.42,0,0,1,1.33.1,8.81,8.81,0,0,1,1.37.32,7.54,7.54,0,0,1,3.54,2.37A5.61,5.61,0,0,1,753.86,1296.47Z"/><path class="cls-9" d="M601,1319.21H434.2a6.58,6.58,0,0,1-6.71-6c0-.11,0-.22,0-.32v-16.42c0-.11,0-.21,0-.32a6.58,6.58,0,0,1,6.71-6H580.5a51.05,51.05,0,0,0,20.42,29Z"/><rect class="cls-9" x="712.44" y="1290.15" width="3.54" height="29.06"/><rect class="cls-9" x="700.46" y="1290.15" width="3.54" height="29.06"/><rect class="cls-9" x="686.1" y="1290.15" width="3.54" height="29.06"/><rect class="cls-9" x="664.08" y="1290.15" width="3.54" height="29.06"/><rect class="cls-9" x="640.81" y="1290.15" width="3.54" height="29.06"/><rect class="cls-9" x="605.12" y="1290.15" width="3.54" height="29.06"/><rect class="cls-9" x="571.7" y="1290.15" width="3.54" height="29.06"/><rect class="cls-9" x="541.86" y="1290.15" width="3.54" height="29.06"/><rect class="cls-9" x="723.84" y="1290.15" width="3.54" height="29.06"/><rect class="cls-9" x="731.37" y="1290.15" width="3.54" height="29.06"/><rect class="cls-9" x="738.64" y="1290.15" width="3.54" height="29.06"/><path class="cls-9" d="M747.66,1290.25v28.86a8.42,8.42,0,0,1-1.33.1h-2.21v-29.06h2.21A8.42,8.42,0,0,1,747.66,1290.25Z"/><path class="cls-9" d="M752.57,1292.94v23.48a7.52,7.52,0,0,1-3.54,2.36v-28.21A7.54,7.54,0,0,1,752.57,1292.94Z"/><circle class="cls-10" cx="409.43" cy="1459.51" r="147.96" transform="translate(-912.11 716.99) rotate(-45)"/><circle class="cls-8" cx="396.52" cy="1459.51" r="147.96" transform="translate(-915.89 707.86) rotate(-45)"/><path class="cls-9" d="M396.52,1596.06a134.79,134.79,0,1,1,95.32-39.48A133.91,133.91,0,0,1,396.52,1596.06Zm0-261.56a126.76,126.76,0,1,0,126.76,126.76A126.9,126.9,0,0,0,396.52,1334.5Z"/><path class="cls-9" d="M415.08,1500.39a22.51,22.51,0,0,0-.32-7.83,16.28,16.28,0,0,0-3.31-6.5,30.72,30.72,0,0,0-6.62-5.84,81,81,0,0,0-10.26-5.75,210.59,210.59,0,0,1-18.94-10.4,67.37,67.37,0,0,1-14.16-11.53,39.36,39.36,0,0,1-8.36-14,44.52,44.52,0,0,1,3.6-33.68,37.42,37.42,0,0,1,10.44-11.61,46.78,46.78,0,0,1,15-7.12,62.45,62.45,0,0,1,18.68-2.16l2.63-22.21,17.89,2.12-2.68,22.53a56,56,0,0,1,16.83,7.15,42.3,42.3,0,0,1,18.84,27,56.08,56.08,0,0,1,.74,19.09l-32.3-3.83q1.47-12.46-3.32-19.3t-14.08-7.93a24.13,24.13,0,0,0-8.83.37,16.38,16.38,0,0,0-6.43,3.13,15.21,15.21,0,0,0-4.15,5.35,22.34,22.34,0,0,0-2,7,20.64,20.64,0,0,0,.29,7.08,15.29,15.29,0,0,0,3.17,6.22,30.92,30.92,0,0,0,6.68,5.85,103.17,103.17,0,0,0,10.66,6.16q10.37,5.34,18.74,10.65a67.36,67.36,0,0,1,14.09,11.62,38.1,38.1,0,0,1,9.81,32,40.69,40.69,0,0,1-5.13,16,37,37,0,0,1-10.49,11.49,45,45,0,0,1-15,6.85,67.34,67.34,0,0,1-18.77,2L395.53,1561l-17.78-2.11,2.44-20.56a75.35,75.35,0,0,1-17.46-6.17,48.18,48.18,0,0,1-14.3-10.81,42.71,42.71,0,0,1-9-16.07q-3-9.4-1.49-21.86l32.3,3.83a32.2,32.2,0,0,0,.61,12.55,20.81,20.81,0,0,0,4.6,8.55,20.1,20.1,0,0,0,7.38,5.08,34.25,34.25,0,0,0,8.86,2.26,28.6,28.6,0,0,0,9.38-.25,19.39,19.39,0,0,0,7.1-3,15.4,15.4,0,0,0,4.69-5.18A18.89,18.89,0,0,0,415.08,1500.39Z"/><path class="cls-11" d="M684.88,1109.09s-17.94,25.26-34.39,25.61S609,1123,609,1123s-15.1-33.65-4.86-46.82c0,0,10.27-4.51,21,3.45a31.52,31.52,0,0,1,5.56,5.33,17.71,17.71,0,0,0,8.64,5.85c11.73,3.57,25.66-4.83,30.87,3.28a55.46,55.46,0,0,0,9.07,10.74A41.8,41.8,0,0,0,684.88,1109.09Z"/><path class="cls-11" d="M451,1291.27s63.4-153.65,177.54-156.57c0,0,105.35,11.7,111.21,156.57Z"/><path class="cls-12" d="M597.27,1139.39s45.75,10.17,59.87,4.19c0,0,2.13-19.13-17.14-16.44-13.18,1.83-21.77-4.5-26.82-7.08C606,1116.43,595.37,1131.39,597.27,1139.39Z"/><path class="cls-13" d="M637.08,1110.55c-2.92,2.2-11.91-30.93-11.91-30.93a31.52,31.52,0,0,1,5.56,5.33,17.71,17.71,0,0,0,8.64,5.85C639.4,1091.76,639.92,1108.42,637.08,1110.55Z"/><path class="cls-13" d="M679.31,1104.82c-.64.38-21.8,13-24.67,13s15.6-23.79,15.6-23.79A55.46,55.46,0,0,0,679.31,1104.82Z"/><path class="cls-14" d="M512.94,1248.34c-1.17-1,44.87-67.79,57.56-68.28s41.17,14.63,61.8,16.58,40.63-3.9,44.53,8.29,14.63,55.43,8,62.35S538.26,1270,512.94,1248.34Z"/><path class="cls-8" d="M2507.14,1591.38v11.23a3.81,3.81,0,0,1-.88,2.42,5.12,5.12,0,0,1-2.42,1.62,4.94,4.94,0,0,1-.94.22,5.49,5.49,0,0,1-.91.07H2288.92c-2.75,0-5-1.83-5.15-4.1a1.77,1.77,0,0,1,0-.23v-11.23a1.62,1.62,0,0,1,0-.22c.14-2.28,2.4-4.11,5.15-4.11H2502a5.49,5.49,0,0,1,.91.07,5.84,5.84,0,0,1,.94.22,5.19,5.19,0,0,1,2.42,1.62A3.81,3.81,0,0,1,2507.14,1591.38Z"/><path class="cls-9" d="M2402.51,1606.94H2288.36a4.5,4.5,0,0,1-4.59-4.1,1.77,1.77,0,0,1,0-.23v-11.23a1.62,1.62,0,0,1,0-.22,4.5,4.5,0,0,1,4.59-4.11H2388.5A34.78,34.78,0,0,0,2402.51,1606.94Z"/><rect class="cls-9" x="2478.79" y="1587.05" width="2.42" height="19.89"/><rect class="cls-9" x="2470.6" y="1587.05" width="2.42" height="19.89"/><rect class="cls-9" x="2460.77" y="1587.05" width="2.42" height="19.89"/><rect class="cls-9" x="2445.7" y="1587.05" width="2.42" height="19.89"/><rect class="cls-9" x="2429.77" y="1587.05" width="2.42" height="19.89"/><rect class="cls-9" x="2405.34" y="1587.05" width="2.42" height="19.89"/><rect class="cls-9" x="2382.47" y="1587.05" width="2.42" height="19.89"/><rect class="cls-9" x="2362.05" y="1587.05" width="2.42" height="19.89"/><rect class="cls-9" x="2486.6" y="1587.05" width="2.42" height="19.89"/><rect class="cls-9" x="2491.75" y="1587.05" width="2.42" height="19.89"/><rect class="cls-9" x="2496.73" y="1587.05" width="2.42" height="19.89"/><path class="cls-9" d="M2502.9,1587.12v19.75a5.49,5.49,0,0,1-.91.07h-1.52v-19.89H2502A5.49,5.49,0,0,1,2502.9,1587.12Z"/><path class="cls-9" d="M2506.26,1589V1605a5.12,5.12,0,0,1-2.42,1.62v-19.31A5.19,5.19,0,0,1,2506.26,1589Z"/><path class="cls-8" d="M2484.36,1571.49v11.23a3.81,3.81,0,0,1-.88,2.42,5.12,5.12,0,0,1-2.42,1.62,5.84,5.84,0,0,1-.94.22,5.49,5.49,0,0,1-.91.07H2266.13c-2.74,0-5-1.83-5.14-4.11a1.55,1.55,0,0,1,0-.22v-11.23a1.55,1.55,0,0,1,0-.22c.13-2.28,2.4-4.11,5.14-4.11h213.48l.18,0,.19,0,.14,0a5.84,5.84,0,0,1,.94.22l.13,0,.13,0,.26.11.15.07.13.06.24.13.27.17.2.13h0l.13.1a2.91,2.91,0,0,1,.37.33.52.52,0,0,1,.11.1l.1.1.19.22A3.81,3.81,0,0,1,2484.36,1571.49Z"/><path class="cls-9" d="M2379.73,1587.05H2265.58a4.5,4.5,0,0,1-4.59-4.11,1.55,1.55,0,0,1,0-.22v-11.23a1.55,1.55,0,0,1,0-.22,4.5,4.5,0,0,1,4.59-4.11h100.13c.05.16.09.32.14.49A34.8,34.8,0,0,0,2379.73,1587.05Z"/><rect class="cls-9" x="2456.01" y="1567.16" width="2.42" height="19.89"/><rect class="cls-9" x="2447.81" y="1567.16" width="2.42" height="19.89"/><rect class="cls-9" x="2437.98" y="1567.16" width="2.42" height="19.89"/><rect class="cls-9" x="2422.92" y="1567.16" width="2.42" height="19.89"/><rect class="cls-9" x="2406.98" y="1567.16" width="2.42" height="19.89"/><rect class="cls-9" x="2382.56" y="1567.16" width="2.42" height="19.89"/><rect class="cls-9" x="2359.69" y="1567.16" width="2.42" height="19.89"/><rect class="cls-9" x="2339.26" y="1567.16" width="2.42" height="19.89"/><rect class="cls-9" x="2463.81" y="1567.16" width="2.42" height="19.89"/><rect class="cls-9" x="2468.97" y="1567.16" width="2.42" height="19.89"/><rect class="cls-9" x="2473.95" y="1567.16" width="2.42" height="19.89"/><path class="cls-9" d="M2480.11,1567.23V1587a5.33,5.33,0,0,1-.91.07h-1.51v-19.89h1.51A5.33,5.33,0,0,1,2480.11,1567.23Z"/><path class="cls-9" d="M2483.48,1569.07v16.07a5.12,5.12,0,0,1-2.42,1.62v-19.31A5.12,5.12,0,0,1,2483.48,1569.07Z"/><path class="cls-8" d="M2495.37,1552.09v11.23a3.87,3.87,0,0,1-.88,2.42,5.12,5.12,0,0,1-2.42,1.62,6,6,0,0,1-1,.22,5.33,5.33,0,0,1-.91.07H2277.14a5.94,5.94,0,0,1-2.37-.49,4.42,4.42,0,0,1-2.76-3.42c0-.07,0-.13,0-.2v-11.68c.14-2.27,2.41-4.1,5.15-4.1h213.07a5.33,5.33,0,0,1,.91.07,6,6,0,0,1,1,.22,5.12,5.12,0,0,1,2.42,1.62A3.87,3.87,0,0,1,2495.37,1552.09Z"/><path class="cls-9" d="M2390.74,1567.65H2276.59a4.86,4.86,0,0,1-2.12-.49,4.34,4.34,0,0,1-2.46-3.42c0-.07,0-.13,0-.2v-11.68a4.51,4.51,0,0,1,4.6-4.1h100.13a35,35,0,0,0,13.32,19.4Z"/><rect class="cls-9" x="2467.02" y="1547.76" width="2.42" height="19.89"/><rect class="cls-9" x="2458.82" y="1547.76" width="2.42" height="19.89"/><rect class="cls-9" x="2448.99" y="1547.76" width="2.42" height="19.89"/><rect class="cls-9" x="2433.93" y="1547.76" width="2.42" height="19.89"/><rect class="cls-9" x="2417.99" y="1547.76" width="2.42" height="19.89"/><rect class="cls-9" x="2393.57" y="1547.76" width="2.42" height="19.89"/><rect class="cls-9" x="2370.7" y="1547.76" width="2.42" height="19.89"/><rect class="cls-9" x="2350.27" y="1547.76" width="2.42" height="19.89"/><rect class="cls-9" x="2474.82" y="1547.76" width="2.42" height="19.89"/><rect class="cls-9" x="2479.98" y="1547.76" width="2.42" height="19.89"/><rect class="cls-9" x="2484.96" y="1547.76" width="2.42" height="19.89"/><path class="cls-9" d="M2491.12,1547.83v19.75a5.33,5.33,0,0,1-.91.07h-1.51v-19.89h1.51A5.33,5.33,0,0,1,2491.12,1547.83Z"/><path class="cls-9" d="M2494.49,1549.67v16.07a5.12,5.12,0,0,1-2.42,1.62v-19.31A5.12,5.12,0,0,1,2494.49,1549.67Z"/><path class="cls-8" d="M2500.47,1532.2v11.23a3.85,3.85,0,0,1-.88,2.42,5.19,5.19,0,0,1-2.42,1.62,5.84,5.84,0,0,1-.94.22,6.84,6.84,0,0,1-.91.07H2282.25c-2.75,0-5-1.83-5.15-4.11a1.62,1.62,0,0,1,0-.22V1532.2a1.77,1.77,0,0,1,0-.23c.13-2.11,2.07-3.83,4.54-4.07a6.08,6.08,0,0,1,.61,0h213.07a5.49,5.49,0,0,1,.91.07,4.94,4.94,0,0,1,.94.22,5.12,5.12,0,0,1,2.42,1.62A3.81,3.81,0,0,1,2500.47,1532.2Z"/><path class="cls-9" d="M2395.84,1547.76H2281.69a4.5,4.5,0,0,1-4.59-4.11,1.62,1.62,0,0,1,0-.22V1532.2a1.77,1.77,0,0,1,0-.23,4.46,4.46,0,0,1,4.05-4.07l.54,0h100.14v0A35,35,0,0,0,2395.84,1547.76Z"/><rect class="cls-9" x="2472.12" y="1527.87" width="2.42" height="19.89"/><rect class="cls-9" x="2463.93" y="1527.87" width="2.42" height="19.89"/><rect class="cls-9" x="2454.1" y="1527.87" width="2.42" height="19.89"/><rect class="cls-9" x="2439.03" y="1527.87" width="2.42" height="19.89"/><rect class="cls-9" x="2423.1" y="1527.87" width="2.42" height="19.89"/><rect class="cls-9" x="2398.67" y="1527.87" width="2.42" height="19.89"/><rect class="cls-9" x="2375.8" y="1527.87" width="2.42" height="19.89"/><rect class="cls-9" x="2355.38" y="1527.87" width="2.42" height="19.89"/><rect class="cls-9" x="2479.93" y="1527.87" width="2.42" height="19.89"/><rect class="cls-9" x="2485.08" y="1527.87" width="2.42" height="19.89"/><rect class="cls-9" x="2490.06" y="1527.87" width="2.42" height="19.89"/><path class="cls-9" d="M2496.23,1527.93v19.76a6.84,6.84,0,0,1-.91.07h-1.51v-19.89h1.51A6.84,6.84,0,0,1,2496.23,1527.93Z"/><path class="cls-9" d="M2499.59,1529.78v16.07a5.27,5.27,0,0,1-2.42,1.62v-19.31A5.12,5.12,0,0,1,2499.59,1529.78Z"/><path class="cls-8" d="M2484.81,1512.34v11.23a3.86,3.86,0,0,1-.89,2.42,5.16,5.16,0,0,1-2.41,1.62,6,6,0,0,1-1,.22l-.3,0H2266.58c-2.75,0-5-1.83-5.15-4.11v-11.68c0-.06,0-.12,0-.18a4.67,4.67,0,0,1,3.86-3.79l.16,0a5.8,5.8,0,0,1,1.11-.1h213.54l.2,0h0l.24,0a5.38,5.38,0,0,1,3.36,1.84A3.82,3.82,0,0,1,2484.81,1512.34Z"/><path class="cls-9" d="M2380.18,1527.9H2266a4.51,4.51,0,0,1-4.6-4.11v-11.68c0-.06,0-.12,0-.18a4.45,4.45,0,0,1,3.57-3.82l.19,0a4.47,4.47,0,0,1,.82-.07h100.13s0,.09,0,.14a34.89,34.89,0,0,0,13.93,19.72Z"/><rect class="cls-9" x="2456.46" y="1508.01" width="2.42" height="19.89"/><rect class="cls-9" x="2448.26" y="1508.01" width="2.42" height="19.89"/><rect class="cls-9" x="2438.43" y="1508.01" width="2.42" height="19.89"/><rect class="cls-9" x="2423.37" y="1508.01" width="2.42" height="19.89"/><rect class="cls-9" x="2407.43" y="1508.01" width="2.42" height="19.89"/><rect class="cls-9" x="2383.01" y="1508.01" width="2.42" height="19.89"/><rect class="cls-9" x="2360.13" y="1508.01" width="2.42" height="19.89"/><rect class="cls-9" x="2339.71" y="1508.01" width="2.42" height="19.89"/><rect class="cls-9" x="2464.26" y="1508.01" width="2.42" height="19.89"/><rect class="cls-9" x="2469.42" y="1508.01" width="2.42" height="19.89"/><rect class="cls-9" x="2474.4" y="1508.01" width="2.42" height="19.89"/><path class="cls-9" d="M2480.56,1508.08v19.75a6.71,6.71,0,0,1-.91.07h-1.51V1508h1.51A5.41,5.41,0,0,1,2480.56,1508.08Z"/><path class="cls-9" d="M2483.93,1509.92V1526a5.17,5.17,0,0,1-2.42,1.62v-19.3A5.17,5.17,0,0,1,2483.93,1509.92Z"/><path class="cls-8" d="M2484.36,1492.59v11.23a3.85,3.85,0,0,1-.88,2.42,5.27,5.27,0,0,1-2.42,1.62,6.14,6.14,0,0,1-.74.18h0l-.2,0a6.84,6.84,0,0,1-.91.07H2266.13a4.78,4.78,0,0,1-.66,0l-.26,0a4.69,4.69,0,0,1-4.22-4,1.62,1.62,0,0,1,0-.22v-11.23a1.77,1.77,0,0,1,0-.23c.13-2.28,2.4-4.1,5.14-4.1h213.66l.19,0,.14,0a4.94,4.94,0,0,1,.94.22l.13,0,.13.05.26.11.28.13.24.13a2.46,2.46,0,0,1,.27.17l.2.13h0l.13.1a3.87,3.87,0,0,1,.37.32l.11.1.1.11c.06.07.13.14.19.22A3.81,3.81,0,0,1,2484.36,1492.59Z"/><path class="cls-9" d="M2379.73,1508.15H2265.31a1.36,1.36,0,0,1-.29,0,4.45,4.45,0,0,1-4-4.07,1.62,1.62,0,0,1,0-.22v-11.23a1.77,1.77,0,0,1,0-.23,4.49,4.49,0,0,1,4.59-4.1h100.13c.05.16.09.32.14.49a34.85,34.85,0,0,0,13.68,19.26Z"/><rect class="cls-9" x="2456.01" y="1488.26" width="2.42" height="19.89"/><rect class="cls-9" x="2447.81" y="1488.26" width="2.42" height="19.89"/><rect class="cls-9" x="2437.98" y="1488.26" width="2.42" height="19.89"/><rect class="cls-9" x="2422.92" y="1488.26" width="2.42" height="19.89"/><rect class="cls-9" x="2406.98" y="1488.26" width="2.42" height="19.89"/><rect class="cls-9" x="2382.56" y="1488.26" width="2.42" height="19.89"/><rect class="cls-9" x="2359.69" y="1488.26" width="2.42" height="19.89"/><rect class="cls-9" x="2339.26" y="1488.26" width="2.42" height="19.89"/><rect class="cls-9" x="2463.81" y="1488.26" width="2.42" height="19.89"/><rect class="cls-9" x="2468.97" y="1488.26" width="2.42" height="19.89"/><rect class="cls-9" x="2473.95" y="1488.26" width="2.42" height="19.89"/><path class="cls-9" d="M2480.11,1488.33v19.75a6.59,6.59,0,0,1-.91.07h-1.51v-19.89h1.51A5.33,5.33,0,0,1,2480.11,1488.33Z"/><path class="cls-9" d="M2483.48,1490.17v16.07a5.19,5.19,0,0,1-2.42,1.62v-19.31A5.12,5.12,0,0,1,2483.48,1490.17Z"/><path class="cls-8" d="M2495.37,1473.18v11.24a3.86,3.86,0,0,1-.88,2.41,5.12,5.12,0,0,1-2.42,1.62,5.07,5.07,0,0,1-1,.23,6.59,6.59,0,0,1-.91.07H2277.14a5.94,5.94,0,0,1-2.37-.49,4.43,4.43,0,0,1-2.76-3.43c0-.06,0-.13,0-.19V1473c.14-2.28,2.41-4.11,5.15-4.11h213.07a5.31,5.31,0,0,1,.91.08,5,5,0,0,1,1,.22,5.12,5.12,0,0,1,2.42,1.62A3.86,3.86,0,0,1,2495.37,1473.18Z"/><path class="cls-9" d="M2390.74,1488.75H2276.59a4.86,4.86,0,0,1-2.12-.49,4.36,4.36,0,0,1-2.46-3.43c0-.06,0-.13,0-.19V1473a4.51,4.51,0,0,1,4.6-4.11h100.13a35,35,0,0,0,13.32,19.41Z"/><rect class="cls-9" x="2467.02" y="1468.86" width="2.42" height="19.89"/><rect class="cls-9" x="2458.82" y="1468.86" width="2.42" height="19.89"/><rect class="cls-9" x="2448.99" y="1468.86" width="2.42" height="19.89"/><rect class="cls-9" x="2433.93" y="1468.86" width="2.42" height="19.89"/><rect class="cls-9" x="2417.99" y="1468.86" width="2.42" height="19.89"/><rect class="cls-9" x="2393.57" y="1468.86" width="2.42" height="19.89"/><rect class="cls-9" x="2370.7" y="1468.86" width="2.42" height="19.89"/><rect class="cls-9" x="2350.27" y="1468.86" width="2.42" height="19.89"/><rect class="cls-9" x="2474.82" y="1468.86" width="2.42" height="19.89"/><rect class="cls-9" x="2479.98" y="1468.86" width="2.42" height="19.89"/><rect class="cls-9" x="2484.96" y="1468.86" width="2.42" height="19.89"/><path class="cls-9" d="M2491.12,1468.93v19.75a6.59,6.59,0,0,1-.91.07h-1.51v-19.89h1.51A5.33,5.33,0,0,1,2491.12,1468.93Z"/><path class="cls-9" d="M2494.49,1470.77v16.07a5.27,5.27,0,0,1-2.42,1.62v-19.31A5.12,5.12,0,0,1,2494.49,1470.77Z"/><path class="cls-8" d="M2512.78,1453.29v11.24a3.8,3.8,0,0,1-.88,2.41,5.12,5.12,0,0,1-2.42,1.62,5.86,5.86,0,0,1-.94.23,6.84,6.84,0,0,1-.91.06H2294.56c-2.75,0-5-1.82-5.15-4.1a1.7,1.7,0,0,1,0-.22v-11.24a1.62,1.62,0,0,1,0-.22c.12-2.11,2.07-3.83,4.54-4.07a4,4,0,0,1,.61,0h213.07a6.84,6.84,0,0,1,.91.07,5.86,5.86,0,0,1,.94.23,5.12,5.12,0,0,1,2.42,1.62A3.8,3.8,0,0,1,2512.78,1453.29Z"/><path class="cls-9" d="M2408.15,1468.85H2294a4.49,4.49,0,0,1-4.59-4.1,1.7,1.7,0,0,1,0-.22v-11.24a1.62,1.62,0,0,1,0-.22,4.45,4.45,0,0,1,4.05-4.07,3.19,3.19,0,0,1,.54,0h100.13v0A34.9,34.9,0,0,0,2408.15,1468.85Z"/><rect class="cls-9" x="2484.43" y="1448.96" width="2.42" height="19.89"/><rect class="cls-9" x="2476.24" y="1448.96" width="2.42" height="19.89"/><rect class="cls-9" x="2466.41" y="1448.96" width="2.42" height="19.89"/><rect class="cls-9" x="2451.34" y="1448.96" width="2.42" height="19.89"/><rect class="cls-9" x="2435.41" y="1448.96" width="2.42" height="19.89"/><rect class="cls-9" x="2410.98" y="1448.96" width="2.42" height="19.89"/><rect class="cls-9" x="2388.11" y="1448.96" width="2.42" height="19.89"/><rect class="cls-9" x="2367.69" y="1448.96" width="2.42" height="19.89"/><rect class="cls-9" x="2492.24" y="1448.96" width="2.42" height="19.89"/><rect class="cls-9" x="2497.39" y="1448.96" width="2.42" height="19.89"/><rect class="cls-9" x="2502.37" y="1448.96" width="2.42" height="19.89"/><path class="cls-9" d="M2508.54,1449v19.76a6.84,6.84,0,0,1-.91.06h-1.52V1449h1.52A6.84,6.84,0,0,1,2508.54,1449Z"/><path class="cls-9" d="M2511.9,1450.88v16.06a5.12,5.12,0,0,1-2.42,1.62v-19.3A5.12,5.12,0,0,1,2511.9,1450.88Z"/><path class="cls-8" d="M2484.81,1433.43v11.24a3.81,3.81,0,0,1-.89,2.41,5.09,5.09,0,0,1-2.41,1.62,6,6,0,0,1-1,.23l-.3,0-.24,0H2266.58c-2.75,0-5-1.83-5.15-4.11v-11.68c.14-2.28,2.4-4.11,5.15-4.11h213.35l.63.06a5.07,5.07,0,0,1,1,.23l.44.16.27.12,0,0,.26.13,0,0,.23.14a4.74,4.74,0,0,1,.51.37l.15.13s0,0,0,0l.09.09h0l.15.16a2.31,2.31,0,0,1,.2.24A3.81,3.81,0,0,1,2484.81,1433.43Z"/><path class="cls-9" d="M2380.18,1449H2266a4.51,4.51,0,0,1-4.6-4.11v-11.68a4.51,4.51,0,0,1,4.6-4.11h100.13c0,.15.08.31.13.46a34.79,34.79,0,0,0,13.84,19.4Z"/><rect class="cls-9" x="2456.46" y="1429.1" width="2.42" height="19.89"/><rect class="cls-9" x="2448.26" y="1429.1" width="2.42" height="19.89"/><rect class="cls-9" x="2438.43" y="1429.1" width="2.42" height="19.89"/><rect class="cls-9" x="2423.37" y="1429.1" width="2.42" height="19.89"/><rect class="cls-9" x="2407.43" y="1429.1" width="2.42" height="19.89"/><rect class="cls-9" x="2383.01" y="1429.1" width="2.42" height="19.89"/><rect class="cls-9" x="2360.13" y="1429.1" width="2.42" height="19.89"/><rect class="cls-9" x="2339.71" y="1429.1" width="2.42" height="19.89"/><rect class="cls-9" x="2464.26" y="1429.1" width="2.42" height="19.89"/><rect class="cls-9" x="2469.42" y="1429.1" width="2.42" height="19.89"/><rect class="cls-9" x="2474.4" y="1429.1" width="2.42" height="19.89"/><path class="cls-9" d="M2480.56,1429.17v19.76a6.71,6.71,0,0,1-.91.07h-1.51v-19.9h1.51A6.71,6.71,0,0,1,2480.56,1429.17Z"/><path class="cls-9" d="M2483.93,1431v16.06a5.17,5.17,0,0,1-2.42,1.62v-19.3A5.17,5.17,0,0,1,2483.93,1431Z"/><path class="cls-8" d="M2500.47,1414v11.23a3.81,3.81,0,0,1-.88,2.42,5.12,5.12,0,0,1-2.42,1.62,4.94,4.94,0,0,1-.94.22,5.49,5.49,0,0,1-.91.07H2282.25a5.84,5.84,0,0,1-2.31-.46,4.43,4.43,0,0,1-2.83-3.47c0-.05,0-.11,0-.17a1.77,1.77,0,0,1,0-.23V1414a1.62,1.62,0,0,1,0-.22c.13-2.11,2.07-3.83,4.54-4.08a6.08,6.08,0,0,1,.61,0h213.07a6.84,6.84,0,0,1,.91.07,5.84,5.84,0,0,1,.94.22,5.19,5.19,0,0,1,2.42,1.62A3.83,3.83,0,0,1,2500.47,1414Z"/><path class="cls-9" d="M2395.84,1429.56H2281.69a4.7,4.7,0,0,1-2.05-.46,4.34,4.34,0,0,1-2.53-3.47c0-.05,0-.11,0-.17a1.77,1.77,0,0,1,0-.23V1414a1.62,1.62,0,0,1,0-.22,4.47,4.47,0,0,1,4.05-4.08l.54,0h100.14v0a34.93,34.93,0,0,0,13.36,19.4C2395.4,1429.26,2395.62,1429.41,2395.84,1429.56Z"/><rect class="cls-9" x="2472.12" y="1409.67" width="2.42" height="19.89"/><rect class="cls-9" x="2463.93" y="1409.67" width="2.42" height="19.89"/><rect class="cls-9" x="2454.1" y="1409.67" width="2.42" height="19.89"/><rect class="cls-9" x="2439.03" y="1409.67" width="2.42" height="19.89"/><rect class="cls-9" x="2423.1" y="1409.67" width="2.42" height="19.89"/><rect class="cls-9" x="2398.67" y="1409.67" width="2.42" height="19.89"/><rect class="cls-9" x="2375.8" y="1409.67" width="2.42" height="19.89"/><rect class="cls-9" x="2355.38" y="1409.67" width="2.42" height="19.89"/><rect class="cls-9" x="2479.93" y="1409.67" width="2.42" height="19.89"/><rect class="cls-9" x="2485.08" y="1409.67" width="2.42" height="19.89"/><rect class="cls-9" x="2490.06" y="1409.67" width="2.42" height="19.89"/><path class="cls-9" d="M2496.23,1409.74v19.75a5.49,5.49,0,0,1-.91.07h-1.51v-19.89h1.51A5.49,5.49,0,0,1,2496.23,1409.74Z"/><path class="cls-9" d="M2499.59,1411.58v16.07a5.12,5.12,0,0,1-2.42,1.62V1410A5.12,5.12,0,0,1,2499.59,1411.58Z"/><path class="cls-8" d="M2507.14,1394.14v11.23a3.81,3.81,0,0,1-.88,2.42,5.12,5.12,0,0,1-2.42,1.62,4.94,4.94,0,0,1-.94.22l-.3,0-.17,0H2288.92c-2.75,0-5-1.83-5.15-4.1a1.77,1.77,0,0,1,0-.23v-11.23a1.62,1.62,0,0,1,0-.22c.14-2.28,2.4-4.11,5.15-4.11H2502a6.84,6.84,0,0,1,.91.07,5.84,5.84,0,0,1,.94.22,5.19,5.19,0,0,1,2.42,1.62A3.83,3.83,0,0,1,2507.14,1394.14Z"/><path class="cls-9" d="M2402.51,1409.7H2288.36a4.5,4.5,0,0,1-4.59-4.1,1.77,1.77,0,0,1,0-.23v-11.23a1.62,1.62,0,0,1,0-.22,4.5,4.5,0,0,1,4.59-4.11H2388.5a34.81,34.81,0,0,0,14,19.86Z"/><rect class="cls-9" x="2478.79" y="1389.81" width="2.42" height="19.89"/><rect class="cls-9" x="2470.6" y="1389.81" width="2.42" height="19.89"/><rect class="cls-9" x="2460.77" y="1389.81" width="2.42" height="19.89"/><rect class="cls-9" x="2445.7" y="1389.81" width="2.42" height="19.89"/><rect class="cls-9" x="2429.77" y="1389.81" width="2.42" height="19.89"/><rect class="cls-9" x="2405.34" y="1389.81" width="2.42" height="19.89"/><rect class="cls-9" x="2382.47" y="1389.81" width="2.42" height="19.89"/><rect class="cls-9" x="2362.05" y="1389.81" width="2.42" height="19.89"/><rect class="cls-9" x="2486.6" y="1389.81" width="2.42" height="19.89"/><rect class="cls-9" x="2491.75" y="1389.81" width="2.42" height="19.89"/><rect class="cls-9" x="2496.73" y="1389.81" width="2.42" height="19.89"/><path class="cls-9" d="M2502.9,1389.88v19.75a5.49,5.49,0,0,1-.91.07h-1.52v-19.89H2502A5.49,5.49,0,0,1,2502.9,1389.88Z"/><path class="cls-9" d="M2506.26,1391.72v16.07a5.12,5.12,0,0,1-2.42,1.62V1390.1A5.19,5.19,0,0,1,2506.26,1391.72Z"/><path class="cls-8" d="M2234.6,1590v12.39a4.24,4.24,0,0,1-1,2.66,5.75,5.75,0,0,1-2.67,1.79,5.83,5.83,0,0,1-1,.24,6.53,6.53,0,0,1-1,.08H1994.06c-3,0-5.52-2-5.68-4.53v-12.87c.16-2.51,2.65-4.53,5.68-4.53h234.86a6.53,6.53,0,0,1,1,.08,5.83,5.83,0,0,1,1,.24,5.75,5.75,0,0,1,2.67,1.79A4.24,4.24,0,0,1,2234.6,1590Z"/><path class="cls-9" d="M2119.27,1607.12H1993.45a5,5,0,0,1-5.07-4.53v-12.87a5,5,0,0,1,5.07-4.53h110.37A38.44,38.44,0,0,0,2119.27,1607.12Z"/><rect class="cls-9" x="2203.36" y="1585.19" width="2.67" height="21.93"/><rect class="cls-9" x="2194.32" y="1585.19" width="2.67" height="21.93"/><rect class="cls-9" x="2183.48" y="1585.19" width="2.67" height="21.93"/><rect class="cls-9" x="2166.88" y="1585.19" width="2.67" height="21.93"/><rect class="cls-9" x="2149.31" y="1585.19" width="2.67" height="21.93"/><rect class="cls-9" x="2122.39" y="1585.19" width="2.67" height="21.93"/><rect class="cls-9" x="2097.18" y="1585.19" width="2.67" height="21.93"/><rect class="cls-9" x="2074.67" y="1585.19" width="2.67" height="21.93"/><rect class="cls-9" x="2211.96" y="1585.19" width="2.67" height="21.93"/><rect class="cls-9" x="2217.64" y="1585.19" width="2.67" height="21.93"/><rect class="cls-9" x="2223.12" y="1585.19" width="2.67" height="21.93"/><path class="cls-9" d="M2229.92,1585.27V1607a6.53,6.53,0,0,1-1,.08h-1.67v-21.93h1.67A6.53,6.53,0,0,1,2229.92,1585.27Z"/><path class="cls-9" d="M2233.63,1587.3V1605a5.75,5.75,0,0,1-2.67,1.79v-21.29A5.75,5.75,0,0,1,2233.63,1587.3Z"/><path class="cls-8" d="M2209.49,1568v12.38a4.22,4.22,0,0,1-1,2.66,5.61,5.61,0,0,1-2.67,1.79,5.83,5.83,0,0,1-1,.24,5.47,5.47,0,0,1-1,.08H1969c-3,0-5.52-2-5.68-4.53v-12.87c.16-2.51,2.65-4.52,5.68-4.52h235.31l.19,0,.21,0,.15,0a5.85,5.85,0,0,1,1,.25l.15.05.14,0,.29.12.16.07.15.07.26.15.3.18.22.15h0l.14.11a3.58,3.58,0,0,1,.41.35,1.36,1.36,0,0,1,.12.12l.11.11.21.24A4.27,4.27,0,0,1,2209.49,1568Z"/><path class="cls-9" d="M2094.16,1585.19H1968.34a5,5,0,0,1-5.07-4.53v-12.87a5,5,0,0,1,5.07-4.52h110.37q.08.26.15.54A38.39,38.39,0,0,0,2094.16,1585.19Z"/><rect class="cls-9" x="2178.24" y="1563.27" width="2.67" height="21.92"/><rect class="cls-9" x="2169.21" y="1563.27" width="2.67" height="21.92"/><rect class="cls-9" x="2158.37" y="1563.27" width="2.67" height="21.92"/><rect class="cls-9" x="2141.76" y="1563.27" width="2.67" height="21.92"/><rect class="cls-9" x="2124.2" y="1563.27" width="2.67" height="21.92"/><rect class="cls-9" x="2097.28" y="1563.27" width="2.67" height="21.92"/><rect class="cls-9" x="2072.07" y="1563.27" width="2.67" height="21.92"/><rect class="cls-9" x="2049.56" y="1563.27" width="2.67" height="21.92"/><rect class="cls-9" x="2186.84" y="1563.27" width="2.67" height="21.92"/><rect class="cls-9" x="2192.53" y="1563.27" width="2.67" height="21.92"/><rect class="cls-9" x="2198.01" y="1563.27" width="2.67" height="21.92"/><path class="cls-9" d="M2204.81,1563.34v21.77a6.63,6.63,0,0,1-1,.08h-1.67v-21.92h1.67A6.63,6.63,0,0,1,2204.81,1563.34Z"/><path class="cls-9" d="M2208.52,1565.37v17.71a5.61,5.61,0,0,1-2.67,1.79v-21.28A5.66,5.66,0,0,1,2208.52,1565.37Z"/><path class="cls-8" d="M2221.63,1546.65V1559a4.2,4.2,0,0,1-1,2.67,5.58,5.58,0,0,1-2.66,1.78,5.43,5.43,0,0,1-1,.25,6.66,6.66,0,0,1-1,.08H1981.08a6.63,6.63,0,0,1-2.62-.54,4.89,4.89,0,0,1-3-3.78,1.49,1.49,0,0,1,0-.21,2,2,0,0,1,0-.25v-12.38a1.93,1.93,0,0,1,0-.24c.15-2.51,2.65-4.53,5.67-4.53h234.86a6.66,6.66,0,0,1,1,.08,6.27,6.27,0,0,1,1,.24,5.67,5.67,0,0,1,2.66,1.79A4.2,4.2,0,0,1,2221.63,1546.65Z"/><path class="cls-9" d="M2106.3,1563.81H1980.47a5.32,5.32,0,0,1-2.33-.54,4.79,4.79,0,0,1-2.71-3.78,1.49,1.49,0,0,1,0-.21,2,2,0,0,1,0-.25v-12.38a1.93,1.93,0,0,1,0-.24,5,5,0,0,1,5.06-4.53h110.38a38.42,38.42,0,0,0,14.68,21.39Z"/><rect class="cls-9" x="2190.38" y="1541.88" width="2.67" height="21.93"/><rect class="cls-9" x="2181.34" y="1541.88" width="2.67" height="21.93"/><rect class="cls-9" x="2170.51" y="1541.88" width="2.67" height="21.93"/><rect class="cls-9" x="2153.9" y="1541.88" width="2.67" height="21.93"/><rect class="cls-9" x="2136.34" y="1541.88" width="2.67" height="21.93"/><rect class="cls-9" x="2109.41" y="1541.88" width="2.67" height="21.93"/><rect class="cls-9" x="2084.2" y="1541.88" width="2.67" height="21.93"/><rect class="cls-9" x="2061.69" y="1541.88" width="2.67" height="21.93"/><rect class="cls-9" x="2198.98" y="1541.88" width="2.67" height="21.93"/><rect class="cls-9" x="2204.66" y="1541.88" width="2.67" height="21.93"/><rect class="cls-9" x="2210.15" y="1541.88" width="2.67" height="21.93"/><path class="cls-9" d="M2217,1542v21.77a6.66,6.66,0,0,1-1,.08h-1.66v-21.93h1.66A6.66,6.66,0,0,1,2217,1542Z"/><path class="cls-9" d="M2220.65,1544v17.71a5.58,5.58,0,0,1-2.66,1.78V1542.2A5.67,5.67,0,0,1,2220.65,1544Z"/><path class="cls-8" d="M2227.25,1524.73v12.38a4.22,4.22,0,0,1-1,2.66,5.61,5.61,0,0,1-2.67,1.79,5.83,5.83,0,0,1-1,.24,6.53,6.53,0,0,1-1,.08H1986.71c-3,0-5.52-2-5.68-4.53v-12.87c.14-2.32,2.29-4.22,5-4.49.22,0,.44,0,.67,0h234.86a6.54,6.54,0,0,1,1,.07,5.85,5.85,0,0,1,1,.25,5.66,5.66,0,0,1,2.67,1.78A4.27,4.27,0,0,1,2227.25,1524.73Z"/><path class="cls-9" d="M2111.92,1541.88H1986.1a5,5,0,0,1-5.07-4.53v-12.87a4.93,4.93,0,0,1,4.47-4.49l.6,0h110.37v0A38.46,38.46,0,0,0,2111.92,1541.88Z"/><rect class="cls-9" x="2196" y="1519.95" width="2.67" height="21.93"/><rect class="cls-9" x="2186.97" y="1519.95" width="2.67" height="21.93"/><rect class="cls-9" x="2176.13" y="1519.95" width="2.67" height="21.93"/><rect class="cls-9" x="2159.53" y="1519.95" width="2.67" height="21.93"/><rect class="cls-9" x="2141.96" y="1519.95" width="2.67" height="21.93"/><rect class="cls-9" x="2115.04" y="1519.95" width="2.67" height="21.93"/><rect class="cls-9" x="2089.83" y="1519.95" width="2.67" height="21.93"/><rect class="cls-9" x="2067.32" y="1519.95" width="2.67" height="21.93"/><rect class="cls-9" x="2204.61" y="1519.95" width="2.67" height="21.93"/><rect class="cls-9" x="2210.29" y="1519.95" width="2.67" height="21.93"/><rect class="cls-9" x="2215.77" y="1519.95" width="2.67" height="21.93"/><path class="cls-9" d="M2222.57,1520v21.77a6.53,6.53,0,0,1-1,.08h-1.67V1520h1.67A6.53,6.53,0,0,1,2222.57,1520Z"/><path class="cls-9" d="M2226.28,1522.06v17.71a5.75,5.75,0,0,1-2.67,1.79v-21.28A5.66,5.66,0,0,1,2226.28,1522.06Z"/><path class="cls-8" d="M2210,1502.84v12.38a4.2,4.2,0,0,1-1,2.66,5.75,5.75,0,0,1-2.67,1.79,5.83,5.83,0,0,1-1,.24l-.33,0H1969.44c-3,0-5.52-2-5.67-4.53a1.93,1.93,0,0,1,0-.24v-12.38a2,2,0,0,1,0-.25c0-.07,0-.13,0-.2a5.15,5.15,0,0,1,4.26-4.18l.17,0a6.26,6.26,0,0,1,1.23-.12H2204.3l.51,0,.23,0h0l.26,0a5.09,5.09,0,0,1,1,.25,5.66,5.66,0,0,1,2.67,1.78A4.2,4.2,0,0,1,2210,1502.84Z"/><path class="cls-9" d="M2094.66,1520H1968.83a5,5,0,0,1-5.06-4.53,1.93,1.93,0,0,1,0-.24v-12.38a2,2,0,0,1,0-.25c0-.07,0-.13,0-.2a4.91,4.91,0,0,1,3.94-4.21l.21,0a5.47,5.47,0,0,1,.9-.08H2079.2c0,.06,0,.11.05.16a38.42,38.42,0,0,0,15.36,21.74Z"/><rect class="cls-9" x="2178.74" y="1498.06" width="2.67" height="21.93"/><rect class="cls-9" x="2169.7" y="1498.06" width="2.67" height="21.93"/><rect class="cls-9" x="2158.87" y="1498.06" width="2.67" height="21.93"/><rect class="cls-9" x="2142.26" y="1498.06" width="2.67" height="21.93"/><rect class="cls-9" x="2124.7" y="1498.06" width="2.67" height="21.93"/><rect class="cls-9" x="2097.77" y="1498.06" width="2.67" height="21.93"/><rect class="cls-9" x="2072.56" y="1498.06" width="2.67" height="21.93"/><rect class="cls-9" x="2050.05" y="1498.06" width="2.67" height="21.93"/><rect class="cls-9" x="2187.34" y="1498.06" width="2.67" height="21.93"/><rect class="cls-9" x="2193.02" y="1498.06" width="2.67" height="21.93"/><rect class="cls-9" x="2198.51" y="1498.06" width="2.67" height="21.93"/><path class="cls-9" d="M2205.3,1498.14v21.77a6.43,6.43,0,0,1-1,.08h-1.67v-21.93h1.67A6.43,6.43,0,0,1,2205.3,1498.14Z"/><path class="cls-9" d="M2209,1500.17v17.71a5.75,5.75,0,0,1-2.67,1.79v-21.28A5.66,5.66,0,0,1,2209,1500.17Z"/><path class="cls-8" d="M2209.49,1481.07v12.38a4.24,4.24,0,0,1-1,2.66,5.75,5.75,0,0,1-2.67,1.79,6.85,6.85,0,0,1-.81.2h0l-.23,0a6.53,6.53,0,0,1-1,.08H1969a6,6,0,0,1-.74,0l-.28,0a5.17,5.17,0,0,1-4.66-4.45v-12.87c.16-2.51,2.65-4.53,5.68-4.53h234.86l.45,0,.19,0,.21,0,.15,0a5.85,5.85,0,0,1,1,.25l.15.05.14,0,.29.11.31.15.26.14.3.19.22.15h0l.14.11a3.58,3.58,0,0,1,.41.35l.12.11.11.12.21.24A4.25,4.25,0,0,1,2209.49,1481.07Z"/><path class="cls-9" d="M2094.16,1498.22H1968a1.66,1.66,0,0,1-.32,0,4.92,4.92,0,0,1-4.45-4.49v-12.87a5,5,0,0,1,5.07-4.53h110.37l.15.54a38.38,38.38,0,0,0,15.08,21.23Z"/><rect class="cls-9" x="2178.24" y="1476.29" width="2.67" height="21.93"/><rect class="cls-9" x="2169.21" y="1476.29" width="2.67" height="21.93"/><rect class="cls-9" x="2158.37" y="1476.29" width="2.67" height="21.93"/><rect class="cls-9" x="2141.76" y="1476.29" width="2.67" height="21.93"/><rect class="cls-9" x="2124.2" y="1476.29" width="2.67" height="21.93"/><rect class="cls-9" x="2097.28" y="1476.29" width="2.67" height="21.93"/><rect class="cls-9" x="2072.07" y="1476.29" width="2.67" height="21.93"/><rect class="cls-9" x="2049.56" y="1476.29" width="2.67" height="21.93"/><rect class="cls-9" x="2186.84" y="1476.29" width="2.67" height="21.93"/><rect class="cls-9" x="2192.53" y="1476.29" width="2.67" height="21.93"/><rect class="cls-9" x="2198.01" y="1476.29" width="2.67" height="21.93"/><path class="cls-9" d="M2204.81,1476.37v21.77a6.63,6.63,0,0,1-1,.08h-1.67v-21.93h1.67A6.63,6.63,0,0,1,2204.81,1476.37Z"/><path class="cls-9" d="M2208.52,1478.4v17.71a5.75,5.75,0,0,1-2.67,1.79v-21.28A5.66,5.66,0,0,1,2208.52,1478.4Z"/><path class="cls-8" d="M2221.63,1459.68v12.38a4.22,4.22,0,0,1-1,2.67,5.58,5.58,0,0,1-2.66,1.78,6.3,6.3,0,0,1-1,.25,6.67,6.67,0,0,1-1,.07H1981.08a6.46,6.46,0,0,1-2.62-.54,4.86,4.86,0,0,1-3-3.77,1.49,1.49,0,0,1,0-.21,2.09,2.09,0,0,1,0-.25v-12.38a1.93,1.93,0,0,1,0-.24c.15-2.52,2.65-4.53,5.67-4.53h234.86a5.58,5.58,0,0,1,1,.08,6.27,6.27,0,0,1,1,.24,5.53,5.53,0,0,1,2.66,1.79A4.17,4.17,0,0,1,2221.63,1459.68Z"/><path class="cls-9" d="M2106.3,1476.83H1980.47a5.19,5.19,0,0,1-2.33-.54,4.76,4.76,0,0,1-2.71-3.77,1.49,1.49,0,0,1,0-.21,2.09,2.09,0,0,1,0-.25v-12.38a1.93,1.93,0,0,1,0-.24,5,5,0,0,1,5.06-4.53h110.38a38.37,38.37,0,0,0,14.68,21.38C2105.78,1476.48,2106,1476.66,2106.3,1476.83Z"/><rect class="cls-9" x="2190.38" y="1454.91" width="2.67" height="21.92"/><rect class="cls-9" x="2181.34" y="1454.91" width="2.67" height="21.92"/><rect class="cls-9" x="2170.51" y="1454.91" width="2.67" height="21.92"/><rect class="cls-9" x="2153.9" y="1454.91" width="2.67" height="21.92"/><rect class="cls-9" x="2136.34" y="1454.91" width="2.67" height="21.92"/><rect class="cls-9" x="2109.41" y="1454.91" width="2.67" height="21.92"/><rect class="cls-9" x="2084.2" y="1454.91" width="2.67" height="21.92"/><rect class="cls-9" x="2061.69" y="1454.91" width="2.67" height="21.92"/><rect class="cls-9" x="2198.98" y="1454.91" width="2.67" height="21.92"/><rect class="cls-9" x="2204.66" y="1454.91" width="2.67" height="21.92"/><rect class="cls-9" x="2210.15" y="1454.91" width="2.67" height="21.92"/><path class="cls-9" d="M2217,1455v21.77a6.66,6.66,0,0,1-1,.08h-1.66v-21.93h1.66A6.66,6.66,0,0,1,2217,1455Z"/><path class="cls-9" d="M2220.65,1457v17.71a5.58,5.58,0,0,1-2.66,1.78v-21.28A5.6,5.6,0,0,1,2220.65,1457Z"/><path class="cls-8" d="M2240.82,1437.76v12.38a4.24,4.24,0,0,1-1,2.66,5.75,5.75,0,0,1-2.67,1.79,5.83,5.83,0,0,1-1,.24,6.63,6.63,0,0,1-1,.08H2000.28c-3,0-5.53-2-5.68-4.53,0-.08,0-.16,0-.24v-12.38c0-.09,0-.17,0-.25.14-2.32,2.29-4.22,5-4.49a5.07,5.07,0,0,1,.68,0h234.86a6.63,6.63,0,0,1,1,.08,5.09,5.09,0,0,1,1,.25,5.66,5.66,0,0,1,2.67,1.78A4.25,4.25,0,0,1,2240.82,1437.76Z"/><path class="cls-9" d="M2125.49,1454.91H1999.67a5,5,0,0,1-5.07-4.53c0-.08,0-.16,0-.24v-12.38c0-.09,0-.17,0-.25a4.92,4.92,0,0,1,4.47-4.49,3.86,3.86,0,0,1,.6,0H2110v0A38.46,38.46,0,0,0,2125.49,1454.91Z"/><rect class="cls-9" x="2209.57" y="1432.98" width="2.67" height="21.93"/><rect class="cls-9" x="2200.54" y="1432.98" width="2.67" height="21.93"/><rect class="cls-9" x="2189.7" y="1432.98" width="2.67" height="21.93"/><rect class="cls-9" x="2173.09" y="1432.98" width="2.67" height="21.93"/><rect class="cls-9" x="2155.53" y="1432.98" width="2.67" height="21.93"/><rect class="cls-9" x="2128.61" y="1432.98" width="2.67" height="21.93"/><rect class="cls-9" x="2103.4" y="1432.98" width="2.67" height="21.93"/><rect class="cls-9" x="2080.89" y="1432.98" width="2.67" height="21.93"/><rect class="cls-9" x="2218.17" y="1432.98" width="2.67" height="21.93"/><rect class="cls-9" x="2223.86" y="1432.98" width="2.67" height="21.93"/><rect class="cls-9" x="2229.34" y="1432.98" width="2.67" height="21.93"/><path class="cls-9" d="M2236.14,1433.06v21.77a6.63,6.63,0,0,1-1,.08h-1.67V1433h1.67A6.63,6.63,0,0,1,2236.14,1433.06Z"/><path class="cls-9" d="M2239.85,1435.09v17.71a5.75,5.75,0,0,1-2.67,1.79v-21.28A5.66,5.66,0,0,1,2239.85,1435.09Z"/><path class="cls-8" d="M2210,1415.86v12.39a4.2,4.2,0,0,1-1,2.66,5.75,5.75,0,0,1-2.67,1.79,5.83,5.83,0,0,1-1,.24l-.33,0-.26,0H1969.44c-3,0-5.52-2-5.67-4.53a1.93,1.93,0,0,1,0-.24v-12.39a1.93,1.93,0,0,1,0-.24c.15-2.51,2.64-4.53,5.67-4.53H2204.6a5.19,5.19,0,0,1,.7.07,5.83,5.83,0,0,1,1,.24l.5.19.29.13,0,0a2,2,0,0,1,.29.15l0,0a2.26,2.26,0,0,1,.26.16,4.75,4.75,0,0,1,.56.41l.16.14,0,0,.1.09s0,0,0,0l.17.17.22.26A4.2,4.2,0,0,1,2210,1415.86Z"/><path class="cls-9" d="M2094.66,1433H1968.83a5,5,0,0,1-5.06-4.53,1.93,1.93,0,0,1,0-.24v-12.39a1.93,1.93,0,0,1,0-.24,5,5,0,0,1,5.06-4.53H2079.2l.15.51a38.32,38.32,0,0,0,15.26,21.38Z"/><rect class="cls-9" x="2178.74" y="1411.09" width="2.67" height="21.92"/><rect class="cls-9" x="2169.7" y="1411.09" width="2.67" height="21.92"/><rect class="cls-9" x="2158.87" y="1411.09" width="2.67" height="21.92"/><rect class="cls-9" x="2142.26" y="1411.09" width="2.67" height="21.92"/><rect class="cls-9" x="2124.7" y="1411.09" width="2.67" height="21.92"/><rect class="cls-9" x="2097.77" y="1411.09" width="2.67" height="21.92"/><rect class="cls-9" x="2072.56" y="1411.09" width="2.67" height="21.92"/><rect class="cls-9" x="2050.05" y="1411.09" width="2.67" height="21.92"/><rect class="cls-9" x="2187.34" y="1411.09" width="2.67" height="21.92"/><rect class="cls-9" x="2193.02" y="1411.09" width="2.67" height="21.92"/><rect class="cls-9" x="2198.51" y="1411.09" width="2.67" height="21.92"/><path class="cls-9" d="M2205.3,1411.17v21.77a6.43,6.43,0,0,1-1,.08h-1.67v-21.93h1.67A6.43,6.43,0,0,1,2205.3,1411.17Z"/><path class="cls-9" d="M2209,1413.2v17.71a5.75,5.75,0,0,1-2.67,1.79v-21.29A5.75,5.75,0,0,1,2209,1413.2Z"/><path class="cls-8" d="M2227.25,1394.44v12.39a4.24,4.24,0,0,1-1,2.66,5.75,5.75,0,0,1-2.67,1.79,5.83,5.83,0,0,1-1,.24,6.53,6.53,0,0,1-1,.08H1986.71a6.44,6.44,0,0,1-2.54-.51,4.87,4.87,0,0,1-3.12-3.82c0-.07,0-.13,0-.2V1394.2c.14-2.32,2.29-4.22,5-4.49a4.92,4.92,0,0,1,.67,0h234.86a6.53,6.53,0,0,1,1,.08,5.83,5.83,0,0,1,1,.24,5.75,5.75,0,0,1,2.67,1.79A4.24,4.24,0,0,1,2227.25,1394.44Z"/><path class="cls-9" d="M2111.92,1411.6H1986.1a5.17,5.17,0,0,1-2.26-.51,4.81,4.81,0,0,1-2.79-3.82c0-.07,0-.13,0-.2V1394.2a4.93,4.93,0,0,1,4.47-4.49,4,4,0,0,1,.6,0h110.37v0a38.47,38.47,0,0,0,14.72,21.38Z"/><rect class="cls-9" x="2196" y="1389.67" width="2.67" height="21.92"/><rect class="cls-9" x="2186.97" y="1389.67" width="2.67" height="21.92"/><rect class="cls-9" x="2176.13" y="1389.67" width="2.67" height="21.92"/><rect class="cls-9" x="2159.53" y="1389.67" width="2.67" height="21.92"/><rect class="cls-9" x="2141.96" y="1389.67" width="2.67" height="21.92"/><rect class="cls-9" x="2115.04" y="1389.67" width="2.67" height="21.92"/><rect class="cls-9" x="2089.83" y="1389.67" width="2.67" height="21.92"/><rect class="cls-9" x="2067.32" y="1389.67" width="2.67" height="21.92"/><rect class="cls-9" x="2204.61" y="1389.67" width="2.67" height="21.92"/><rect class="cls-9" x="2210.29" y="1389.67" width="2.67" height="21.92"/><rect class="cls-9" x="2215.77" y="1389.67" width="2.67" height="21.92"/><path class="cls-9" d="M2222.57,1389.75v21.77a6.53,6.53,0,0,1-1,.08h-1.67v-21.93h1.67A6.53,6.53,0,0,1,2222.57,1389.75Z"/><path class="cls-9" d="M2226.28,1391.78v17.71a5.75,5.75,0,0,1-2.67,1.79V1390A5.75,5.75,0,0,1,2226.28,1391.78Z"/><path class="cls-8" d="M2234.6,1372.55v12.38a4.25,4.25,0,0,1-1,2.67,5.75,5.75,0,0,1-2.67,1.79,5.83,5.83,0,0,1-1,.24l-.33,0-.18,0H1994.06c-3,0-5.52-2-5.68-4.53v-12.87c.16-2.51,2.65-4.53,5.68-4.53h234.86a6.53,6.53,0,0,1,1,.08,5.83,5.83,0,0,1,1,.24,5.75,5.75,0,0,1,2.67,1.79A4.24,4.24,0,0,1,2234.6,1372.55Z"/><path class="cls-9" d="M2119.27,1389.71H1993.45a5,5,0,0,1-5.07-4.53v-12.87a5,5,0,0,1,5.07-4.53h110.37a38.44,38.44,0,0,0,15.4,21.89Z"/><rect class="cls-9" x="2203.36" y="1367.78" width="2.67" height="21.93"/><rect class="cls-9" x="2194.32" y="1367.78" width="2.67" height="21.93"/><rect class="cls-9" x="2183.48" y="1367.78" width="2.67" height="21.93"/><rect class="cls-9" x="2166.88" y="1367.78" width="2.67" height="21.93"/><rect class="cls-9" x="2149.31" y="1367.78" width="2.67" height="21.93"/><rect class="cls-9" x="2122.39" y="1367.78" width="2.67" height="21.93"/><rect class="cls-9" x="2097.18" y="1367.78" width="2.67" height="21.93"/><rect class="cls-9" x="2074.67" y="1367.78" width="2.67" height="21.93"/><rect class="cls-9" x="2211.96" y="1367.78" width="2.67" height="21.93"/><rect class="cls-9" x="2217.64" y="1367.78" width="2.67" height="21.93"/><rect class="cls-9" x="2223.12" y="1367.78" width="2.67" height="21.93"/><path class="cls-9" d="M2229.92,1367.86v21.77a6.53,6.53,0,0,1-1,.08h-1.67v-21.93h1.67A6.53,6.53,0,0,1,2229.92,1367.86Z"/><path class="cls-9" d="M2233.63,1369.89v17.71a5.75,5.75,0,0,1-2.67,1.79V1368.1A5.75,5.75,0,0,1,2233.63,1369.89Z"/><path class="cls-8" d="M2240.82,1350.93v12.38a4.22,4.22,0,0,1-1,2.66,5.61,5.61,0,0,1-2.67,1.79,6.87,6.87,0,0,1-1,.25,6.63,6.63,0,0,1-1,.07H2000.28c-3,0-5.53-2-5.68-4.52,0-.09,0-.17,0-.25v-12.38c0-.08,0-.17,0-.25.14-2.32,2.29-4.22,5-4.49.22,0,.45,0,.68,0h234.86a6.63,6.63,0,0,1,1,.07,5.85,5.85,0,0,1,1,.25,5.66,5.66,0,0,1,2.67,1.78A4.27,4.27,0,0,1,2240.82,1350.93Z"/><path class="cls-9" d="M2125.49,1368.08H1999.67a5,5,0,0,1-5.07-4.52c0-.09,0-.17,0-.25v-12.38c0-.08,0-.17,0-.25a4.92,4.92,0,0,1,4.47-4.49,5.74,5.74,0,0,1,.6,0H2110v0A38.46,38.46,0,0,0,2125.49,1368.08Z"/><rect class="cls-9" x="2209.57" y="1346.16" width="2.67" height="21.93"/><rect class="cls-9" x="2200.54" y="1346.16" width="2.67" height="21.93"/><rect class="cls-9" x="2189.7" y="1346.16" width="2.67" height="21.93"/><rect class="cls-9" x="2173.09" y="1346.16" width="2.67" height="21.93"/><rect class="cls-9" x="2155.53" y="1346.16" width="2.67" height="21.93"/><rect class="cls-9" x="2128.61" y="1346.16" width="2.67" height="21.93"/><rect class="cls-9" x="2103.4" y="1346.16" width="2.67" height="21.93"/><rect class="cls-9" x="2080.89" y="1346.16" width="2.67" height="21.93"/><rect class="cls-9" x="2218.17" y="1346.16" width="2.67" height="21.93"/><rect class="cls-9" x="2223.86" y="1346.16" width="2.67" height="21.93"/><rect class="cls-9" x="2229.34" y="1346.16" width="2.67" height="21.93"/><path class="cls-9" d="M2236.14,1346.23V1368a5.55,5.55,0,0,1-1,.08h-1.67v-21.92h1.67A6.63,6.63,0,0,1,2236.14,1346.23Z"/><path class="cls-9" d="M2239.85,1348.26V1366a5.68,5.68,0,0,1-2.67,1.79v-21.28A5.66,5.66,0,0,1,2239.85,1348.26Z"/><path class="cls-8" d="M2210,1329v12.38a4.2,4.2,0,0,1-1,2.66,5.68,5.68,0,0,1-2.67,1.79,5.83,5.83,0,0,1-1,.24l-.33.05-.26,0H1969.44c-3,0-5.52-2-5.67-4.53a1.93,1.93,0,0,1,0-.24V1329a2,2,0,0,1,0-.25c.15-2.51,2.64-4.53,5.67-4.53H2204.6c.24,0,.48,0,.7.07a5.09,5.09,0,0,1,1,.25,4.24,4.24,0,0,1,.5.18l.29.13,0,0,.29.15,0,0a2.2,2.2,0,0,1,.26.15,4.81,4.81,0,0,1,.56.42,1.07,1.07,0,0,1,.16.14l0,0,.1.09,0,0,.17.17.22.26A4.2,4.2,0,0,1,2210,1329Z"/><path class="cls-9" d="M2094.66,1346.19H1968.83a5,5,0,0,1-5.06-4.53,1.93,1.93,0,0,1,0-.24V1329a2,2,0,0,1,0-.25,5,5,0,0,1,5.06-4.53H2079.2l.15.51a38.37,38.37,0,0,0,15.26,21.39Z"/><rect class="cls-9" x="2178.74" y="1324.27" width="2.67" height="21.93"/><rect class="cls-9" x="2169.7" y="1324.27" width="2.67" height="21.93"/><rect class="cls-9" x="2158.87" y="1324.27" width="2.67" height="21.93"/><rect class="cls-9" x="2142.26" y="1324.27" width="2.67" height="21.93"/><rect class="cls-9" x="2124.7" y="1324.27" width="2.67" height="21.93"/><rect class="cls-9" x="2097.77" y="1324.27" width="2.67" height="21.93"/><rect class="cls-9" x="2072.56" y="1324.27" width="2.67" height="21.93"/><rect class="cls-9" x="2050.05" y="1324.27" width="2.67" height="21.93"/><rect class="cls-9" x="2187.34" y="1324.27" width="2.67" height="21.93"/><rect class="cls-9" x="2193.02" y="1324.27" width="2.67" height="21.93"/><rect class="cls-9" x="2198.51" y="1324.27" width="2.67" height="21.93"/><path class="cls-9" d="M2205.3,1324.34v21.77a6.43,6.43,0,0,1-1,.08h-1.67v-21.93h1.67A6.43,6.43,0,0,1,2205.3,1324.34Z"/><path class="cls-9" d="M2209,1326.37v17.71a5.68,5.68,0,0,1-2.67,1.79v-21.28A5.66,5.66,0,0,1,2209,1326.37Z"/><path class="cls-8" d="M2227.25,1307.62V1320a4.22,4.22,0,0,1-1,2.66,5.61,5.61,0,0,1-2.67,1.79,5.83,5.83,0,0,1-1,.24,6.53,6.53,0,0,1-1,.08H1986.71a6.44,6.44,0,0,1-2.54-.51,4.87,4.87,0,0,1-3.12-3.82c0-.06,0-.13,0-.2v-12.87c.14-2.32,2.29-4.22,5-4.49.22,0,.44,0,.67,0h234.86a6.54,6.54,0,0,1,1,.07,5.85,5.85,0,0,1,1,.25,5.66,5.66,0,0,1,2.67,1.78A4.27,4.27,0,0,1,2227.25,1307.62Z"/><path class="cls-9" d="M2111.92,1324.77H1986.1a5.17,5.17,0,0,1-2.26-.51,4.81,4.81,0,0,1-2.79-3.82c0-.06,0-.13,0-.2v-12.87a4.93,4.93,0,0,1,4.47-4.49q.3,0,.6,0h110.37v0a38.43,38.43,0,0,0,14.72,21.38Z"/><rect class="cls-9" x="2196" y="1302.85" width="2.67" height="21.93"/><rect class="cls-9" x="2186.97" y="1302.85" width="2.67" height="21.93"/><rect class="cls-9" x="2176.13" y="1302.85" width="2.67" height="21.93"/><rect class="cls-9" x="2159.53" y="1302.85" width="2.67" height="21.93"/><rect class="cls-9" x="2141.96" y="1302.85" width="2.67" height="21.93"/><rect class="cls-9" x="2115.04" y="1302.85" width="2.67" height="21.93"/><rect class="cls-9" x="2089.83" y="1302.85" width="2.67" height="21.93"/><rect class="cls-9" x="2067.32" y="1302.85" width="2.67" height="21.93"/><rect class="cls-9" x="2204.61" y="1302.85" width="2.67" height="21.93"/><rect class="cls-9" x="2210.29" y="1302.85" width="2.67" height="21.93"/><rect class="cls-9" x="2215.77" y="1302.85" width="2.67" height="21.93"/><path class="cls-9" d="M2222.57,1302.92v21.77a6.53,6.53,0,0,1-1,.08h-1.67v-21.93h1.67A6.53,6.53,0,0,1,2222.57,1302.92Z"/><path class="cls-9" d="M2226.28,1305v17.71a5.68,5.68,0,0,1-2.67,1.79v-21.28A5.66,5.66,0,0,1,2226.28,1305Z"/><path class="cls-8" d="M2234.6,1285.73v12.38a4.24,4.24,0,0,1-1,2.66,5.75,5.75,0,0,1-2.67,1.79,5.83,5.83,0,0,1-1,.24l-.33,0H1994.06c-3,0-5.52-2-5.68-4.53v-12.87c.16-2.51,2.65-4.53,5.68-4.53h234.86a6.53,6.53,0,0,1,1,.08,5.09,5.09,0,0,1,1,.25,5.66,5.66,0,0,1,2.67,1.78A4.25,4.25,0,0,1,2234.6,1285.73Z"/><path class="cls-9" d="M2119.27,1302.88H1993.45a5,5,0,0,1-5.07-4.53v-12.87a5,5,0,0,1,5.07-4.53h110.37a38.49,38.49,0,0,0,15.4,21.9Z"/><rect class="cls-9" x="2203.36" y="1280.95" width="2.67" height="21.92"/><rect class="cls-9" x="2194.32" y="1280.95" width="2.67" height="21.92"/><rect class="cls-9" x="2183.48" y="1280.95" width="2.67" height="21.92"/><rect class="cls-9" x="2166.88" y="1280.95" width="2.67" height="21.92"/><rect class="cls-9" x="2149.31" y="1280.95" width="2.67" height="21.92"/><rect class="cls-9" x="2122.39" y="1280.95" width="2.67" height="21.92"/><rect class="cls-9" x="2097.18" y="1280.95" width="2.67" height="21.92"/><rect class="cls-9" x="2074.67" y="1280.95" width="2.67" height="21.93"/><rect class="cls-9" x="2211.96" y="1280.95" width="2.67" height="21.92"/><rect class="cls-9" x="2217.64" y="1280.95" width="2.67" height="21.92"/><rect class="cls-9" x="2223.12" y="1280.95" width="2.67" height="21.92"/><path class="cls-9" d="M2229.92,1281v21.77a6.53,6.53,0,0,1-1,.08h-1.67V1281h1.67A6.53,6.53,0,0,1,2229.92,1281Z"/><path class="cls-9" d="M2233.63,1283.06v17.71a5.75,5.75,0,0,1-2.67,1.79v-21.29A5.75,5.75,0,0,1,2233.63,1283.06Z"/><circle class="cls-10" cx="2124.09" cy="1133.32" r="146.4" transform="translate(-179.24 1833.9) rotate(-45)"/><circle class="cls-8" cx="2111.32" cy="1133.32" r="146.4" transform="translate(-182.99 1824.87) rotate(-45)"/><path class="cls-9" d="M2111.32,1268.44a133.39,133.39,0,1,1,94.32-39.07A132.54,132.54,0,0,1,2111.32,1268.44Zm0-258.82a125.43,125.43,0,1,0,125.43,125.43A125.58,125.58,0,0,0,2111.32,1009.62Z"/><path class="cls-9" d="M2129.69,1173.76a22,22,0,0,0-.32-7.74,16,16,0,0,0-3.27-6.43,30.55,30.55,0,0,0-6.55-5.78,81.36,81.36,0,0,0-10.15-5.69,210,210,0,0,1-18.74-10.29,66.85,66.85,0,0,1-14-11.41,39,39,0,0,1-8.27-13.9,44,44,0,0,1,3.56-33.33,37,37,0,0,1,10.34-11.49,46.2,46.2,0,0,1,14.8-7,61.38,61.38,0,0,1,18.47-2.14l2.61-22,17.7,2.1-2.65,22.29a55.51,55.51,0,0,1,16.66,7.08,41.88,41.88,0,0,1,18.64,26.75,55.71,55.71,0,0,1,.73,18.89l-32-3.79q1.45-12.33-3.29-19.09t-13.93-7.85a23.8,23.8,0,0,0-8.73.37,16.15,16.15,0,0,0-6.37,3.1,15.12,15.12,0,0,0-4.11,5.29,22.25,22.25,0,0,0-1.94,7,20.24,20.24,0,0,0,.28,7,15.13,15.13,0,0,0,3.14,6.16,30.26,30.26,0,0,0,6.61,5.78,102.05,102.05,0,0,0,10.55,6.1q10.24,5.28,18.54,10.53a67.41,67.41,0,0,1,13.95,11.5,41.79,41.79,0,0,1,4.62,47.49,36.66,36.66,0,0,1-10.37,11.37,44.72,44.72,0,0,1-14.88,6.78,66.74,66.74,0,0,1-18.57,2l-2.43,20.44-17.59-2.09,2.42-20.34a74.74,74.74,0,0,1-17.28-6.11,47.33,47.33,0,0,1-14.15-10.69,42.46,42.46,0,0,1-8.88-15.9q-2.94-9.32-1.47-21.64l32,3.79a31.93,31.93,0,0,0,.6,12.42,20.61,20.61,0,0,0,4.55,8.46,19.92,19.92,0,0,0,7.31,5,34,34,0,0,0,8.76,2.24,28.61,28.61,0,0,0,9.29-.25,19,19,0,0,0,7-2.92,15.29,15.29,0,0,0,4.64-5.13A18.64,18.64,0,0,0,2129.69,1173.76Z"/><g id="man"><path class="cls-15" d="M1615.92,681.22l-44,83.41-22.55-8.2,7.32,22.25-44.07,132.76S1488.29,742.76,1615.92,681.22Z"/><path class="cls-15" d="M1542.59,755s-48.61,179.2-53.29,350.2c0,0,40.32,14,103.65,2.93C1656.61,1096.9,1542.59,755,1542.59,755Z"/><path class="cls-16" d="M1309.84,1003.45c13-.25,31.41,1.36,37.48-5.27,6.88-7.53,15-6.42,15-6.42l-1.64-8.61-2-10.27s-.74-.94-3.42-.9c0,0-9.45.41-14-1.21-11-3.92-54.7,22.27-53.22,29.53C1288.65,1003,1304.28,1003.55,1309.84,1003.45Z"/><path class="cls-15" d="M1548.07,751.45S1474.24,904,1451.38,920.33s-104.3,51.77-104.3,51.77-2.14,5.07-.16,12.5c2.06,7.74,6.12,9.92,6.12,9.92s113.89-10.17,140.37-26.65,84.86-82.17,84.86-82.17Z"/><path class="cls-15" d="M1764.2,1606.57h43.7c5.5-3,10.4-9.83,11.95-20,2.14-14.07,17.91-21.75,21.33-33.27s-14.08-27.72-14.08-27.72l-2.92-3.77-3-3.91-29,6.83s-.72,6.91-1.16,15.71c-.31,6.35-.48,13.68-.12,20.12.85,15.35-4.3,31.89-17.94,34.88C1762.82,1597.61,1763.27,1603.6,1764.2,1606.57Z"/><path class="cls-15" d="M1510.57,1606.57h100c4.8-5.87,3-27.51,2.3-34.58-.15-1.42-.25-2.25-.25-2.25s-34.13-27.3-38.82-6.4c-.14.66-.31,1.3-.5,1.93-5.91,19.55-32.4,28.44-47.69,30.91C1515.61,1597.79,1511.93,1603,1510.57,1606.57Z"/><path class="cls-17" d="M1529.62,1048.71s5.18,64.66,11.27,142.37c8.28,105.58,18.23,235.26,19.22,259.83,1.7,42.66,8.53,110.89,8.53,110.89s16.2,16.22,48.62,9.38c0,0,28.9-97.41,37.15-200.47.13-1.69.26-3.4.38-5.1,7.68-104.92,19.62-325.86,19.62-325.86Z"/><path class="cls-18" d="M1529.62,1048.71s5.18,64.66,11.27,142.37l113.52,179.63c.13-1.69.26-3.4.38-5.1,7.68-104.92,19.62-325.86,19.62-325.86Z"/><path class="cls-17" d="M1553.28,1056.39s93.41,234.15,154.83,344.19,80.61,140.75,80.61,140.75,35.18-14.07,38.38-23.67c0,0-23.48-212.44-64.61-264.22-23.24-29.26-50.55-117.08-51.83-147.79s-8.31-91.49-8.31-91.49Z"/><path class="cls-19" d="M1576.53,715c36.5,11.52,99.66-19.56,99.66-19.56s-33.65-25.26-31.89-77.78l-28.22,22.75-19.17,15.44a230.53,230.53,0,0,0,2.17,25.07q.57,4.37,1.36,9.41a6.77,6.77,0,0,1-3.06,6.81A86.35,86.35,0,0,0,1576.53,715Z"/><path class="cls-3" d="M1525.59,1054.1a5.91,5.91,0,0,0,3.84,1.46c13.7-.19,53.67,7.43,87.49,4,28.51-2.74,53.75-11.18,80.85-23.33,3.6-1.61,11.88-6,11.7-10-.13-4.41-.56-10.8-1.11-18.84-1.92-28-5.26-76.09-2-131.59.58-10.34.89-20.59.93-30.69.28-75.22-14.64-141.39-44.62-163.79,0,0-20.9,11.73-35.36,16.35-14.17,4.53-21.48,3.62-28.83-1.25,0,0-14.31,7.11-20.43,13.78-14.16,15.44-25.22,35.94-32.53,65.36-6.22,25-12,61.55-14.06,108.34C1530.55,905,1524.68,1053.36,1525.59,1054.1Z"/><path class="cls-20" d="M1702.85,805.52l-40.18-124.3s-96.46,36.38-100.92,172.59c-1.76,31-9.2,158.24,4.26,263.65,0,0,75.16,29.28,167.29-28.5Z"/><path class="cls-21" d="M1596.91,655.89a230.53,230.53,0,0,0,2.17,25.07c21.24-3.64,45.34-38,45.34-38-10.82-3.12-20.29-3.68-28.34-2.53Z"/><path class="cls-19" d="M1581.1,654.92s65.74,10.92,71.91-30.13,18.82-67.28-22.9-76-52.24,5.72-57.63,18.92S1564.16,651,1581.1,654.92Z"/><path class="cls-15" d="M1869.58,1185.91,1735.35,1205a32.18,32.18,0,0,1-36.29-27.24l-8.29-58.17a32.18,32.18,0,0,1,27.23-36.29l134.24-19.13a32.17,32.17,0,0,1,36.28,27.24l8.29,58.17A32.17,32.17,0,0,1,1869.58,1185.91Z"/><path class="cls-20" d="M1708.46,1117.07l8.38,58.84a32.28,32.28,0,0,0,19,24.93,32,32,0,0,0,10.46,2.64h0a31.59,31.59,0,0,0,7-.22l134-19.1a32.3,32.3,0,0,0,27.34-36.42l-8.38-58.85a32.31,32.31,0,0,0-36.43-27.34l-46.14,6.58-1.78-12.55a10.63,10.63,0,0,0-12-9l-5.06.71-28.06,4-7,1a10.64,10.64,0,0,0-9,12l1.79,12.55-26.73,3.8a31.46,31.46,0,0,0-3.1.61h0a32.36,32.36,0,0,0-22.24,19.43h0A31.94,31.94,0,0,0,1708.46,1117.07Zm108.6-48-48,6.84-1.78-12.55a4,4,0,0,1,3.37-4.49l12-1.71,22.08-3.16,6-.84a4,4,0,0,1,1.2,0,4,4,0,0,1,3.29,3.36Z"/><path class="cls-19" d="M1767.5,1012.7s7,9.39,7.33,13.15c1.9,25.43-9.72,28.94,20.36,43.07,0,0,12.85,4.9,13.06-5.07s-8.91-10.14-7.24-24.1c1.93-16.1,1.73-16.25-8.84-24.66l-7-11.56Z"/><path class="cls-20" d="M1785.43,1019.9a103.3,103.3,0,0,1-23.62,1.32s-33.65-104-38-113.44-99.94-121.88-99.94-121.88l38.78-104.68s22.75,13.32,46.8,54.81c29.7,51.25,62.36,133.8,68.17,147.21,17.35,40.11,23.37,130,23.37,130A43.26,43.26,0,0,1,1785.43,1019.9Z"/><path class="cls-20" d="M1653.07,620.84s-6.75-1.12-5.66-10.42,1.07-21.43-6.48-19.17-7.93,8.31-11,4.78-3.16-18.42-25.64-19.45-31.62,6.79-42.07,2.19-11-20.42-11-20.42,3,5.65,7.47,7.45c0,0-17.44-23.86,2.75-40.21s40.78-5.65,52.47-5c25.74,1.56,42.38,3.11,50.79,20S1669.59,604.56,1653.07,620.84Z"/><path class="cls-19" d="M1778.62,1023.89s-6.79,7.07-7.21,10c-1.38,9.45-4.54,13.53-3,14.56,3.28,2.13,7.64-4.86,9.71-11.14S1778.62,1023.89,1778.62,1023.89Z"/><path class="cls-15" d="M1662.67,681.22l-44,83.41-22.55-8.2,7.32,22.25-44.07,132.76S1535,742.76,1662.67,681.22Z"/></g><path class="cls-3" d="M1576.53,631.63s2.56,6.76,9,7,11.33-6,11.33-6S1582.94,629.32,1576.53,631.63Z"/><path class="cls-17" d="M1233.5,1260.87,1367,1229.94a32.5,32.5,0,0,0,24.27-38.9l-13.4-57.85a32.52,32.52,0,0,0-38.91-24.27l-133.48,30.93a32.51,32.51,0,0,0-24.27,38.9l13.4,57.85A32.53,32.53,0,0,0,1233.5,1260.87Z"/><path class="cls-18" d="M1352.41,1122.5h0a32.67,32.67,0,0,0-28-10.19h0c-1,.14-2.09.32-3.14.56l-26.58,6.17-2.9-12.48a10.74,10.74,0,0,0-12.88-8l-6.94,1.6-27.9,6.47-5,1.17a10.75,10.75,0,0,0-8,12.88l2.89,12.48-45.88,10.63a32.65,32.65,0,0,0-24.36,39l13.56,58.52a32.65,32.65,0,0,0,39,24.36l133.25-30.87a31.55,31.55,0,0,0,6.67-2.34h0a32.06,32.06,0,0,0,8.89-6.3,32.61,32.61,0,0,0,8.78-30.41l-13.55-58.51A32.31,32.31,0,0,0,1352.41,1122.5Zm-114.92-3.39a4,4,0,0,1,1.88-4.36,4.11,4.11,0,0,1,1.12-.45l5.93-1.37,22-5.09,12-2.77a4,4,0,0,1,4.81,3l2.89,12.49-47.68,11Z"/><path class="cls-19" d="M1264.88,1047.21s-4,14.3-2.65,18.85c9.37,30.87,25.59,51.08-18,45.86,0,0,1.81-1.78-6.54-17.49-9.62-18.12-9.46-18.39-.83-33.13l3-16.85Z"/><path class="cls-19" d="M1319.72,1010.45c-13.16-.8-29.2-4.24-35-11.2-6.63-7.89-13.24-10-13.24-10l2-8.61,2.42-10.29s.79-.91,3.49-.77c0,0,10.32,2.34,14.15-.63s10.84-1.15,15.15,1.71c5.49,3.65,12.89,3.06,12.71,4.84,0,0-10.88,5.35-9.86,6.25,10,8.84,36.19,12.36,34.49,19.27C1345.33,1003.73,1325.32,1010.79,1319.72,1010.45Z"/><path class="cls-19" d="M1136.33,674.25l0,7.15s2,22.38-25.6,25.64-50.14,2.85-49.39-14.42c2.48-13.36,6.92-34.11,7.11-45.17a77.31,77.31,0,0,0-1-13.4l53.38-1.06,15.72,2.57Z"/><path class="cls-16" d="M1136.53,635.56l-.2,38.69a45.1,45.1,0,0,1-19.24,4.25c-24.54,0-40.39-18-48.68-31a77.31,77.31,0,0,0-1-13.4l53.38-1.06Z"/><path class="cls-19" d="M1063.34,625.46c6.19,33.34,49.2,32.24,67.79,30.15,5.23-.59,8.52-1.25,8.52-1.25,5.9-1.58,9.19-10.87,10.72-23,3-24.08-.8-59.43-4.87-68.47-6.12-13.6-17.65-28.32-61-17.7S1055.39,582.76,1063.34,625.46Z"/><path class="cls-15" d="M1028.15,1612.33h60.94a146.83,146.83,0,0,0-4.86-21.88,62.23,62.23,0,0,0-3.45-8.78c-5.93-11.83-43.58-4.31-43.58-4.31s-3.49,3-6.22,14.45A120.61,120.61,0,0,0,1028.15,1612.33Z"/><path class="cls-15" d="M1212.32,1593.09c.16,8.29,1.21,16.14,4.21,19.24h120.55c-1.53-4.36-5.87-10.92-18.24-12.93-14.07-2.28-36-9.05-48.79-22.58a36.32,36.32,0,0,1-9.44-17.1c-5.67-25.25-46.9,7.73-46.9,7.73A204.34,204.34,0,0,0,1212.32,1593.09Z"/><path class="cls-20" d="M1132.14,1320.14a191.31,191.31,0,0,1,3,22.27c3.83,74.75,62.92,245.66,73.49,249.65,16.36,6.17,42.11-7,55.58-11.24,5.59-1.78,9.36-7.42,8.11-13.13-29.26-134.52-40-328.24-43.93-442.93-2-57.77-11.89-97.67-11.89-97.67s-144.12-38.45-145,10.19C1070.79,1080.32,1119.28,1249.13,1132.14,1320.14Z"/><path class="cls-15" d="M1132.14,1320.14l96.27-195.38c-2-57.77-11.89-97.67-11.89-97.67s-144.12-38.45-145,10.19C1070.79,1080.32,1119.28,1249.13,1132.14,1320.14Z"/><path class="cls-20" d="M1164.2,1037.45,1088,1589.64s-33.45,8.07-59.48,1.61c0,0-22.3-293.68-20.44-364.68s-16-190,4.07-203.1S1164.2,1037.45,1164.2,1037.45Z"/><path class="cls-15" d="M1147.17,568.07c-11.9,3.75-37.07-.08-47.59,8.43s-.5,22.55-12.52,27.55l0,0a5.93,5.93,0,0,1-6.91-1.73c-3.33-4.16-7.93-8.3-12.14-6.58-3.46,1.41-3.63,5.88-2.11,10.21a12.1,12.1,0,0,1-1.29,10.92,5.91,5.91,0,0,0-1.31,4.39c1,5.51,3.73,12.66,4.73,16.32l.28,3.84s-20.15-21.81-28.63-40.15c-5.82-12.59-5.7-59.65,22.77-73.4a1.12,1.12,0,0,1-.27-.31c-.61-1.1-2.33-.85-2.33-.85,2.45-1.1,6.25-.4,6.25-.4s.07-.24.41-.5c.5-3.33,3.85-5.71,3.85-5.71a11.1,11.1,0,0,0-1.82,4.5c7.48-3.94,30.5-12.68,48.75-4.73a152.62,152.62,0,0,0,31.35,9.71,13.07,13.07,0,0,1,10.59,13.32C1158.84,552,1155.7,565,1147.17,568.07Z"/><path class="cls-22" d="M1054.8,702.22l17.54,376.37s146.4,2.39,142.22-30.74-52.77-334.11-52.77-334.11"/><path class="cls-23" d="M1103.06,938s-7.43,100.52-21.71,163.63c0,0-85.43,4.54-105.71-28.45,0,0,16.05-135.8,16.05-163.34,0-9.68-.74-22.85-1.92-37.56-1.78-22.29-4.54-48.1-7.15-70.59-3.64-31.32-7-56.21-7-56.21l70.44-57.24Z"/><path class="cls-23" d="M1272.58,1056.92s-15.94,10-41,6.63c-9.13,22.4-30.68,30-30.68,28,0-.25-4.84-42.32-10.55-91.9q-.86-7.42-1.73-15c0-.43-.1-.86-.15-1.29-1-8.31-1.92-16.71-2.89-25.07-6.88-59.71-13.48-117-13.48-117-15-91.7-27.67-152.31-27.67-152.31,32,3.32,53.53,14.71,62.14,29.62,25.51,44.21,44,154.8,54.8,237.58,0,.21.05.42.08.63,1.86,14.29,3.5,27.75,4.9,39.87.09.76.17,1.51.25,2.25C1270.55,1033.62,1272.58,1056.92,1272.58,1056.92Z"/><path class="cls-3" d="M1124.37,631s1.39,4.3,12.24,2.73c0,0,9.11-1.32,8.44-6.11C1145.05,627.57,1135.89,624.86,1124.37,631Z"/><path class="cls-24" d="M1050.65,687.77c-.18-3.59,16.84-8.55,16.84-8.55s19.47,27,51.55,27.46c0,0-9.14,17.8-19.92,22.4C1099.12,729.08,1051.71,709.1,1050.65,687.77Z"/><path class="cls-24" d="M1119,706.05s17-10.07,17.06-21c0,0,11-1.37,15.77,4,0,0,4,18.72-1.32,29.59C1150.55,718.59,1126.08,714.87,1119,706.05Z"/><path class="cls-25" d="M1107.5,704.43l23-5.52s3,.26,2.93,4-6.49,14.73-9.33,15.6S1102.05,712,1107.5,704.43Z"/><path class="cls-22" d="M1053.34,685.92c-.18-3.59,11.33-11,11.33-11S1087,701,1119,701.44c0,0-9.14,17.79-19.92,22.4C1099.12,723.84,1054.4,707.25,1053.34,685.92Z"/><path class="cls-22" d="M1119,701.44s17.19-9.11,17.25-20c0,0,10.37,4.57,15.17,9.89,0,0,4.44,11.82-.91,22.69C1150.55,714,1126.08,710.25,1119,701.44Z"/><path class="cls-26" d="M1161.17,1017c-.89,10.79-5,20.89-11.59,28.3L1139.25,1057a5.26,5.26,0,0,1-8.74-.76l-12.46-19.55a29.91,29.91,0,0,1-4.29-18.6c1.32-14.92,3.81-43.67,5.84-71.41,1.65-22.47,3-44.3,3.23-57.58.69-42.38-4.87-177.44-4.87-177.44l8.29.43s20.07,52.21,30.16,123.46c2.49,17.54,4.36,36.22,5.19,55.58C1161.6,891.12,1165.18,968.25,1161.17,1017Z"/><path class="cls-25" d="M1161.17,1017c-.89,10.79-5,20.89-11.59,28.3L1139.25,1057a5.26,5.26,0,0,1-8.74-.76l-12.46-19.55a29.91,29.91,0,0,1-4.29-18.6c1.32-14.92,3.81-43.67,5.84-71.41,23.21-31.81,32.91-75.51,36.81-111.13,2.49,17.54,4.36,36.22,5.19,55.58C1161.6,891.12,1165.18,968.25,1161.17,1017Z"/><path class="cls-15" d="M1064.67,674.93S1110.3,866,1103,938c0,0-16.78-76.93-57.15-139.94,0,0,14.73-13,13.93-17.73,0,0-10.93-3.25-21.54-1.06,0,0,1.17-82.38,7.79-91.08S1064.67,674.93,1064.67,674.93Z"/><path class="cls-15" d="M1136.29,681.4c-6.84.56,45.22,186.75,49.07,246.43,0,0-4.57-106.5-4.12-137.19,0,0-19-10-19-13.56s20.22-13,20.22-13-12.81-65.59-19.79-72.82S1136.29,681.4,1136.29,681.4Z"/><path class="cls-19" d="M1231.58,1071.12s-3.16,4.28-1.15,15,.9,16.67,3.67,14.82,8.52-14.75,8.52-14.75Z"/><path class="cls-15" d="M1097.49,967.43c-53.12-7.93-88.64-57.58-107.72-95.17-1.78-22.29-4.54-48.1-7.15-70.59L995,766.21Z"/><path class="cls-15" d="M1266.56,998.93c-10.57,2.45-42.66,8.44-76.25.71q-.86-7.42-1.73-15c0-.43-.1-.86-.15-1.29,1.1-4.31,2.22-8.63,3.32-12.94,19,6.81,61.49,21.72,74.56,26.31C1266.4,997.44,1266.48,998.19,1266.56,998.93Z"/><path class="cls-23" d="M1046.07,688.21s-46.68,5.89-68,35.63,24.45,191.71,119.41,243.58C1143.16,992.37,1275,998,1275,998s7.24.73,10.11-13.86c1-5.08,0-13.76,0-13.76s-150-56.25-163.21-67.08S1046.07,688.21,1046.07,688.21Z"/><path class="cls-16" d="M1341.32,970.77s-15.7-3.94-20.19-4.88c-5.26-1.11-10.06-5.07-11.6-3.2-2.85,3.45,9.17,9.54,13.91,20.23,2.33,5.24,7,8.1,16.39,4.24C1344.57,985.22,1348.33,975.42,1341.32,970.77Z"/><circle class="cls-5" cx="1854.48" cy="587.24" r="68.16" transform="translate(-32.91 116.37) rotate(-3.56)"/><path class="cls-3" d="M1832.6,559.89a21.88,21.88,0,1,1,21.88,21.88A21.88,21.88,0,0,1,1832.6,559.89Z"/><path class="cls-3" d="M1854.48,581.77a38.28,38.28,0,0,0-38.29,38.28h76.57A38.28,38.28,0,0,0,1854.48,581.77Z"/><circle class="cls-27" cx="1350.67" cy="405.9" r="45.98" transform="translate(645.31 1627.18) rotate(-76.72)"/><path class="cls-3" d="M1335.91,387.45a14.76,14.76,0,1,1,14.76,14.76A14.76,14.76,0,0,1,1335.91,387.45Z"/><path class="cls-3" d="M1350.67,402.21A25.82,25.82,0,0,0,1324.84,428h51.65A25.82,25.82,0,0,0,1350.67,402.21Z"/><path class="cls-5" d="M1678.54,175a4,4,0,1,1,2.65,5A4,4,0,0,1,1678.54,175Z"/><path class="cls-5" d="M1696.24,180.48a4,4,0,1,1,2.65,5A4,4,0,0,1,1696.24,180.48Z"/><path class="cls-5" d="M1716.83,191a4,4,0,1,1,5-2.65A4,4,0,0,1,1716.83,191Z"/><path class="cls-5" d="M1732.12,191.52a4,4,0,1,1,2.64,5A4,4,0,0,1,1732.12,191.52Z"/><path class="cls-5" d="M1749.82,197a4,4,0,1,1,2.65,5A4,4,0,0,1,1749.82,197Z"/><path class="cls-5" d="M1770.41,207.49a4,4,0,1,1,5-2.65A4,4,0,0,1,1770.41,207.49Z"/><path class="cls-5" d="M1785,207.78a4,4,0,1,1,2.64,5A4,4,0,0,1,1785,207.78Z"/><path class="cls-5" d="M1802.68,213.23a4,4,0,1,1,2.65,5A4,4,0,0,1,1802.68,213.23Z"/><path class="cls-5" d="M1823.27,223.75a4,4,0,1,1,5-2.65A4,4,0,0,1,1823.27,223.75Z"/><path class="cls-5" d="M1838.55,224.27a4,4,0,1,1,2.65,5A4,4,0,0,1,1838.55,224.27Z"/><path class="cls-5" d="M1856.26,229.71a4,4,0,1,1,2.65,5A4,4,0,0,1,1856.26,229.71Z"/><path class="cls-5" d="M1876.84,240.24a4,4,0,1,1,5-2.65A4,4,0,0,1,1876.84,240.24Z"/><path class="cls-5" d="M1892.18,240.77a4,4,0,1,1,2.65,5A4,4,0,0,1,1892.18,240.77Z"/><path class="cls-5" d="M1909.88,246.21a4,4,0,1,1,2.65,5A4,4,0,0,1,1909.88,246.21Z"/><path class="cls-5" d="M1930.47,256.73a4,4,0,1,1,5-2.64A4,4,0,0,1,1930.47,256.73Z"/><path class="cls-5" d="M1945.76,257.25a4,4,0,1,1,2.65,5A4,4,0,0,1,1945.76,257.25Z"/><path class="cls-5" d="M1963.46,262.7a4,4,0,1,1,2.65,5A4,4,0,0,1,1963.46,262.7Z"/><path class="cls-5" d="M1984.05,273.22a4,4,0,1,1,5-2.65A4,4,0,0,1,1984.05,273.22Z"/><path class="cls-5" d="M1998.62,273.52a4,4,0,1,1,2.65,5A4,4,0,0,1,1998.62,273.52Z"/><path class="cls-5" d="M2016.32,279a4,4,0,1,1,2.65,5A4,4,0,0,1,2016.32,279Z"/><path class="cls-5" d="M2036.91,289.48a4,4,0,1,1,5-2.64A4,4,0,0,1,2036.91,289.48Z"/><path class="cls-5" d="M2052.2,290a4,4,0,1,1,2.65,5A4,4,0,0,1,2052.2,290Z"/><path class="cls-5" d="M2069.9,295.45a4,4,0,1,1,2.65,5A4,4,0,0,1,2069.9,295.45Z"/><path class="cls-5" d="M2090.49,306a4,4,0,1,1,5-2.65A4,4,0,0,1,2090.49,306Z"/><path class="cls-5" d="M1902.24,517.5a4,4,0,1,1,5.59-.86A4,4,0,0,1,1902.24,517.5Z"/><path class="cls-5" d="M1913.18,502.56a4,4,0,1,1,5.6-.86A4,4,0,0,1,1913.18,502.56Z"/><path class="cls-5" d="M1929.87,486.56a4,4,0,1,1-.86-5.6A4,4,0,0,1,1929.87,486.56Z"/><path class="cls-5" d="M1935.37,472.28a4,4,0,1,1,5.59-.86A4,4,0,0,1,1935.37,472.28Z"/><path class="cls-5" d="M1946.31,457.34a4,4,0,1,1,5.6-.87A4,4,0,0,1,1946.31,457.34Z"/><path class="cls-5" d="M1963,441.33a4,4,0,1,1-.87-5.59A4,4,0,0,1,1963,441.33Z"/><path class="cls-5" d="M1968.52,427a4,4,0,1,1,5.6-.86A4,4,0,0,1,1968.52,427Z"/><path class="cls-5" d="M1979.47,412.08a4,4,0,1,1,5.59-.87A4,4,0,0,1,1979.47,412.08Z"/><path class="cls-5" d="M1996.15,396.07a4,4,0,1,1-.86-5.59A4,4,0,0,1,1996.15,396.07Z"/><path class="cls-5" d="M2001.65,381.8a4,4,0,1,1,5.59-.87A4,4,0,0,1,2001.65,381.8Z"/><path class="cls-5" d="M2012.59,366.85a4,4,0,1,1,5.6-.86A4,4,0,0,1,2012.59,366.85Z"/><path class="cls-5" d="M2029.28,350.85a4,4,0,1,1-.86-5.59A4,4,0,0,1,2029.28,350.85Z"/><path class="cls-5" d="M2034.33,337.18a4,4,0,1,1,5.6-.86A4,4,0,0,1,2034.33,337.18Z"/><path class="cls-5" d="M2045.28,322.24a4,4,0,1,1,5.59-.86A4,4,0,0,1,2045.28,322.24Z"/><path class="cls-5" d="M2062,306.24a4,4,0,1,1-.86-5.6A4,4,0,0,1,2062,306.24Z"/><path class="cls-5" d="M2067.46,292a4,4,0,1,1,5.59-.86A4,4,0,0,1,2067.46,292Z"/><path class="cls-5" d="M2078.41,277a4,4,0,1,1,5.59-.87A4,4,0,0,1,2078.41,277Z"/><path class="cls-5" d="M2095.09,261a4,4,0,1,1-.86-5.59A4,4,0,0,1,2095.09,261Z"/><path class="cls-5" d="M1935.37,580.23a4,4,0,1,1,4.59,3.3A4,4,0,0,1,1935.37,580.23Z"/><path class="cls-5" d="M1953.65,577.24a4,4,0,1,1,4.59,3.3A4,4,0,0,1,1953.65,577.24Z"/><path class="cls-5" d="M1976.76,577.5a4,4,0,1,1,3.31-4.6A4,4,0,0,1,1976.76,577.5Z"/><path class="cls-5" d="M1990.69,571.16a4,4,0,1,1,4.59,3.31A4,4,0,0,1,1990.69,571.16Z"/><path class="cls-5" d="M2009,568.17a4,4,0,1,1,4.6,3.3A4,4,0,0,1,2009,568.17Z"/><path class="cls-5" d="M2032.08,568.43a4,4,0,1,1,3.31-4.59A4,4,0,0,1,2032.08,568.43Z"/><path class="cls-5" d="M2046.05,562.09a4,4,0,1,1,4.6,3.3A4,4,0,0,1,2046.05,562.09Z"/><path class="cls-5" d="M2064.33,559.09a4,4,0,1,1,4.6,3.3A4,4,0,0,1,2064.33,559.09Z"/><path class="cls-5" d="M2087.45,559.36a4,4,0,1,1,3.3-4.6A4,4,0,0,1,2087.45,559.36Z"/><path class="cls-5" d="M2101.37,553a4,4,0,1,1,4.6,3.3A4,4,0,0,1,2101.37,553Z"/><path class="cls-5" d="M2119.65,550a4,4,0,1,1,4.6,3.31A4,4,0,0,1,2119.65,550Z"/><path class="cls-5" d="M2142.77,550.29a4,4,0,1,1,3.3-4.6A4,4,0,0,1,2142.77,550.29Z"/><path class="cls-5" d="M2156,544.07a4,4,0,1,1,4.6,3.31A4,4,0,0,1,2156,544.07Z"/><path class="cls-5" d="M2174.23,541.08a4,4,0,1,1,4.6,3.3A4,4,0,0,1,2174.23,541.08Z"/><path class="cls-5" d="M2197.35,541.34a4,4,0,1,1,3.3-4.59A4,4,0,0,1,2197.35,541.34Z"/><path class="cls-5" d="M2211.27,535a4,4,0,1,1,4.6,3.3A4,4,0,0,1,2211.27,535Z"/><path class="cls-5" d="M2229.55,532a4,4,0,1,1,4.6,3.3A4,4,0,0,1,2229.55,532Z"/><path class="cls-5" d="M2252.66,532.28a4,4,0,1,1,3.31-4.6A4,4,0,0,1,2252.66,532.28Z"/><path class="cls-5" d="M1830.15,507.22a4,4,0,1,1,2.6-5A4,4,0,0,1,1830.15,507.22Z"/><path class="cls-5" d="M1824.51,489.57a4,4,0,1,1,2.6-5A4,4,0,0,1,1824.51,489.57Z"/><path class="cls-5" d="M1821.39,466.66a4,4,0,1,1-5-2.59A4,4,0,0,1,1821.39,466.66Z"/><path class="cls-5" d="M1813.08,453.82a4,4,0,1,1,2.6-5A4,4,0,0,1,1813.08,453.82Z"/><path class="cls-5" d="M1807.44,436.18a4,4,0,1,1,2.6-5A4,4,0,0,1,1807.44,436.18Z"/><path class="cls-5" d="M1804.32,413.27a4,4,0,1,1-5-2.6A4,4,0,0,1,1804.32,413.27Z"/><path class="cls-5" d="M1796,400.38a4,4,0,1,1,2.59-5A4,4,0,0,1,1796,400.38Z"/><path class="cls-5" d="M1790.36,382.74a4,4,0,1,1,2.59-5A4,4,0,0,1,1790.36,382.74Z"/><path class="cls-5" d="M1787.24,359.83a4,4,0,1,1-5-2.6A4,4,0,0,1,1787.24,359.83Z"/><path class="cls-5" d="M1778.93,347a4,4,0,1,1,2.59-5A4,4,0,0,1,1778.93,347Z"/><path class="cls-5" d="M1773.29,329.34a4,4,0,1,1,2.59-5A4,4,0,0,1,1773.29,329.34Z"/><path class="cls-5" d="M1770.17,306.43a4,4,0,1,1-5-2.59A4,4,0,0,1,1770.17,306.43Z"/><path class="cls-5" d="M1762.09,294.3a4,4,0,1,1,2.59-5A4,4,0,0,1,1762.09,294.3Z"/><path class="cls-5" d="M1756.45,276.66a4,4,0,1,1,2.59-5A4,4,0,0,1,1756.45,276.66Z"/><path class="cls-5" d="M1753.33,253.75a4,4,0,1,1-5-2.59A4,4,0,0,1,1753.33,253.75Z"/><path class="cls-5" d="M1745,240.91a4,4,0,1,1,2.59-5A4,4,0,0,1,1745,240.91Z"/><path class="cls-5" d="M1739.38,223.26a4,4,0,1,1,2.59-5A4,4,0,0,1,1739.38,223.26Z"/><path class="cls-5" d="M1736.26,200.36a4,4,0,1,1-5-2.6A4,4,0,0,1,1736.26,200.36Z"/><path class="cls-5" d="M1376.27,383.45a4,4,0,1,1,5.57,1A4,4,0,0,1,1376.27,383.45Z"/><path class="cls-5" d="M1391.52,372.93a4,4,0,1,1,5.57,1A4,4,0,0,1,1391.52,372.93Z"/><path class="cls-5" d="M1412.53,363.29a4,4,0,1,1,1-5.57A4,4,0,0,1,1412.53,363.29Z"/><path class="cls-5" d="M1422.41,351.61a4,4,0,1,1,5.57,1A4,4,0,0,1,1422.41,351.61Z"/><path class="cls-5" d="M1437.65,341.09a4,4,0,1,1,5.57,1A4,4,0,0,1,1437.65,341.09Z"/><path class="cls-5" d="M1458.67,331.45a4,4,0,1,1,1-5.57A4,4,0,0,1,1458.67,331.45Z"/><path class="cls-5" d="M1468.58,319.74a4,4,0,1,1,5.57,1A4,4,0,0,1,1468.58,319.74Z"/><path class="cls-5" d="M1483.83,309.21a4,4,0,1,1,5.57,1A4,4,0,0,1,1483.83,309.21Z"/><path class="cls-5" d="M1504.84,299.58a4,4,0,1,1,1-5.57A4,4,0,0,1,1504.84,299.58Z"/><path class="cls-5" d="M1514.72,287.89a4,4,0,1,1,5.57,1A4,4,0,0,1,1514.72,287.89Z"/><path class="cls-5" d="M1530,277.37a4,4,0,1,1,5.57,1A4,4,0,0,1,1530,277.37Z"/><path class="cls-5" d="M1551,267.73a4,4,0,1,1,1-5.57A4,4,0,0,1,1551,267.73Z"/><path class="cls-5" d="M1560.23,256.48a4,4,0,1,1,5.57,1A4,4,0,0,1,1560.23,256.48Z"/><path class="cls-5" d="M1575.48,246a4,4,0,1,1,5.57,1A4,4,0,0,1,1575.48,246Z"/><path class="cls-5" d="M1596.49,236.31a4,4,0,1,1,1-5.56A4,4,0,0,1,1596.49,236.31Z"/><path class="cls-5" d="M1606.37,224.63a4,4,0,1,1,5.57,1A4,4,0,0,1,1606.37,224.63Z"/><path class="cls-5" d="M1621.61,214.11a4,4,0,1,1,5.57,1A4,4,0,0,1,1621.61,214.11Z"/><path class="cls-5" d="M1642.63,204.47a4,4,0,1,1,1-5.57A4,4,0,0,1,1642.63,204.47Z"/><path class="cls-5" d="M2141.62,328.71a4,4,0,1,1-.12,5.66A4,4,0,0,1,2141.62,328.71Z"/><path class="cls-5" d="M2154.44,342.08a4,4,0,1,1-.12,5.66A4,4,0,0,1,2154.44,342.08Z"/><path class="cls-5" d="M2167.3,361.29a4,4,0,1,1,5.66.12A4,4,0,0,1,2167.3,361.29Z"/><path class="cls-5" d="M2180.4,369.19a4,4,0,1,1-.12,5.66A4,4,0,0,1,2180.4,369.19Z"/><path class="cls-5" d="M2193.22,382.56a4,4,0,1,1-.12,5.66A4,4,0,0,1,2193.22,382.56Z"/><path class="cls-5" d="M2206.08,401.77a4,4,0,1,1,5.66.12A4,4,0,0,1,2206.08,401.77Z"/><path class="cls-5" d="M2219.22,409.7a4,4,0,1,1-.12,5.66A4,4,0,0,1,2219.22,409.7Z"/><path class="cls-5" d="M2232,423.07a4,4,0,1,1-.12,5.66A4,4,0,0,1,2232,423.07Z"/><path class="cls-5" d="M2244.9,442.28a4,4,0,1,1,5.66.13A4,4,0,0,1,2244.9,442.28Z"/><path class="cls-5" d="M2258,450.18a4,4,0,1,1-.12,5.66A4,4,0,0,1,2258,450.18Z"/><path class="cls-5" d="M2270.82,463.55a4,4,0,1,1-.13,5.66A4,4,0,0,1,2270.82,463.55Z"/><path class="cls-5" d="M2283.68,482.76a4,4,0,1,1,5.66.12A4,4,0,0,1,2283.68,482.76Z"/><circle class="cls-5" cx="1710.93" cy="180.21" r="56.65" transform="translate(1258.98 1840.18) rotate(-80.78)"/><path class="cls-3" d="M1692.75,157.48a18.18,18.18,0,1,1,18.18,18.19A18.18,18.18,0,0,1,1692.75,157.48Z"/><path class="cls-3" d="M1710.93,175.67a31.82,31.82,0,0,0-31.82,31.82h63.64A31.82,31.82,0,0,0,1710.93,175.67Z"/><circle class="cls-27" cx="2103.44" cy="280.14" r="87.29" transform="translate(1541.78 2326.47) rotate(-82.24)"/><circle class="cls-3" cx="2103.44" cy="245.12" r="28.02"/><path class="cls-3" d="M2103.44,273.13a49,49,0,0,0-49,49h98.06A49,49,0,0,0,2103.44,273.13Z"/><circle class="cls-5" cx="2321.97" cy="519.35" r="58.93" transform="translate(1576.35 2778.84) rotate(-84.34)"/><path class="cls-3" d="M2329,533.36a9,9,0,0,0-.46-3.19,6.78,6.78,0,0,0-1.63-2.52,12.57,12.57,0,0,0-3-2.11,33,33,0,0,0-4.45-1.92,87.74,87.74,0,0,1-8.2-3.46A27.5,27.5,0,0,1,2305,516a16.27,16.27,0,0,1-4-5.39,18.42,18.42,0,0,1,0-14,15.57,15.57,0,0,1,3.79-5.2,19.28,19.28,0,0,1,5.82-3.55,25.86,25.86,0,0,1,7.56-1.68l.14-9.21,7.41.1-.13,9.35a23,23,0,0,1,7.2,2.21,17.53,17.53,0,0,1,8.87,10.27,23.37,23.37,0,0,1,1.11,7.79l-13.4-.19c0-3.44-.67-6-2.18-7.76a7.8,7.8,0,0,0-6.1-2.65,9.62,9.62,0,0,0-3.6.53,6.81,6.81,0,0,0-2.51,1.55,6.32,6.32,0,0,0-1.47,2.37,9.48,9.48,0,0,0-.51,3,8.56,8.56,0,0,0,.43,2.89,6.16,6.16,0,0,0,1.56,2.41,12.75,12.75,0,0,0,3,2.11,43.67,43.67,0,0,0,4.63,2.07c3,1.16,5.7,2.35,8.13,3.56a27.92,27.92,0,0,1,6.27,4.17,16.48,16.48,0,0,1,4,5.42,18.45,18.45,0,0,1-.07,14,15.27,15.27,0,0,1-3.81,5.15,18.61,18.61,0,0,1-5.86,3.45,27.75,27.75,0,0,1-7.61,1.61l-.12,8.57-7.37-.11.12-8.52a31.09,31.09,0,0,1-7.41-1.79,19.69,19.69,0,0,1-6.32-3.82,17.4,17.4,0,0,1-4.36-6.2,21.24,21.24,0,0,1-1.54-8.89l13.39.19a13.13,13.13,0,0,0,.79,5.12,8.57,8.57,0,0,0,2.24,3.3,8.26,8.26,0,0,0,3.25,1.77,14.12,14.12,0,0,0,3.72.55,11.82,11.82,0,0,0,3.83-.5,8,8,0,0,0,2.78-1.51,6.44,6.44,0,0,0,1.71-2.33A7.6,7.6,0,0,0,2329,533.36Z"/></g></g></svg>