<svg fill="#33FF99" id="Capa_1" enable-background="new 0 0 512 512" height="512" viewBox="0 0 512 512" width="512" xmlns="http://www.w3.org/2000/svg"><g><g><path d="m476.22 10.1h-440.44c-19.729 0-35.78 16.055-35.78 35.79v307.09c0 19.729 16.051 35.78 35.78 35.78h150.462l-2.309 11.546c-3.632 18.164-12.476 34.688-25.575 47.786l-6.477 6.478h-29.221c-8.591 0-15.58 6.989-15.58 15.58v16.17c0 8.591 6.989 15.58 15.58 15.58h266.68c8.591 0 15.58-6.989 15.58-15.58v-16.17c0-8.591-6.989-15.58-15.58-15.58h-29.221l-6.477-6.478c-13.099-13.098-21.942-29.623-25.575-47.786l-2.309-11.546h63.712c4.142 0 7.5-3.358 7.5-7.5s-3.358-7.5-7.5-7.5h-353.69c-11.458 0-20.78-9.322-20.78-20.78v-307.09c0-11.464 9.322-20.79 20.78-20.79h440.44c11.458 0 20.78 9.326 20.78 20.79v307.09c0 11.458-9.322 20.78-20.78 20.78h-51.75c-4.142 0-7.5 3.358-7.5 7.5s3.358 7.5 7.5 7.5h51.75c19.729 0 35.78-16.051 35.78-35.78v-307.09c0-19.735-16.051-35.79-35.78-35.79zm-162.862 393.148c3.843 19.216 12.727 36.84 25.781 51.322h-104.459c-4.142 0-7.5 3.358-7.5 7.5s3.358 7.5 7.5 7.5h154.66c.32 0 .58.26.58.58v16.17c0 .32-.26.58-.58.58h-266.68c-.32 0-.58-.26-.58-.58v-16.17c0-.32.26-.58.58-.58h77.02c4.142 0 7.5-3.358 7.5-7.5s-3.358-7.5-7.5-7.5h-26.82c13.055-14.482 21.938-32.106 25.781-51.322l2.897-14.488h108.922z"/><path d="m112.557 107.077h-40.407c-4.142 0-7.5 3.358-7.5 7.5v202.033c0 4.142 3.358 7.5 7.5 7.5h40.407c4.142 0 7.5-3.358 7.5-7.5v-202.033c0-4.142-3.358-7.5-7.5-7.5zm-7.5 202.033h-25.407v-187.033h25.407z"/><path d="m479.675 348.935v-299.008c0-4.142-3.358-7.5-7.5-7.5h-432.35c-4.142 0-7.5 3.358-7.5 7.5v299.008c0 4.142 3.358 7.5 7.5 7.5h432.35c4.142 0 7.5-3.358 7.5-7.5zm-432.35-7.5v-251.685h80.055c4.142 0 7.5-3.358 7.5-7.5s-3.358-7.5-7.5-7.5h-80.055v-17.323h417.35v17.323h-302.295c-4.142 0-7.5 3.358-7.5 7.5s3.358 7.5 7.5 7.5h302.295v251.685z"/><path d="m439.85 107.077h-80.813c-4.142 0-7.5 3.358-7.5 7.5v181.83c0 4.142 3.358 7.5 7.5 7.5h80.813c4.142 0 7.5-3.358 7.5-7.5v-181.83c0-4.142-3.358-7.5-7.5-7.5zm-73.313 75.61h65.813v45.61h-65.813zm65.813-60.61v45.61h-65.813v-45.61zm-65.813 166.83v-45.61h65.813v45.61z"/><path d="m326.711 107.077h-181.829c-4.142 0-7.5 3.358-7.5 7.5v202.033c0 4.142 3.358 7.5 7.5 7.5h181.829c4.142 0 7.5-3.358 7.5-7.5v-202.033c0-4.142-3.357-7.5-7.5-7.5zm-7.5 15v17.325h-166.829v-17.325zm-166.829 187.033v-154.708h166.829v154.708z"/></g></g></svg>