<svg fill="#19FF66" id="Capa_1" enable-background="new 0 0 512 512" height="512" viewBox="0 0 512 512" width="512" xmlns="http://www.w3.org/2000/svg"><g><g><path d="m418.127 343.1c-3.562-2.112-8.163-.937-10.276 2.627-15.133 25.531-36.614 47.009-62.121 62.112-3.564 2.11-4.742 6.71-2.632 10.275 1.4 2.365 3.897 3.68 6.46 3.68 1.3 0 2.615-.337 3.814-1.047 27.668-16.383 50.969-39.679 67.383-67.371 2.111-3.564.935-8.165-2.628-10.276z"/><path d="m166.273 407.851c-25.531-15.133-47.009-36.614-62.112-62.121-2.11-3.564-6.711-4.743-10.275-2.632s-4.743 6.711-2.632 10.275c16.383 27.668 39.679 50.968 67.371 67.382 1.2.711 2.517 1.049 3.817 1.049 2.562 0 5.058-1.313 6.459-3.677 2.112-3.564.935-8.164-2.628-10.276z"/><path d="m93.886 168.902c1.199.71 2.515 1.047 3.814 1.047 2.562 0 5.06-1.314 6.46-3.68 15.103-25.507 36.581-46.988 62.112-62.121 3.563-2.112 4.74-6.712 2.627-10.276-2.111-3.562-6.712-4.74-10.276-2.627-27.691 16.414-50.988 39.714-67.371 67.382-2.108 3.564-.93 8.165 2.634 10.275z"/><path d="m345.727 104.149c25.531 15.133 47.009 36.614 62.112 62.121 1.4 2.365 3.897 3.68 6.46 3.68 1.3 0 2.615-.337 3.814-1.047 3.564-2.11 4.742-6.71 2.632-10.275-16.382-27.668-39.679-50.969-67.37-67.382-3.563-2.112-8.163-.936-10.276 2.627-2.112 3.564-.936 8.164 2.628 10.276z"/><path d="m144.3 256c0-39.784-32.366-72.15-72.15-72.15-11.146 0-21.837 2.476-31.776 7.358-3.718 1.826-5.251 6.32-3.425 10.038s6.321 5.25 10.038 3.425c7.864-3.863 16.33-5.821 25.163-5.821 31.513 0 57.15 25.637 57.15 57.15s-25.637 57.15-57.15 57.15-57.15-25.637-57.15-57.15c0-10.934 3.095-21.562 8.952-30.734 2.229-3.491 1.205-8.128-2.286-10.357-3.49-2.229-8.127-1.206-10.357 2.286-7.399 11.587-11.309 25.006-11.309 38.805 0 39.784 32.366 72.15 72.15 72.15s72.15-32.366 72.15-72.15z"/><path d="m89.752 272.163v-36.947h.582c4.142 0 7.5-3.358 7.5-7.5s-3.358-7.5-7.5-7.5h-8.082c-4.142 0-7.5 3.358-7.5 7.5v22.434c-2.685-1.06-5.605-1.65-8.663-1.65-13.047 0-23.663 10.615-23.663 23.663s10.615 23.663 23.663 23.663 23.663-10.616 23.663-23.663zm-32.325 0c0-4.776 3.886-8.663 8.663-8.663s8.663 3.886 8.663 8.663-3.886 8.663-8.663 8.663-8.663-3.887-8.663-8.663z"/><path d="m486.201 200.706c-3.172-2.662-7.902-2.25-10.566.923-2.662 3.173-2.249 7.903.924 10.566 12.99 10.904 20.441 26.87 20.441 43.805 0 31.513-25.638 57.15-57.15 57.15s-57.15-25.637-57.15-57.15 25.637-57.15 57.149-57.15c2.885 0 5.793.217 8.645.646 4.095.616 7.916-2.204 8.533-6.301.616-4.096-2.205-7.916-6.301-8.532-3.588-.54-7.248-.813-10.877-.813-39.783 0-72.149 32.366-72.149 72.15s32.366 72.15 72.149 72.15c39.784 0 72.15-32.366 72.15-72.15.001-21.379-9.402-41.533-25.798-55.294z"/><path d="m413.585 229.307c-4.143 0-7.5 3.358-7.5 7.5v8.081c0 4.142 3.357 7.5 7.5 7.5s7.5-3.358 7.5-7.5v-.581h11.265v44.018c0 4.142 3.357 7.5 7.5 7.5s7.5-3.358 7.5-7.5v-44.018h11.265v.581c0 4.142 3.357 7.5 7.5 7.5s7.5-3.358 7.5-7.5v-8.081c0-4.142-3.357-7.5-7.5-7.5z"/><path d="m256 144.301c39.784 0 72.15-32.367 72.15-72.15s-32.366-72.151-72.15-72.151-72.15 32.367-72.15 72.15 32.366 72.151 72.15 72.151zm0-129.301c31.513 0 57.15 25.638 57.15 57.15s-25.638 57.15-57.15 57.15-57.15-25.638-57.15-57.15 25.637-57.15 57.15-57.15z"/><path d="m235.383 107.728c4.436 2.527 9.707 2.484 14.103-.121l39.459-23.383c4.308-2.553 6.88-7.066 6.88-12.074s-2.572-9.521-6.88-12.074l-39.459-23.383c-4.394-2.603-9.666-2.649-14.103-.121s-7.086 7.087-7.086 12.194v46.767c0 5.108 2.649 9.667 7.086 12.195zm7.914-57.267 36.6 21.689-36.6 21.689z"/><path d="m256 367.7c-11.903 0-23.705 2.961-34.13 8.563-3.648 1.96-5.017 6.508-3.056 10.157 1.961 3.65 6.509 5.016 10.157 3.056 8.25-4.433 17.596-6.776 27.03-6.776 31.513 0 57.15 25.637 57.15 57.15 0 3.049-.246 6.041-.708 8.962l-24.797-25.875c-2.881-3.006-6.922-4.73-11.085-4.73s-8.204 1.724-11.085 4.73l-21.365 22.294-4.619-4.82c-2.88-3.006-6.921-4.73-11.085-4.73s-8.204 1.724-11.084 4.73l-15.854 16.544c-1.698-5.403-2.617-11.148-2.617-17.105 0-10.208 2.719-20.221 7.862-28.954 2.102-3.569.913-8.167-2.656-10.269-3.57-2.103-8.167-.913-10.269 2.656-6.501 11.038-9.938 23.683-9.938 36.566 0 39.784 32.366 72.15 72.15 72.15s72.15-32.366 72.15-72.15-32.367-72.149-72.151-72.149zm0 129.3c-19.852 0-37.364-10.179-47.612-25.587l19.764-20.624c.031-.032.104-.108.254-.108.151 0 .224.076.255.109l10.034 10.471c1.415 1.476 3.371 2.311 5.415 2.311s4-.834 5.415-2.311l26.78-27.944c.031-.033.104-.109.255-.109s.224.076.255.109l30.445 31.768c-9.337 18.889-28.802 31.915-51.26 31.915z"/><path d="m340.192 277.055-11.813-12.827c-.109-.119-.159-.306-.138-.515.274-2.565.414-5.16.414-7.713s-.14-5.148-.414-7.713c-.021-.208.028-.396.138-.515l11.813-12.827c4.642-5.039 5.458-12.412 2.033-18.346l-8.99-15.572c-3.427-5.933-10.226-8.914-16.905-7.412l-17.014 3.817c-.154.035-.344-.015-.514-.139-4.161-3.037-8.659-5.636-13.37-7.724-.188-.083-.323-.219-.372-.374l-5.198-16.635c-2.043-6.541-8.02-10.935-14.872-10.935h-17.98c-6.852 0-12.828 4.394-14.872 10.934l-5.198 16.635c-.048.154-.184.291-.372.374-4.708 2.087-9.207 4.686-13.371 7.724-.169.124-.356.173-.515.139l-17.012-3.817c-6.685-1.499-13.479 1.479-16.905 7.413l-8.99 15.571c-3.426 5.934-2.609 13.307 2.033 18.347l11.814 12.827c.109.119.159.306.137.515-.274 2.565-.414 5.16-.414 7.713s.139 5.148.414 7.714c.022.208-.028.395-.138.514l-11.814 12.827c-4.642 5.04-5.458 12.413-2.032 18.346l8.99 15.571c3.426 5.935 10.219 8.914 16.905 7.413l17.013-3.817c.159-.035.345.016.514.139 4.163 3.038 8.662 5.636 13.369 7.723.189.083.325.22.373.373l5.199 16.636c2.044 6.54 8.021 10.934 14.872 10.934h17.98c6.853 0 12.829-4.395 14.871-10.934l5.2-16.637c.048-.153.183-.289.371-.373 4.711-2.088 9.209-4.687 13.37-7.724.169-.124.356-.173.516-.139l17.012 3.817c6.688 1.501 13.479-1.479 16.905-7.413l8.991-15.572c3.424-5.931 2.608-13.304-2.034-18.343zm-10.957 10.846-8.99 15.571c-.127.222-.379.332-.632.277l-17.01-3.817c-4.373-.981-8.981-.013-12.643 2.658-3.302 2.409-6.87 4.47-10.606 6.127-4.137 1.833-7.275 5.337-8.61 9.612l-5.2 16.638c-.076.243-.299.407-.554.407h-17.98c-.255 0-.479-.164-.555-.408l-5.199-16.637c-1.336-4.274-4.474-7.777-8.61-9.611-3.735-1.656-7.303-3.717-10.606-6.127-2.724-1.988-5.973-3.033-9.259-3.033-1.13 0-2.264.124-3.383.375l-17.012 3.817c-.247.055-.502-.055-.63-.277l-8.99-15.572c-.128-.221-.097-.496.076-.684l11.813-12.826c3.038-3.297 4.502-7.771 4.02-12.274-.218-2.037-.329-4.094-.329-6.116s.11-4.08.328-6.115c.483-4.504-.981-8.979-4.019-12.275l-11.813-12.826c-.173-.188-.204-.463-.076-.685l8.991-15.572c.128-.221.383-.33.63-.276l17.011 3.817c4.378.985 8.982.014 12.642-2.658 3.303-2.41 6.872-4.472 10.607-6.127 4.135-1.834 7.273-5.337 8.61-9.612l5.199-16.636c.076-.244.299-.408.555-.408h17.98c.255 0 .478.164.555.408l5.198 16.635c1.336 4.275 4.475 7.779 8.61 9.613 3.737 1.657 7.306 3.718 10.607 6.127 3.659 2.671 8.268 3.643 12.641 2.658l17.012-3.817c.259-.054.505.057.632.277l8.989 15.57c.128.222.098.498-.075.686l-11.813 12.826c-3.036 3.296-4.501 7.77-4.019 12.274.218 2.037.328 4.094.328 6.116s-.11 4.08-.328 6.116c-.482 4.504.982 8.978 4.019 12.274l11.813 12.826c.172.188.202.464.075.684z"/><path d="m256 226.782c-16.111 0-29.218 13.107-29.218 29.218s13.107 29.218 29.218 29.218 29.219-13.107 29.219-29.218-13.108-29.218-29.219-29.218zm0 43.436c-7.84 0-14.218-6.378-14.218-14.218s6.378-14.218 14.218-14.218 14.219 6.378 14.219 14.218-6.379 14.218-14.219 14.218z"/></g></g></svg>