<svg fill="#6109A4"  id="Capa_1" enable-background="new 0 0 512 512" height="512" viewBox="0 0 512 512" width="512" xmlns="http://www.w3.org/2000/svg"><g><g><circle cx="472.175" cy="39.825" r="8.081"/><circle cx="439.85" cy="39.825" r="8.081"/><circle cx="407.524" cy="39.825" r="8.081"/><path d="m490.36 0h-468.72c-11.933 0-21.64 9.708-21.64 21.64v341.17c0 4.142 3.357 7.5 7.5 7.5s7.5-3.358 7.5-7.5v-283.16h482v23.49c0 4.142 3.357 7.5 7.5 7.5s7.5-3.358 7.5-7.5v-81.5c0-11.932-9.707-21.64-21.64-21.64zm-475.36 64.65v-43.01c0-3.661 2.979-6.64 6.64-6.64h468.72c3.661 0 6.64 2.979 6.64 6.64v43.01z"/><path d="m504.5 130.64c-4.143 0-7.5 3.358-7.5 7.5v352.22c0 3.661-2.979 6.64-6.64 6.64h-468.72c-3.661 0-6.64-2.979-6.64-6.64v-92.55c0-4.142-3.357-7.5-7.5-7.5s-7.5 3.358-7.5 7.5v92.55c0 11.932 9.707 21.64 21.64 21.64h468.72c11.933 0 21.64-9.708 21.64-21.64v-352.22c0-4.142-3.357-7.5-7.5-7.5z"/><path d="m82.252 159.605h-32.325c-4.143 0-7.5 3.358-7.5 7.5v131.903h-2.602c-4.143 0-7.5 3.358-7.5 7.5s3.357 7.5 7.5 7.5h246.479c4.143 0 7.5-3.358 7.5-7.5s-3.357-7.5-7.5-7.5h-2.604v-116.008c0-4.142-3.357-7.5-7.5-7.5s-7.5 3.358-7.5 7.5v116.008h-17.32v-187.028h17.32v36.02c0 4.142 3.357 7.5 7.5 7.5s7.5-3.358 7.5-7.5v-43.52c0-4.142-3.357-7.5-7.5-7.5h-32.32c-4.143 0-7.5 3.358-7.5 7.5v194.528h-17.327v-101.597c0-4.142-3.357-7.5-7.5-7.5h-32.325c-4.143 0-7.5 3.358-7.5 7.5v101.598h-17.325v-172.31c0-4.142-3.357-7.5-7.5-7.5h-32.325c-4.143 0-7.5 3.358-7.5 7.5v172.309h-17.326v-131.903c0-4.142-3.357-7.5-7.5-7.5zm-24.825 15h17.325v124.403h-17.325zm129.301 30.306h17.325v94.098h-17.325zm-64.651-70.712h17.325v164.809h-17.325z"/><path d="m32.325 407.524c0 4.142 3.357 7.5 7.5 7.5h32.325c4.143 0 7.5-3.358 7.5-7.5v-32.325c0-4.142-3.357-7.5-7.5-7.5h-32.325c-4.143 0-7.5 3.358-7.5 7.5zm15-24.825h17.325v17.325h-17.325z"/><path d="m104.476 415.024h42.427c4.143 0 7.5-3.358 7.5-7.5s-3.357-7.5-7.5-7.5h-42.427c-4.143 0-7.5 3.358-7.5 7.5s3.357 7.5 7.5 7.5z"/><path d="m187.309 367.699h-40.406c-4.143 0-7.5 3.358-7.5 7.5s3.357 7.5 7.5 7.5h40.406c4.143 0 7.5-3.358 7.5-7.5s-3.358-7.5-7.5-7.5z"/><path d="m104.476 382.699h10.102c4.143 0 7.5-3.358 7.5-7.5s-3.357-7.5-7.5-7.5h-10.102c-4.143 0-7.5 3.358-7.5 7.5s3.357 7.5 7.5 7.5z"/><path d="m32.325 472.175c0 4.142 3.357 7.5 7.5 7.5h32.325c4.143 0 7.5-3.358 7.5-7.5v-32.325c0-4.142-3.357-7.5-7.5-7.5h-32.325c-4.143 0-7.5 3.358-7.5 7.5zm15-24.825h17.325v17.325h-17.325z"/><path d="m104.476 479.675h42.427c4.143 0 7.5-3.358 7.5-7.5s-3.357-7.5-7.5-7.5h-42.427c-4.143 0-7.5 3.358-7.5 7.5s3.357 7.5 7.5 7.5z"/><path d="m194.809 439.85c0-4.142-3.357-7.5-7.5-7.5h-40.406c-4.143 0-7.5 3.358-7.5 7.5s3.357 7.5 7.5 7.5h40.406c4.142 0 7.5-3.358 7.5-7.5z"/><path d="m104.476 447.35h10.102c4.143 0 7.5-3.358 7.5-7.5s-3.357-7.5-7.5-7.5h-10.102c-4.143 0-7.5 3.358-7.5 7.5s3.357 7.5 7.5 7.5z"/><path d="m269.561 375.199c0-4.142-3.357-7.5-7.5-7.5h-32.325c-4.143 0-7.5 3.358-7.5 7.5v32.325c0 4.142 3.357 7.5 7.5 7.5h32.325c4.143 0 7.5-3.358 7.5-7.5zm-15 24.825h-17.325v-17.325h17.325z"/><path d="m286.886 407.524c0 4.142 3.357 7.5 7.5 7.5h42.428c4.143 0 7.5-3.358 7.5-7.5s-3.357-7.5-7.5-7.5h-42.428c-4.143 0-7.5 3.358-7.5 7.5z"/><path d="m377.22 367.699h-40.406c-4.143 0-7.5 3.358-7.5 7.5s3.357 7.5 7.5 7.5h40.406c4.143 0 7.5-3.358 7.5-7.5s-3.358-7.5-7.5-7.5z"/><path d="m304.488 367.699h-10.103c-4.143 0-7.5 3.358-7.5 7.5s3.357 7.5 7.5 7.5h10.103c4.143 0 7.5-3.358 7.5-7.5s-3.357-7.5-7.5-7.5z"/><path d="m262.061 432.35h-32.325c-4.143 0-7.5 3.358-7.5 7.5v32.325c0 4.142 3.357 7.5 7.5 7.5h32.325c4.143 0 7.5-3.358 7.5-7.5v-32.325c0-4.142-3.358-7.5-7.5-7.5zm-7.5 32.325h-17.325v-17.325h17.325z"/><path d="m294.386 479.675h42.428c4.143 0 7.5-3.358 7.5-7.5s-3.357-7.5-7.5-7.5h-42.428c-4.143 0-7.5 3.358-7.5 7.5s3.357 7.5 7.5 7.5z"/><path d="m384.72 439.85c0-4.142-3.357-7.5-7.5-7.5h-40.406c-4.143 0-7.5 3.358-7.5 7.5s3.357 7.5 7.5 7.5h40.406c4.142 0 7.5-3.358 7.5-7.5z"/><path d="m294.386 447.35h10.103c4.143 0 7.5-3.358 7.5-7.5s-3.357-7.5-7.5-7.5h-10.103c-4.143 0-7.5 3.358-7.5 7.5s3.357 7.5 7.5 7.5z"/><path d="m429.97 169.708h-38.608c-4.143 0-7.5 3.358-7.5 7.5s3.357 7.5 7.5 7.5h38.608c4.143 0 7.5-3.358 7.5-7.5s-3.358-7.5-7.5-7.5z"/><path d="m359.036 184.708c4.143 0 7.5-3.358 7.5-7.5s-3.357-7.5-7.5-7.5h-20.203c-4.143 0-7.5 3.358-7.5 7.5s3.357 7.5 7.5 7.5z"/><path d="m313.15 209.533c0 4.142 3.357 7.5 7.5 7.5h86.995c4.143 0 7.5-3.358 7.5-7.5s-3.357-7.5-7.5-7.5h-86.995c-4.142 0-7.5 3.358-7.5 7.5z"/><path d="m432.471 209.533c0 4.142 3.357 7.5 7.5 7.5h32.204c4.143 0 7.5-3.358 7.5-7.5s-3.357-7.5-7.5-7.5h-32.204c-4.143 0-7.5 3.358-7.5 7.5z"/><path d="m320.65 249.358h36.366c4.143 0 7.5-3.358 7.5-7.5s-3.357-7.5-7.5-7.5h-36.366c-4.143 0-7.5 3.358-7.5 7.5s3.358 7.5 7.5 7.5z"/><path d="m407.646 234.358h-18.304c-4.143 0-7.5 3.358-7.5 7.5s3.357 7.5 7.5 7.5h18.304c4.143 0 7.5-3.358 7.5-7.5s-3.358-7.5-7.5-7.5z"/><path d="m472.175 234.358h-32.325c-4.143 0-7.5 3.358-7.5 7.5s3.357 7.5 7.5 7.5h32.325c4.143 0 7.5-3.358 7.5-7.5s-3.358-7.5-7.5-7.5z"/><path d="m320.65 281.683h86.995c4.143 0 7.5-3.358 7.5-7.5s-3.357-7.5-7.5-7.5h-86.995c-4.143 0-7.5 3.358-7.5 7.5s3.358 7.5 7.5 7.5z"/><path d="m472.063 266.683h-32.093c-4.143 0-7.5 3.358-7.5 7.5s3.357 7.5 7.5 7.5h32.093c4.143 0 7.5-3.358 7.5-7.5s-3.357-7.5-7.5-7.5z"/><path d="m320.65 314.008h15.152c4.143 0 7.5-3.358 7.5-7.5s-3.357-7.5-7.5-7.5h-15.152c-4.143 0-7.5 3.358-7.5 7.5s3.358 7.5 7.5 7.5z"/><path d="m479.563 306.508c0-4.142-3.357-7.5-7.5-7.5h-103.935c-4.143 0-7.5 3.358-7.5 7.5s3.357 7.5 7.5 7.5h103.936c4.142 0 7.499-3.358 7.499-7.5z"/><path d="m472.063 184.708c4.143 0 7.5-3.358 7.5-7.5s-3.357-7.5-7.5-7.5h-9.99c-4.143 0-7.5 3.358-7.5 7.5s3.357 7.5 7.5 7.5z"/></g></g></svg>