<svg  fill="#6109A4" id="Capa_1" enable-background="new 0 0 512 512" height="512" viewBox="0 0 512 512" width="512" xmlns="http://www.w3.org/2000/svg"><g><path d="m481.941 59.827h-451.882c-16.575 0-30.059 13.485-30.059 30.059v210.991c0 16.574 13.484 30.059 30.059 30.059h9.928v101.198c0 11.049 8.989 20.039 20.039 20.039h20.039c11.05 0 20.039-8.99 20.039-20.039v-27.656h311.793v27.656c0 11.049 8.989 20.039 20.039 20.039h20.039c11.05 0 20.039-8.99 20.039-20.039v-101.198h9.928c16.574 0 30.059-13.484 30.059-30.059v-210.991c-.001-16.574-13.485-30.059-30.06-30.059zm-421.916 372.307v-101.198h20.039v101.198zm351.871-60.206-48.468-40.992h48.468zm-16.24 12.51h-114.587l57.295-48.455zm-139.651-5.047-57.297-48.455h114.591zm-25.065 5.047h-114.595l57.298-48.455zm-130.836-12.509v-40.994h48.474zm351.871 60.205h-20.039v-101.198h20.039zm29.966-121.237h-451.882c-5.524 0-10.02-4.495-10.02-10.02v-20.039h191.048c5.533 0 10.02-4.486 10.02-10.02s-4.486-10.02-10.02-10.02h-191.048v-170.912c0-5.525 4.495-10.02 10.02-10.02h451.883c5.524 0 10.02 4.495 10.02 10.02v170.913h-190.66c-5.533 0-10.02 4.486-10.02 10.02s4.486 10.02 10.02 10.02h190.659v20.039c0 5.524-4.495 10.019-10.02 10.019z"/><path d="m184.377 111.849c-8.227 0-16.097 2.331-22.854 6.68-6.756-4.349-14.625-6.68-22.853-6.68-11.287 0-21.899 4.386-29.89 12.352-7.892 7.702-12.402 18.673-12.375 30.114.027 11.397 4.541 22.279 12.388 29.875l42.104 42.103c2.93 2.929 6.778 4.394 10.626 4.394s7.698-1.465 10.628-4.395l42.124-42.125c7.864-7.776 12.513-18.992 12.441-30.011-.004-11.174-4.53-22.08-12.401-29.906-7.996-7.997-18.628-12.401-29.938-12.401zm22.3 42.416c.044 5.652-2.444 11.65-6.532 15.692l-38.622 38.622-38.623-38.623c-.045-.045-.09-.089-.135-.133-4.003-3.854-6.307-9.525-6.322-15.558-.015-6.067 2.302-11.807 6.356-15.748.033-.033.068-.066.101-.099 4.211-4.212 9.812-6.531 15.769-6.531s11.557 2.319 15.768 6.531c1.879 1.879 4.428 2.935 7.085 2.935s5.205-1.056 7.084-2.934c4.212-4.212 9.813-6.531 15.77-6.531s11.557 2.319 15.789 6.551c4.142 4.118 6.515 9.856 6.512 15.743z"/><path d="m260.976 209.105h94.503c5.533 0 10.02-4.486 10.02-10.02s-4.486-10.02-10.02-10.02h-94.503c-5.533 0-10.02 4.486-10.02 10.02s4.486 10.02 10.02 10.02z"/><path d="m260.976 169.027h144.601c5.533 0 10.02-4.486 10.02-10.02s-4.486-10.02-10.02-10.02h-144.601c-5.533 0-10.02 4.486-10.02 10.02s4.486 10.02 10.02 10.02z"/><circle cx="256" cy="270.819" r="10"/></g></svg>