<svg xmlns="http://www.w3.org/2000/svg" viewBox="0 0 323.74 227.92"><defs><style>.cls-1{fill:#7a11ea;}</style></defs><title>Artboard 34</title><g id="OBJECTS"><polygon class="cls-1" points="24.13 91.33 0 91.33 0 92.22 0 135.7 0 136.59 24.13 136.59 53.71 227.92 122.03 227.92 122.03 183.55 88.54 183.55 65.03 116.98 88.54 44.37 122.03 44.37 122.03 0 53.71 0 24.13 91.33"/><polygon class="cls-1" points="299.61 91.33 270.02 0 201.7 0 201.7 44.37 235.2 44.37 258.71 110.94 235.2 183.55 201.7 183.55 201.7 227.92 270.02 227.92 299.61 136.59 323.74 136.59 323.74 135.7 323.74 92.22 323.74 91.33 299.61 91.33"/></g></svg>