<svg xmlns="http://www.w3.org/2000/svg" viewBox="0 0 409.22 138.43"><defs><style>.cls-1{fill:#fff;}</style></defs><title>Artboard 35</title><g id="OBJECTS"><path class="cls-1" d="M128.55,103.44a14.41,14.41,0,0,1,5.43-5.6,14.91,14.91,0,0,1,7.67-2,15.6,15.6,0,0,1,8.84,2.45,13.94,13.94,0,0,1,5.36,6.9h-3.62a10.58,10.58,0,0,0-4-4.89,11.72,11.72,0,0,0-6.55-1.77,11.87,11.87,0,0,0-6.11,1.59,11,11,0,0,0-4.25,4.56,14.8,14.8,0,0,0-1.55,6.9,14.63,14.63,0,0,0,1.55,6.88,11,11,0,0,0,4.25,4.54,12.87,12.87,0,0,0,12.66-.15,10.52,10.52,0,0,0,4-4.83h3.62a13.8,13.8,0,0,1-5.38,6.84,15.79,15.79,0,0,1-8.82,2.42,14.91,14.91,0,0,1-7.67-2,14.4,14.4,0,0,1-5.43-5.57,17.66,17.66,0,0,1,0-16.25Z"/><path class="cls-1" d="M176,125.31a14.49,14.49,0,0,1-5.49-5.6,17.47,17.47,0,0,1,0-16.27,14.49,14.49,0,0,1,5.49-5.6,16.06,16.06,0,0,1,15.56,0,14.3,14.3,0,0,1,5.47,5.6,17.7,17.7,0,0,1,0,16.27,14.3,14.3,0,0,1-5.47,5.6,16.06,16.06,0,0,1-15.56,0ZM189.93,123a11.29,11.29,0,0,0,4.32-4.57,15.7,15.7,0,0,0,0-13.77,11.36,11.36,0,0,0-4.32-4.55,12.84,12.84,0,0,0-12.34,0,11.32,11.32,0,0,0-4.33,4.55,15.79,15.79,0,0,0,0,13.77,11.24,11.24,0,0,0,4.33,4.57,12.77,12.77,0,0,0,12.34,0Z"/><path class="cls-1" d="M230.5,98a12.94,12.94,0,0,1,5.6,5.33,16.85,16.85,0,0,1,1.94,8.29,16.61,16.61,0,0,1-1.94,8.23,12.91,12.91,0,0,1-5.6,5.29,19.45,19.45,0,0,1-8.78,1.83h-9.13V96.19h9.13A19.19,19.19,0,0,1,230.5,98Zm1,23q3.38-3.37,3.38-9.42t-3.38-9.5q-3.37-3.42-9.81-3.42h-6v25.71h6Q228.15,124.45,231.53,121.08Z"/><path class="cls-1" d="M254.75,98.7v11.51h11.68v2.55H254.75v11.69h13V127H251.66V96.14h16.09V98.7Z"/><path class="cls-1" d="M104.82,40.59V49H87.31V58h13.1v8.14H87.31V83.57H76.85v-43Z"/><path class="cls-1" d="M131.82,75.48h13.71v8.09H121.35v-43h10.47Z"/><path class="cls-1" d="M171.85,40.59V66.3a8.54,8.54,0,0,0,1.9,5.94,7.15,7.15,0,0,0,5.57,2.08A7.34,7.34,0,0,0,185,72.24a8.33,8.33,0,0,0,2-5.94V40.59h10.47V66.24A18.14,18.14,0,0,1,194.93,76a15.54,15.54,0,0,1-6.58,6,20.62,20.62,0,0,1-9.21,2,20.24,20.24,0,0,1-9.09-2,14.86,14.86,0,0,1-6.34-6,19.13,19.13,0,0,1-2.32-9.76V40.59Z"/><path class="cls-1" d="M242.07,83.57,233.32,70.4,225.6,83.57H213.73L227.5,61.71,213.42,40.59H225.6l8.63,13,7.59-13H253.7L240.05,62.26l14.2,21.31Z"/><path class="cls-1" d="M281,49v8.69h14v8.08H281v9.43h15.86v8.39H270.54v-43h26.32V49Z"/><path class="cls-1" d="M325.14,75.48h13.71v8.09H314.67v-43h10.47Z"/><polygon class="cls-1" points="14.66 55.47 0 55.47 0 56.01 0 82.42 0 82.96 14.66 82.96 32.62 138.43 74.12 138.43 74.12 111.48 53.77 111.48 39.49 71.05 53.77 26.95 74.12 26.95 74.12 0 32.62 0 14.66 55.47"/><polygon class="cls-1" points="394.56 55.47 376.6 0 335.1 0 335.1 26.95 355.44 26.95 369.73 67.38 355.44 111.48 335.1 111.48 335.1 138.43 376.6 138.43 394.56 82.96 409.22 82.96 409.22 82.42 409.22 56.01 409.22 55.47 394.56 55.47"/></g></svg>